<?xml version="1.0" encoding="UTF-8"?>
<svg xmlns="http://www.w3.org/2000/svg" viewBox="-14 -1 273 724">
<g stroke="none" stroke-width="1" fill="none" fill-rule="evenodd">
<path d="M91.662,101.903 L96.381,101.898 L103.941,109.637 L105.057,110.964 L105.211,111.202 L105.31,111.439 L105.36,111.903 L105.238,112.335 L101.511,119.2 L99.37,120.792 L98.671,120.823 L98.167,120.78 L97.661,120.694 L96.907,120.498 L95.943,120.154 L95.061,119.771 L94.402,119.441 L93.553,118.937 L92.943,118.513 L92.172,117.891 L91.122,116.852 L90.329,115.868 L89.963,115.203 L89.656,114.524 L89.314,113.597 L89.105,112.878 L88.89,111.903 L88.75,110.915 L88.687,109.912 L88.701,108.913 L88.796,107.909 L88.97,106.93 L89.228,105.969 L89.569,105.039 L89.994,104.146 L90.513,103.287 L91.111,102.492 Z" id="🎨-Background" fill="#FFFFFF" fill-rule="evenodd"></path>
<path d="M98.364,109.716 L98.344,109.271 L98.46,108.85 L98.572,108.664 L98.722,108.502 L99.013,108.319 L97.915,107.858 L95.628,107.165 L95.526,107.043 L95.594,106.901 L96.012,106.682 L96.697,106.466 L97.432,106.371 L98.191,106.379 L98.949,106.474 L99.916,106.705 L100.577,106.935 L101.437,107.323 L101.97,107.616 L103.941,109.637 L104.766,110.594 L104.869,110.927 L104.893,111.182 L104.867,111.413 L104.796,111.621 L104.54,111.959 L104.365,112.088 L103.951,112.263 L103.485,112.322 L103.247,112.305 L102.785,112.176 L102.381,111.915 L102.213,111.732 L100.769,109.744 L100.397,110.189 L99.999,110.499 L99.764,110.581 L99.516,110.591 L99.188,110.534 L98.781,110.365 L98.611,110.232 L98.477,110.061 Z M91.112,102.491 L91.662,101.903 L96.381,101.898 L96.58,102.102 L95.641,102.623 L94.666,103.39 L93.821,104.302 L93.388,104.906 L93.135,105.328 L92.721,106.21 L92.442,107.128 L92.257,108.357 L92.236,109.602 L92.378,110.835 L92.543,111.558 L92.766,112.26 L93.269,113.372 L93.649,113.992 L94.088,114.571 L94.586,115.102 L94.951,115.427 L95.547,115.865 L96.202,116.24 L97.115,116.643 L99.634,117.649 L100.526,118.066 L101.175,118.424 L101.732,118.793 L101.511,119.2 L99.37,120.792 L98.671,120.823 L98.167,120.78 L97.661,120.694 L96.907,120.498 L95.943,120.154 L95.061,119.771 L94.402,119.441 L93.553,118.937 L92.943,118.513 L92.172,117.891 L91.122,116.852 L90.329,115.868 L89.962,115.202 L89.656,114.525 L89.314,113.596 L89.105,112.879 L88.89,111.904 L88.75,110.912 L88.687,109.911 L88.701,108.909 L88.795,107.913 L88.97,106.931 L89.227,105.97 L89.569,105.038 L89.996,104.142 L90.51,103.291 Z" id="🖍-Ink" fill="#000000" fill-rule="evenodd"></path>
</g>
</svg>
