<?xml version="1.0" encoding="UTF-8"?>
<svg xmlns="http://www.w3.org/2000/svg" viewBox="-1 -41 324 738">
<g stroke="none" stroke-width="1" fill="none" fill-rule="evenodd">
<path d="M 53.563374,310.755863 C 53.603512,313.482700 53.876972,319.744630 54.561682,322.384339 C 46.933684,310.163777 35.503765,296.807179 33.765509,281.839512 C 34.307244,281.691347 36.710909,281.469799 37.130570,281.155066 C 41.077093,282.987556 40.330444,277.347745 40.913742,274.739253 C 42.488837,269.216623 45.798102,263.784382 47.235922,258.225176 C 51.015483,256.591636 43.425485,255.899502 42.322776,255.867120 C 46.907223,250.765454 49.015978,243.752091 52.280166,237.800807 C 57.076462,227.686468 61.372109,217.347085 65.207721,206.845561 C 66.046093,213.425612 66.196430,220.076951 65.685569,226.693345 C 64.108337,255.033810 53.456500,282.283773 53.563374,310.755863 Z M 318.306347,260.413380 C 315.933256,260.811980 311.978547,261.189498 309.610205,261.383324 C 312.718832,259.531032 321.906541,256.002239 316.116549,252.830908 C 314.331268,252.179309 312.415533,253.108812 310.615289,253.396289 C 303.138815,254.626103 293.907092,254.561210 286.343456,253.941527 C 289.100583,251.679685 292.730766,248.422075 295.421632,246.081259 C 296.851614,244.837467 298.238143,244.365928 296.629561,242.508744 C 293.794296,239.869501 288.723886,241.813115 285.445685,242.973040 C 276.402666,248.036733 266.192070,253.529545 256.486429,257.425625 C 256.384779,256.066517 256.447576,254.309272 255.136581,253.396289 C 251.290757,251.584765 248.459227,252.114291 244.367116,251.632057 C 239.597658,250.917558 235.358298,250.104884 230.634915,248.844086 C 227.545526,246.489059 225.661731,239.544013 220.721748,240.320247 C 225.096958,229.315288 218.428408,217.833746 215.923266,207.296112 C 212.797065,196.512002 211.154521,185.312286 211.109871,174.099291 C 211.079233,156.146897 200.675820,142.372237 185.643548,133.160397 C 179.717469,129.160415 175.738013,119.431058 168.401189,117.482319 C 167.468055,113.903768 167.411449,112.331837 166.592077,108.726030 C 166.180729,107.690274 165.875067,102.070032 164.840521,102.261295 C 163.699812,96.694168 157.886070,94.461447 152.855363,93.295465 C 146.314398,91.940550 137.186355,90.299322 131.306351,94.122485 C 129.603245,95.538903 128.855122,97.910703 128.730198,100.029505 C 128.076837,102.850925 126.717859,105.773728 125.133739,108.221708 C 122.430288,107.308733 123.960258,105.607355 121.286437,105.211229 C 96.871797,101.594208 69.771359,119.496919 53.930548,136.961661 C 25.216661,166.433630 2.278042,206.667420 6.032904,248.671888 C 5.023057,248.522792 0.547148,247.821572 0.611748,249.235194 C 0.830960,255.382166 1.962406,260.509149 2.274717,266.651229 C 1.964306,274.788176 10.421888,275.768486 16.531554,277.775232 C 16.155356,301.382813 24.735963,324.996451 38.166066,344.402303 C 41.428829,348.220806 46.324637,361.471676 52.280166,356.193191 C 52.981976,355.372694 47.539136,349.688942 46.570852,348.284638 C 43.264389,344.124145 34.506031,323.524355 40.695907,319.409988 C 42.071977,323.856794 55.396740,345.239141 57.771969,333.102679 C 60.926670,334.932840 66.139668,336.181723 69.910917,335.992557 C 77.000504,339.831328 83.899143,343.976912 90.707531,348.284638 C 93.878858,354.510120 98.530516,360.489359 102.427640,366.466501 C 75.456997,428.736923 49.131614,531.227484 14.423723,589.878587 C 11.397509,593.708738 28.045340,600.218668 30.985817,601.624136 C 25.362549,610.750711 24.658512,621.326551 20.380440,631.154113 C 19.565580,631.022488 18.743596,631.195580 18.008536,631.588822 C 12.731304,635.161083 10.739874,647.949377 10.438962,654.254765 C 10.682636,657.067565 9.639540,661.321244 11.916207,663.392522 C 11.597958,663.736842 11.360459,664.157341 11.191360,664.586692 C 9.589190,665.833279 9.786552,668.588072 10.642974,670.296159 C 13.656363,676.547733 35.682274,675.967654 42.830048,677.304864 C 68.148885,679.448593 89.399506,679.786157 114.715017,677.443011 C 117.822219,676.792577 115.472402,671.946938 113.938157,670.632559 C 114.646855,670.201576 115.100003,669.414626 114.789829,668.403565 C 109.034749,651.952154 88.234081,653.065253 75.647576,644.279737 C 78.957126,642.366409 76.821059,642.977006 74.741754,643.721091 C 72.534911,642.334959 70.388157,640.775036 68.399576,639.051572 C 69.926933,638.109002 69.173586,637.486291 67.521304,638.275571 C 64.917126,636.187986 62.888883,632.961443 59.571495,631.949683 C 56.322268,631.154113 56.322268,629.765190 56.322268,628.889708 C 58.255987,621.117816 60.368280,613.147671 61.453889,605.265820 C 62.611935,606.972976 72.603786,593.293830 74.741754,589.878587 C 83.048762,576.728035 83.026300,563.769230 88.839567,549.468072 C 100.776988,518.324590 125.230172,453.051780 140.142745,423.266243 C 175.034698,480.098367 158.039970,556.962189 179.564519,617.564826 C 180.521166,619.385435 182.319984,626.213825 184.811351,624.243887 C 185.779635,624.470560 186.809194,624.592400 187.731403,624.722860 C 187.465166,631.347873 186.968556,637.955182 185.867272,644.510772 C 184.841513,644.781708 183.969891,645.319854 183.518168,646.261026 C 181.790599,644.993006 178.482948,663.699968 178.199849,665.605609 C 178.195574,668.063606 176.075656,673.536849 178.011750,674.997762 C 175.222322,676.138584 174.766323,680.355688 176.728304,682.524111 C 182.553684,690.350284 210.949321,688.199566 221.424935,689.511383 C 234.672163,689.182905 290.090815,694.140599 293.938539,681.579212 C 294.703524,678.711665 293.392291,675.091646 290.725175,673.988099 C 291.792497,671.497720 289.236531,669.093304 287.673073,667.345846 C 278.452881,657.759634 264.275566,656.249541 251.999709,652.077399 C 252.457370,651.608677 235.975399,643.167259 232.402224,641.080605 C 232.638061,638.245906 226.745286,641.087827 226.728898,641.080605 C 223.919283,636.117087 221.929045,628.394414 220.045201,623.039983 C 223.521952,621.962761 231.898885,621.005695 233.451417,617.564826 C 238.441275,615.891915 233.436058,608.658699 232.402224,605.265820 C 203.152540,532.113211 230.902814,439.842024 187.731403,370.797492 C 195.644875,366.267518 204.723572,356.353559 196.906762,348.036765 C 195.342355,346.037473 191.515751,339.812899 191.578688,340.899674 C 190.125148,334.973093 186.878736,324.764409 185.867272,318.771668 C 182.153595,296.768800 184.587674,276.162517 187.731403,253.941527 C 192.095925,270.662010 207.138885,284.592441 222.441906,292.231777 C 228.414297,294.694899 236.300695,299.779093 242.857572,298.175140 C 248.775338,296.425119 259.522888,284.282134 260.789471,278.449895 C 278.040698,280.500206 295.952648,278.854552 312.439127,273.434192 C 314.555482,272.633963 317.059911,272.701700 316.405601,269.699500 C 315.752953,267.151580 311.099346,267.801414 309.098415,268.274563 C 312.156929,266.579987 320.096853,266.136359 320.036054,261.705628 C 319.932741,260.782161 319.250644,260.254732 318.306347,260.413380 Z" id="🎨-skin" fill="#D08B5B"></path>
<path d="M 231.897763,639.432707 C 232.959390,640.483885 241.108650,646.735992 252.114076,652.002648 C 258.840386,655.221529 267.036863,656.884619 273.963253,660.070586 C 281.436424,663.508059 287.520683,668.472189 291.238011,672.062469 L 295.064707,682.283721 C 294.482914,685.989127 277.277285,688.336886 259.219685,688.934971 C 232.766947,689.811111 199.899105,687.273723 196.758587,686.939101 C 191.340941,686.441973 174.460790,686.996288 177.572160,678.157862 C 178.456179,678.437499 178.735509,672.754580 179.356798,672.206758 L 179.892669,667.874840 C 181.429675,655.513466 182.331196,648.861517 182.597233,647.918992 C 182.665868,647.811024 182.736878,647.704954 182.815250,647.604342 C 183.730303,646.422389 185.278032,646.091129 186.703929,646.178215 C 186.819587,646.185334 186.935957,646.199572 187.053041,646.217369 C 187.246833,646.318218 187.433976,646.437339 187.611619,646.579239 L 187.760922,646.599752 C 187.785912,646.603259 187.811112,646.607003 187.836761,646.611274 C 187.888059,646.619579 187.933895,646.633817 187.976881,646.650664 C 188.012504,646.591579 188.043616,646.527272 188.074965,646.463204 C 188.957956,646.733005 189.856622,647.096774 190.718002,647.138063 L 191.340841,647.412058 L 192.146999,647.771188 L 194.474792,648.817104 L 194.995202,649.048453 C 197.995647,650.364059 205.526494,653.186500 212.453071,652.239940 C 219.160674,651.323305 224.793715,644.661900 226.867940,642.907616 C 228.374821,641.525388 230.493003,640.881139 231.897763,639.432707 Z M 58.705278,631.460160 C 59.364450,631.634017 62.276954,633.402834 64.785874,635.799763 C 67.156260,638.064343 69.038888,640.889587 72.570843,643.460125 C 77.672181,647.172851 97.263605,654.262490 107.945721,661.069516 C 113.484361,664.598936 117.015627,676.112304 117.107652,676.643937 C 83.493644,678.571937 43.403380,678.195210 10.110698,672.884371 C 9.477646,672.700509 9.747740,658.077756 11.252185,648.264556 L 11.298153,647.968679 C 12.383365,641.075964 13.616993,637.286203 13.692153,637.124325 L 13.777160,636.981640 C 15.159135,634.728681 18.939630,632.306990 21.387835,633.954814 L 21.410829,633.973959 L 21.868998,634.387964 C 24.056022,636.350104 33.194754,644.212895 39.539513,642.303944 C 41.617085,641.629797 43.341982,640.281976 45.149289,639.106668 C 50.012631,635.968002 53.218285,633.348058 58.705278,631.460160 Z M 59.676488,631.026008 C 60.122980,631.313639 60.547785,631.637710 60.958166,631.985159 C 60.423899,631.664483 59.857691,631.398964 59.247945,631.209580 C 59.381035,631.161030 59.509880,631.106561 59.633904,631.046904 L 59.676488,631.026008 Z" id="🎨-shoes" fill="#FFFFFF"></path>
<path d="M 118.298507,104.077727 L 118.683297,104.125484 C 120.181590,104.320852 121.435977,104.645492 122.502047,105.182464 L 122.624222,105.245369 L 123.112030,105.502072 L 123.230559,106.040058 C 123.602478,107.728148 124.986577,111.535722 125.733457,113.029790 L 125.772850,113.107591 L 125.797999,113.156362 L 125.886123,113.318769 L 126.071017,113.743252 C 129.699541,122.017488 134.600445,129.882765 140.572993,137.101112 L 140.866990,137.454882 L 141.053162,137.704746 C 146.489046,144.954736 153.402030,150.162036 159.152960,150.301165 L 159.326872,150.303826 L 159.633006,150.301430 C 162.921047,150.226007 165.852204,148.498557 168.381979,144.832639 C 170.113251,142.285126 171.099779,139.118164 171.469397,135.320638 C 171.763894,132.294930 171.669767,129.065173 171.268131,125.015826 L 171.241502,124.750569 L 171.176076,124.121994 L 171.130229,123.697297 C 171.110520,123.516845 171.077123,123.476546 171.011401,123.470893 L 170.996816,123.470173 L 170.970920,123.470030 L 170.955524,123.470761 L 170.941211,123.472193 L 170.915052,123.476814 L 169.697915,123.966887 L 169.240677,122.579734 L 169.143568,122.292385 L 169.035753,121.979090 L 168.597162,120.724214 L 168.458185,120.318763 L 168.347663,119.988087 C 168.190198,119.510251 168.059692,119.082440 167.943977,118.657428 L 167.901254,118.498087 L 167.269811,116.020280 L 169.379636,116.785626 C 169.490691,116.825912 169.600715,116.867821 169.709764,116.911369 L 169.872614,116.977924 L 170.026198,117.042137 L 170.156185,117.146075 C 170.602981,117.503333 171.052633,117.793152 171.847679,118.247554 L 171.948883,118.305228 L 172.992722,118.894381 L 173.224964,119.091348 L 173.382764,119.228711 C 174.347351,120.078382 175.164902,120.986443 176.414342,122.526069 L 176.516605,122.652299 L 177.422784,123.779620 L 177.852127,124.307177 L 178.100566,124.715622 L 178.286667,125.028047 L 178.391194,125.205408 L 178.981274,126.214922 L 179.258441,126.684173 C 179.963807,127.869305 180.414229,128.546365 180.970022,129.232603 L 181.075555,129.361506 L 181.151912,129.452860 C 182.072969,130.544060 183.218293,131.516505 184.931574,132.736691 L 185.230907,132.948361 L 185.677087,133.259735 L 185.842516,133.399245 C 186.244201,133.733149 186.628715,134.014351 187.004452,134.246095 L 187.112689,134.311376 L 187.244092,134.358923 L 187.813940,134.765459 L 188.250788,135.080292 C 191.344686,137.320890 193.655525,139.232687 195.767598,141.384014 C 197.240682,142.884739 198.611886,144.442870 199.870622,146.051857 L 200.120866,146.374330 C 200.329938,146.645865 200.522285,146.902824 200.745538,147.209130 L 200.980856,147.534252 L 202.104564,149.109202 L 202.408322,149.528555 C 202.839286,150.118639 203.168171,150.544863 203.515771,150.961024 L 203.573898,151.030318 L 203.732400,151.216464 L 203.890454,151.348052 L 204.000132,151.556207 C 205.182349,153.799898 206.097178,156.124929 206.740786,158.580145 L 206.799834,158.809818 L 206.868770,159.007269 C 207.726292,161.497008 208.279513,164.131931 208.615393,167.095896 L 208.648260,167.393396 L 208.703837,167.933240 C 208.884883,169.763750 208.974420,171.374511 209.049169,173.999786 L 209.073118,174.893398 L 209.155737,178.458145 L 209.178206,179.280382 C 209.275585,182.614447 209.422921,184.830476 209.732984,187.090954 L 209.751784,187.226645 L 209.789188,187.489013 L 209.793749,187.524103 C 210.983564,197.885808 213.406503,208.008845 217.027812,217.717949 L 217.198439,218.172759 L 217.325527,218.508266 L 218.252453,220.926431 L 218.464801,221.487323 C 219.451285,224.109168 220.041270,225.921408 220.484195,227.839589 C 221.096969,230.493341 221.278968,232.915873 220.959492,235.238775 L 220.932839,235.423762 L 220.917856,235.545969 C 220.737917,237.022045 220.704739,238.409844 220.798385,239.437130 L 220.811331,239.569643 L 221.151970,239.572047 C 222.268681,239.580148 223.180287,239.938880 223.906198,240.633601 L 223.975868,240.701880 L 224.044383,240.772254 C 224.594052,241.350096 224.985828,242.052785 225.440313,243.148141 L 225.547629,243.415533 C 225.678739,243.749119 226.010839,244.591708 226.254366,245.189154 L 226.427977,245.607973 L 226.541223,245.866671 C 226.704698,246.233020 227.938869,247.683625 230.027409,248.605733 C 231.248318,249.144776 234.568747,249.701361 234.568747,249.701361 L 234.783169,249.788017 C 237.777148,250.986198 240.461246,251.560348 245.738885,252.274042 L 246.709501,252.403131 L 248.895685,252.686435 C 251.092595,252.975435 252.480018,253.183915 253.903525,253.453583 L 254.311953,253.532419 L 257.186817,254.106539 L 254.975625,255.698535 C 251.175775,258.434318 237.375708,273.206429 236.677158,278.267271 C 235.847417,284.278567 248.638723,280.307834 250.417549,278.354504 L 250.617199,278.133811 L 250.811088,277.916635 L 251.405317,277.241987 L 251.990627,277.282221 L 252.569107,277.323764 C 253.733059,277.410873 254.941191,277.522223 256.233555,277.659402 L 258.481154,277.902441 L 256.889282,280.343604 L 256.472845,280.977733 L 256.188855,281.407264 L 255.898769,281.843157 L 255.603501,282.283520 C 251.500969,288.377068 248.032040,292.359364 243.734254,295.312488 L 243.589485,295.411019 L 243.508826,295.469617 C 242.425639,296.234911 241.234095,296.625475 239.929768,296.688829 L 239.798959,296.694076 L 239.667397,296.697152 L 239.562900,296.697964 C 238.842840,296.698703 238.098930,296.604086 237.303137,296.423967 L 237.120586,296.381564 C 236.394215,296.208439 235.703874,295.990420 234.690704,295.628788 L 234.430479,295.535331 L 233.584445,295.227198 L 232.930510,294.993177 L 232.730236,294.923716 C 229.857389,293.896781 227.053337,292.734780 224.326783,291.440023 C 206.796228,283.204005 193.437052,270.735999 187.903552,255.540429 L 187.738269,255.079124 L 187.557834,254.557736 L 184.691792,255.182527 L 184.615479,255.840195 C 181.151217,286.117180 181.838743,310.198041 188.035039,332.635360 L 188.224493,333.314780 L 188.401878,333.938893 L 188.699131,334.655997 C 189.593500,336.800429 190.568587,339.014361 191.797664,341.713041 L 192.306468,342.826202 L 192.660672,342.933870 L 192.885234,343.410600 C 193.169584,344.014255 193.497206,344.606962 193.867312,345.188454 L 193.957247,345.328160 C 194.332361,345.904056 194.719463,346.412049 195.387870,347.217422 L 195.553827,347.416609 L 196.542147,348.591332 L 196.756933,348.850928 C 196.801575,348.905330 196.844597,348.958078 196.886876,349.010248 L 197.012366,349.166100 L 197.221476,349.430093 C 197.318201,349.553523 197.408882,349.671379 197.495633,349.786661 L 197.622754,349.957360 L 197.754555,350.189175 C 198.294281,351.149634 198.690277,352.009013 198.971539,352.884402 L 199.022938,353.048753 L 199.048578,353.133044 L 199.061478,353.220194 C 199.818913,358.337366 197.610268,362.909529 193.116305,366.889558 C 189.764160,369.858348 185.313800,372.359048 180.294240,374.403855 L 180.003527,374.521171 C 173.636148,376.912449 167.260244,378.130908 160.797894,378.260541 L 160.474705,378.266116 L 159.656277,378.272026 C 149.935135,378.272026 140.138007,375.851573 129.492933,371.186984 L 129.020248,370.978830 C 121.470952,367.637887 114.543937,363.776704 103.394559,356.950664 L 102.692182,356.520154 L 101.192429,355.597880 L 97.081680,353.060954 L 96.992760,352.857496 L 96.798797,352.701589 L 96.669240,352.600855 C 95.867270,351.985601 94.998561,351.473330 93.478458,350.678716 L 93.226153,350.547324 L 92.485307,350.165200 L 91.634876,349.722497 L 91.030867,349.356479 L 90.122391,348.808229 C 86.830395,346.826802 83.959474,345.157609 81.217090,343.642705 L 80.968129,343.505407 L 80.280562,343.128639 L 80.241405,343.106309 C 78.591954,342.123761 76.966536,341.173413 75.358780,340.252197 L 74.711919,339.882582 L 74.163605,339.503575 L 73.675502,339.168476 L 73.184192,338.834450 L 72.812759,338.584750 C 70.548544,337.071112 68.760997,336.037069 66.910727,335.227143 C 65.036600,334.406976 63.438422,333.866610 61.942448,333.621718 L 61.788049,333.597439 L 61.547275,333.561141 L 61.340231,333.433090 C 60.465866,332.892321 59.685759,332.312585 58.987010,331.670975 C 57.340115,330.158766 56.380010,328.344029 55.919528,326.120964 L 55.890203,325.975402 L 55.797685,325.502981 L 56.060760,325.099702 C 56.104618,325.032470 56.146194,324.769370 56.164285,324.237723 L 56.168306,324.099175 L 56.178702,323.682018 L 56.185037,323.501145 C 56.205904,322.981619 56.245180,322.662659 56.347163,322.347876 L 56.373241,322.270993 L 56.396327,322.085588 C 56.712352,319.499210 56.890138,317.227412 57.101423,313.293628 L 57.144911,312.470003 L 57.369230,308.013269 C 57.488649,305.726352 57.593581,304.051532 57.725645,302.444649 L 57.770728,301.910791 L 57.838516,301.156383 L 57.901855,300.404321 C 58.582906,292.507931 59.671128,285.855864 62.312339,272.190617 L 63.693025,265.062689 C 64.420851,261.271120 64.906639,258.636445 65.354470,256.019619 L 65.536074,254.947207 L 65.802614,253.332746 L 65.935897,252.503619 C 67.314079,243.840320 68.021411,236.506322 68.039923,229.490883 C 68.061467,221.326472 67.124485,213.764311 65.073486,206.522441 L 64.971718,206.166541 L 64.932656,206.032647 L 62.796191,208.077852 C 62.796191,208.077852 49.285151,236.117012 42.791063,248.718900 L 42.483252,249.314379 L 42.422818,249.463086 C 42.133973,250.213216 42.070720,252.172711 42.285651,254.150509 L 42.311688,254.378730 L 42.340774,254.611004 L 42.375669,254.865011 C 42.527136,255.917964 42.744970,256.835063 42.996333,257.469036 C 43.076763,257.671891 43.156558,257.834780 43.228197,257.951835 L 43.254664,257.993571 L 43.272048,258.018882 L 43.403932,258.018763 C 43.618093,258.017876 43.831788,258.015941 44.044726,258.012964 L 44.363529,258.007716 L 44.839125,257.996919 L 47.663861,257.914017 L 46.191285,259.882457 C 41.945758,265.557595 38.688624,272.215125 36.722504,279.177038 L 36.636603,279.484377 L 36.290409,280.748776 L 35.178916,280.643985 L 34.978511,280.627758 L 34.361100,280.580666 L 33.630524,280.513046 L 33.396695,280.146152 L 32.958980,280.419298 L 32.162329,280.267030 L 31.520654,280.140701 C 26.566057,279.149344 21.988786,277.859597 14.301218,275.417913 L 13.547433,275.177996 L 10.693185,274.264202 L 9.164654,273.775927 L 8.942680,273.700214 L 8.745305,273.630539 L 8.557160,273.561793 C 6.393733,272.756273 5.159241,271.687555 4.555122,269.700872 L 4.509848,269.546787 L 4.465771,269.316859 L 2.403897,258.489369 L 2.067889,256.760805 C 1.704595,254.903931 1.371909,253.245627 1.040916,251.646493 L 0.792537,250.456058 L 0.358515,248.409220 L 2.488316,248.227505 L 2.738848,248.204358 C 3.388411,248.141843 3.892492,248.072340 4.315901,247.979763 L 4.409725,247.958400 L 4.429354,247.463157 L 4.448358,247.024859 C 4.471695,246.507268 4.499211,245.967008 4.531993,245.395533 L 4.561406,244.897854 L 4.606340,244.186384 C 4.856423,240.364936 5.269321,236.154740 5.892878,231.604077 C 7.691264,218.479629 10.828772,205.374703 15.655470,193.119455 C 19.307702,183.846240 24.970817,174.243815 32.293949,164.387917 C 38.104186,156.568160 44.644441,148.988657 51.944385,141.324730 C 61.395711,131.252623 68.898811,124.293928 76.987836,118.618991 C 87.006179,111.590522 97.123299,107.284961 107.891667,105.939942 L 108.169089,105.905973 L 108.616356,105.818378 C 109.243416,105.697791 109.859983,105.590016 110.701249,105.452956 L 110.852089,105.428456 L 113.662173,104.982210 L 114.427451,104.856668 C 115.436597,104.688068 116.202347,104.546014 116.951792,104.386117 L 117.272647,104.316367 L 117.619579,104.238131 L 118.298507,104.077727 Z" id="🎨-top" fill="#9DDADB"></path>
<path d="M 128.790104,96.500940 C 129.052532,96.607247 129.231600,97.006136 129.337759,97.605536 C 129.629873,97.696656 129.880188,97.912355 129.955473,98.237208 C 130.176850,99.192582 129.918136,100.188664 129.718623,101.140908 L 129.695895,101.250583 C 129.507090,102.172464 129.276249,103.088649 128.994109,103.987038 L 128.952866,104.214564 C 128.266170,107.927635 126.942282,111.458048 125.387570,110.858311 L 125.746787,111.512147 C 131.847218,122.579357 149.272791,152.295176 162.878145,148.059575 C 170.800846,144.885315 170.687563,134.566897 170.108322,127.385720 C 164.225669,130.992563 163.125135,103.382180 164.331115,100.331075 C 165.291291,99.625131 165.754399,105.976497 166.111585,106.852105 C 166.891031,110.336031 167.846932,113.775108 168.744411,117.230084 C 170.641252,117.605481 172.435259,118.361256 174.021462,119.444496 C 174.096984,119.487920 174.174881,119.527311 174.248979,119.572396 C 175.200843,120.151390 175.943477,120.889843 176.605602,121.707790 C 177.353937,122.544720 177.993975,123.460905 178.598390,124.402719 C 179.926915,125.911660 181.193454,127.476603 182.502268,129.001681 C 183.123307,129.725422 183.759070,130.427095 184.409083,131.110972 L 184.910295,131.532051 C 184.994024,131.601903 185.077937,131.671456 185.162167,131.740508 C 200.192976,141.121385 210.598646,155.157462 210.627857,173.439885 C 210.672268,184.861475 212.314756,196.269065 215.441089,207.253801 C 217.945907,217.987006 226.039127,228.957504 221.664066,240.166480 C 226.604118,239.375585 227.062951,245.724578 230.152234,248.123603 L 231.122918,248.386199 C 235.462871,249.553718 239.443351,250.527497 243.883729,251.205081 C 247.976175,251.696276 252.707234,251.156673 256.552689,253.002095 C 257.863640,253.932044 257.394595,255.609938 257.496716,256.994301 C 267.201788,253.025587 275.918184,247.542949 284.961131,242.385163 L 285.263991,242.276822 C 288.611152,241.089088 294.581926,239.304374 297.332040,241.912240 C 298.940566,243.803934 297.316603,245.492743 295.886669,246.759647 C 293.195895,249.143723 290.341490,251.330608 287.584694,253.634717 C 295.013245,254.254643 302.464933,253.760088 309.811512,252.555477 L 310.212129,252.489069 C 312.012074,252.196251 314.134531,251.495764 315.919989,252.159470 C 321.709546,255.389731 315.010398,259.160305 311.901878,261.047254 C 314.270376,260.849826 316.634837,260.555584 319.008085,260.149340 C 319.952112,259.987981 320.634186,260.525211 320.738191,261.465837 C 320.798293,265.978900 314.851517,266.222124 311.793344,267.948188 L 312.038487,267.890238 C 314.037912,267.427332 316.912683,267.020717 317.539203,269.511945 C 318.193728,272.570168 314.069696,273.805749 311.953413,274.620611 C 295.467497,280.141928 277.556160,281.818161 260.305760,279.729751 C 259.039458,285.670364 248.291800,298.038988 242.374236,299.821528 C 235.817583,301.455523 227.931455,296.276618 221.959268,293.767727 C 206.656770,285.986437 192.478079,273.150348 188.113944,256.119404 C 184.446369,282.526241 185.928788,309.148539 191.434543,335.130148 C 192.325847,337.155675 193.266312,339.149879 194.324334,341.093066 C 194.643997,341.144321 194.914500,341.357884 194.976960,341.790231 C 195.009496,342.026811 195.057232,342.256985 195.111142,342.484074 C 196.164653,344.273258 197.319334,345.992440 198.391369,347.771421 C 198.612948,348.138749 198.831677,348.520315 199.031645,348.911136 C 206.168251,357.325521 197.469903,368.168118 189.690172,372.704197 C 232.860107,443.031704 204.977708,531.658243 234.226393,606.170162 L 234.291438,606.382363 C 235.401645,609.926168 238.782844,617.220769 233.892718,618.890453 C 232.340239,622.395260 224.516809,622.808861 221.040415,623.906338 C 222.923957,629.360264 225.018390,634.754155 227.827909,639.810142 L 227.878732,639.832448 L 227.878732,639.832448 C 228.997790,639.009755 231.397400,638.159774 232.389162,639.056265 C 232.630453,639.086638 232.870794,639.154504 233.105435,639.271014 C 234.640340,640.033909 235.875056,641.491596 237.343226,642.409205 C 238.137158,642.905620 238.962440,643.356476 239.812420,643.750144 C 240.603503,644.116523 241.444221,644.358087 242.089722,644.962233 C 242.293726,645.152778 242.345262,645.395054 242.294914,645.618109 C 242.804570,645.882690 243.313751,646.147982 243.821269,646.414462 L 244.096953,646.241841 C 248.583152,643.447728 252.190738,641.934065 245.664674,647.301935 C 248.003011,648.382801 250.401196,649.328174 252.814580,650.213749 C 254.647773,649.332445 256.604225,648.689383 258.621474,648.600873 C 258.984122,649.049593 256.211414,650.782064 255.754007,651.259496 C 268.029206,655.509164 281.530810,658.836714 290.750450,668.601292 L 290.957347,668.834600 C 292.527210,670.591840 294.823611,672.939398 293.802685,675.366495 C 296.469472,676.490786 297.781135,680.178071 297.015701,683.098665 C 293.168346,695.893466 234.189107,690.844123 220.942569,691.178468 C 210.467314,689.842275 182.072646,692.032958 176.247228,684.061360 C 174.285790,681.852406 174.741298,677.557178 177.530867,676.394920 C 175.594840,674.907335 177.714448,669.332152 177.719198,666.828481 L 177.763663,666.539072 C 178.060262,664.669679 179.345669,657.353827 180.679761,652.241411 C 180.707073,651.838726 180.760508,651.426312 180.825106,651.010339 L 180.866965,650.746400 C 181.132272,649.116907 181.539394,647.459588 182.592277,646.148694 C 183.348448,645.208068 184.396259,644.627176 185.533128,644.417172 C 185.837829,642.470664 186.087907,640.519409 186.302599,638.565307 C 186.453881,636.267368 186.511354,633.965396 186.485467,631.662948 C 186.471930,630.499979 186.441294,629.337958 186.384534,628.176175 C 186.342735,627.321686 186.391658,626.306075 186.174592,625.432602 C 186.029960,625.580435 185.824055,625.659928 185.593451,625.580909 C 185.103507,625.413144 184.652511,625.103715 184.202703,624.850286 C 184.185842,624.840795 184.172305,624.829642 184.157818,624.819201 C 181.755833,626.378449 180.017636,619.706027 179.083346,617.894774 C 157.559770,556.166029 174.553917,485.125223 139.662920,427.237053 C 134.846126,437.572557 130.706895,447.054045 126.070594,457.461686 C 111.591240,489.964087 93.716476,547.216076 81.729116,581.631527 C 78.467651,588.666532 74.634071,595.466143 70.077092,601.747982 C 68.620322,603.399537 67.642809,605.829647 65.533889,606.717120 L 65.349358,606.745358 L 65.349358,606.745358 C 64.786504,607.796800 64.005159,608.682613 62.843353,608.652951 C 62.558363,608.645595 62.267674,608.613561 61.974135,608.563017 C 60.944374,615.724499 59.649573,622.930829 57.928238,629.977936 L 58.160473,629.880766 C 59.287095,629.415184 60.471958,629.018594 61.628348,629.122260 C 64.434543,629.832238 63.395519,632.285603 61.177353,633.094770 C 63.938424,633.952344 65.806766,636.371065 67.857026,638.384727 C 69.589761,637.450982 71.531963,636.966669 73.607397,637.170740 C 73.925160,637.201825 74.167401,637.340641 74.335782,637.531187 C 74.454765,637.532136 74.570423,637.538780 74.680144,637.557052 L 74.454290,637.693258 L 74.454290,637.693258 C 74.822876,638.313065 74.559736,639.256777 73.607397,639.261760 C 72.859775,639.266031 72.139940,639.333659 71.443853,639.462509 C 70.960559,639.744887 70.479640,640.030350 70.005370,640.328626 C 71.605347,641.741227 73.308871,643.044199 75.062979,644.235644 C 75.989432,643.762246 76.969083,643.365256 77.988157,643.047284 C 79.303620,642.636294 79.877873,644.727313 78.556473,645.106506 C 78.275996,645.186949 77.998131,645.276408 77.722167,645.372037 L 77.451142,645.536224 C 77.387665,645.574248 77.321757,645.613410 77.252884,645.653940 C 89.839198,654.602707 111.113883,653.468924 116.869004,670.226032 C 117.059472,670.858179 116.961388,671.403951 116.693735,671.833213 C 117.941038,672.977199 118.516479,675.033812 118.235527,676.611568 L 118.259502,676.744211 C 118.473479,678.021300 118.165665,679.142124 116.793957,679.433211 C 107.640814,680.286039 98.509996,680.827778 89.316955,680.995069 L 88.575110,681.001135 C 75.404122,681.089672 11.340493,680.611045 8.450778,672.153795 C 7.680119,670.588140 7.442628,668.158742 8.570236,666.762751 C 8.701093,666.011484 8.958771,665.327370 9.416891,664.791564 C 7.561374,662.917667 8.474052,658.193652 8.247010,655.814559 C 8.654307,647.871436 10.265922,639.354304 15.121189,632.854393 C 15.200511,632.751645 15.296457,632.688288 15.395491,632.657440 C 16.243334,631.805561 17.357404,631.267145 18.631306,631.194771 C 18.670967,631.096057 18.711341,630.996869 18.750052,630.898155 C 19.740390,628.562724 20.681092,626.184818 21.615619,623.795522 C 22.309093,621.080661 23.032491,618.373156 23.757076,615.679413 C 24.481186,612.988993 25.189622,610.294539 25.882621,607.595814 C 26.434550,605.444522 26.909294,603.020106 27.864483,600.964206 C 27.838597,600.876408 27.813660,600.788847 27.785161,600.701049 L 26.791196,600.298819 C 20.280672,597.652648 9.964854,593.189383 12.231398,590.241916 C 36.384000,540.057204 60.025996,468.612288 82.190561,416.585477 C 82.536823,415.565357 82.903034,414.551170 83.305106,413.546474 C 84.283965,411.100584 85.275523,408.658319 86.281155,406.222837 L 86.886234,404.762388 L 96.542382,381.529573 L 96.542382,381.529573 C 97.553144,379.097801 98.692626,376.678844 99.489171,374.166155 C 100.256742,371.746011 100.462885,369.337969 99.004690,367.135422 C 97.699914,365.164472 95.861258,363.533325 94.390239,361.682207 C 93.277830,360.281945 92.193446,358.786529 91.221633,357.215417 C 90.339116,356.051498 89.601469,354.719814 88.943381,353.646541 C 87.888684,351.926883 86.547572,350.022613 85.782138,348.035527 C 84.794888,347.413109 83.805737,346.793776 82.813025,346.181088 C 81.098577,345.220054 79.411678,344.213934 77.769665,343.125475 C 75.695893,341.892267 73.608822,340.681127 71.505364,339.496801 C 70.746105,339.119981 69.986371,338.744584 69.225687,338.370374 C 66.946723,338.567801 60.650835,335.758972 58.506054,333.858498 C 58.260963,333.809142 58.017059,333.753378 57.774581,333.692631 C 57.677685,334.906381 57.281075,336.005519 56.356997,336.820618 C 50.211441,339.870062 42.378511,326.059175 40.219718,321.450958 C 35.929679,325.641778 46.166019,346.371871 49.472606,350.609674 L 49.649010,350.872354 C 50.533454,352.197587 51.460620,353.685359 52.715104,354.664440 L 52.841655,354.760628 C 53.701610,355.396572 53.861204,356.390589 53.159655,357.226332 C 47.204092,362.602901 40.952378,350.797135 37.689726,346.907677 C 24.260557,327.141228 15.679768,303.088568 16.055953,279.042553 C 9.946734,276.998517 1.489203,275.999991 1.799603,267.711845 C 1.487303,261.455634 0.355895,255.266339 0.136004,249.005381 C 0.072331,247.565491 4.548087,248.279741 5.558137,248.431608 C 4.070255,234.046000 6.318346,219.440659 10.327907,205.614823 C 20.854460,170.237862 64.202039,106.475997 106.867543,104.174024 C 106.830257,104.104498 106.847831,104.010767 106.943540,103.985852 C 108.874580,103.484453 111.008675,103.564658 112.993150,103.627777 C 115.058610,103.693270 117.158030,103.707508 119.212565,103.940766 C 121.341910,104.182330 123.596650,104.964920 125.027059,106.513489 L 125.522518,105.619561 C 126.097680,104.575977 126.651867,103.521787 127.070432,102.370128 C 127.282511,101.788287 127.448518,101.185090 127.600037,100.575487 C 127.771268,99.706048 127.814254,98.801015 128.225826,98.011306 C 128.236750,97.990661 128.250287,97.973576 128.262162,97.954356 C 128.410119,97.456754 128.579450,96.969355 128.790104,96.500940 Z M 181.154743,676.364547 C 180.544866,676.984354 179.487794,677.254393 178.551604,676.958252 C 175.440234,685.796679 192.320385,685.242364 197.738031,685.739491 C 203.515001,686.355027 308.746334,691.827463 290.949943,678.868455 C 270.071154,686.824866 200.238574,687.702373 181.154743,676.364547 Z M 232.402224,641.317898 C 230.997465,642.766330 228.879282,643.410578 227.372401,644.792806 C 223.112524,648.395615 219.685766,653.464179 213.798363,654.418806 C 206.063754,655.862017 199.091017,652.045645 192.172428,649.023253 C 191.311048,648.981964 190.412382,648.618195 189.529390,648.348394 C 189.498041,648.412463 189.466930,648.476769 189.431306,648.535855 C 189.388320,648.519007 189.342485,648.504770 189.291187,648.496464 C 189.214240,648.483651 189.141330,648.475583 189.066045,648.464430 C 188.888402,648.322529 188.701259,648.203408 188.507466,648.102559 C 188.390383,648.084762 188.274012,648.070525 188.158354,648.063406 C 186.732458,647.976320 185.184729,648.307580 184.269676,649.489533 C 184.191304,649.590145 184.120294,649.696214 184.051659,649.804182 C 183.608263,651.375057 183.551503,653.276006 183.765482,654.605317 C 183.834830,655.039325 183.653862,655.466451 183.347498,655.712761 C 183.074146,662.288368 182.333649,668.891500 181.816631,675.380021 C 184.404333,676.309732 187.089407,677.017575 189.776856,677.465820 C 208.321819,679.745250 227.064850,680.804049 245.752309,680.231225 C 256.876864,679.829252 267.985746,678.835472 278.994881,677.183205 C 282.553684,676.848149 286.196322,675.471616 289.752750,676.027592 C 289.904269,675.741655 290.140573,675.497006 290.468786,675.330190 C 281.352929,662.849564 265.771617,659.475979 252.187841,654.004019 C 249.944263,655.437976 248.563015,658.424300 246.064134,659.313908 C 245.093983,659.459369 243.745034,658.887494 243.887291,657.657134 C 244.290551,655.138039 247.012199,653.989069 248.844917,652.526874 C 246.878254,651.608553 244.949114,650.610501 243.067235,649.500923 C 241.218604,651.166715 239.030837,652.434330 237.300002,654.210938 C 238.283928,656.612573 234.182220,656.404705 234.136384,653.848829 C 234.420186,651.021254 238.900929,649.824115 240.902266,648.175408 C 237.776409,646.273510 234.984464,643.874722 232.402224,641.317898 Z M 12.164425,666.027620 C 12.055417,666.242606 11.877536,666.438135 11.614158,666.590477 C 11.158229,666.854227 11.377337,668.248339 11.400244,668.718384 L 11.401604,668.752684 C 11.426540,669.596496 11.479263,670.437934 11.552411,671.278186 C 12.321882,671.972029 13.305807,672.499293 14.398978,672.816790 C 47.691661,678.127629 81.623195,678.558789 115.237203,676.630789 C 115.082596,675.737621 114.429258,675.002014 113.850968,674.256917 C 92.600743,676.062948 70.839439,674.173152 49.553591,672.413867 C 37.109535,670.778449 24.071276,670.101454 12.164425,666.027620 Z M 60.634686,633.345351 C 55.147693,635.233248 50.042110,637.853193 45.178768,640.991858 C 43.371461,642.167167 41.646564,643.514987 39.568992,644.189134 C 32.375388,646.353478 21.590207,635.956515 21.417314,635.840005 C 18.919146,634.158551 16.270170,635.726104 14.911009,638.056552 C 14.785376,638.272014 12.701867,650.190969 12.764803,656.029308 C 12.390992,658.014021 13.388454,661.258519 12.857662,663.422387 C 13.274933,663.924735 13.869848,664.160841 14.270496,664.686206 C 14.415603,664.876277 14.374517,665.091501 14.249122,665.253572 C 33.674939,666.851736 52.987712,669.884331 72.505913,670.524546 C 85.864310,671.230965 99.248118,671.068420 112.608652,670.906587 C 109.569004,661.984396 99.215344,659.627846 91.306892,656.690642 C 85.331617,654.544808 79.830375,651.347294 74.989832,647.237391 C 72.890649,648.710502 71.235336,650.774945 69.748167,652.849117 C 69.072505,653.691979 67.684845,654.328635 66.961210,653.160445 C 66.215963,651.948593 67.670833,650.416634 69.467215,649.074746 C 70.411955,647.675908 71.603447,646.484226 72.975433,645.502310 C 71.458578,644.150693 69.998008,642.742363 68.629822,641.245286 C 65.792516,643.166879 63.708057,645.931572 61.667059,648.614636 C 60.686221,649.684112 58.851840,648.269850 59.656460,647.064405 C 60.301248,646.233170 61.027021,645.466716 61.804092,644.748432 C 62.975398,642.539241 64.661822,640.499714 66.707807,639.086875 L 66.551762,638.888809 C 64.842743,636.696095 63.365260,634.065540 60.634686,633.345351 Z M 12.290058,664.627595 C 12.243035,664.685494 12.193637,664.741495 12.140914,664.795361 C 12.187937,664.891227 12.224035,664.991839 12.250634,665.094112 L 12.749128,665.133977 L 12.749128,665.133977 C 12.575997,664.990415 12.423528,664.815768 12.290058,664.627595 Z M 219.215296,624.267734 C 209.037617,626.188852 198.523651,626.927780 188.250738,625.341007 C 189.440569,631.973564 190.185578,638.647647 189.795380,645.383189 C 205.155114,649.815809 211.536973,657.206990 224.316604,642.435544 C 223.699127,641.495629 223.342891,640.341677 222.928231,639.228776 C 221.162248,634.398929 219.702628,629.403214 219.215296,624.267734 Z M 32.278967,602.513962 C 32.133860,602.835018 31.872145,603.098887 31.495009,603.215398 C 31.360589,603.809341 31.221657,604.402809 31.073462,604.994853 C 30.824097,608.050703 29.670365,611.079977 28.477210,613.899247 L 28.233782,614.483223 L 28.233782,614.483223 C 27.446737,616.827908 26.621693,619.168085 25.807811,621.510634 C 25.191284,623.944304 24.648142,626.397907 24.080539,628.843204 C 23.971055,630.502114 23.735464,632.146787 23.373290,633.772002 C 23.356428,633.848173 23.333867,633.917937 23.308930,633.984854 C 23.877721,634.238282 24.426800,634.532050 24.944531,634.828902 C 40.527744,646.532396 37.836495,638.707682 52.798669,632.155330 C 52.712638,631.525872 53.027933,630.957653 53.285120,630.306149 L 53.318299,630.220686 C 53.333973,630.179634 53.349410,630.138108 53.365085,630.096819 C 53.340386,629.848374 53.354873,629.581658 53.420658,629.297856 C 54.936088,623.101679 57.046196,617.013233 59.021172,610.950652 C 59.337272,610.037789 59.703246,609.145570 60.077294,608.254775 C 50.590477,608.132806 41.206731,605.607779 32.278967,602.513962 Z M 28.174884,605.524015 C 27.991270,606.333724 27.791428,607.132450 27.609160,607.904054 L 27.340578,609.054687 L 27.340578,609.054687 C 27.722701,607.891243 28.024077,606.711425 28.174884,605.524015 Z M 118.421008,105.685814 C 115.119170,106.488811 111.735635,106.816749 108.414797,107.482828 C 85.528023,110.210978 67.981234,126.433466 52.866591,142.540868 C 24.234908,172.600345 7.576573,209.586858 8.806064,251.389932 C 19.030766,253.251727 29.150022,255.977029 39.567567,256.572395 C 38.053562,254.280152 40.589016,251.412949 41.461796,249.218232 C 56.529891,220.119077 68.164339,187.995869 77.611971,157.360246 L 77.355216,158.697411 C 74.388736,174.073041 70.933315,189.383344 65.659046,204.152865 C 67.186826,202.651516 92.284405,182.699980 90.322729,189.297180 C 82.654856,195.287624 73.994270,200.034657 65.959710,205.532008 C 75.512788,237.429076 61.701971,269.748051 59.077932,301.658170 C 58.418657,308.753447 58.475892,315.898081 57.589813,322.966544 C 57.252813,323.765745 57.607625,325.391672 57.111506,326.152194 C 57.478905,328.028227 58.251701,329.737680 59.846453,331.202011 C 60.517840,331.818496 61.250738,332.352404 62.021159,332.828887 C 63.944599,333.118858 65.876588,333.859448 67.443079,334.544985 C 70.928735,336.070775 73.996407,338.320306 77.112052,340.469225 L 77.195412,340.525700 L 77.195412,340.525700 C 82.219060,343.105779 87.237483,346.036577 92.274431,349.093139 L 92.499335,349.210836 C 94.372902,350.193700 96.288504,351.080225 97.921018,352.442994 C 97.995353,352.505402 98.044988,352.576590 98.077525,352.651100 L 101.136982,354.539663 C 125.642799,369.656016 150.909983,384.605432 179.641688,373.815200 C 187.714246,370.565245 199.449866,363.980383 197.942748,353.798408 C 197.645647,352.821713 197.193701,351.904578 196.682621,351.011647 C 196.540601,350.819915 196.394544,350.631267 196.247537,350.445705 C 195.134179,349.039511 193.888063,347.748878 192.921237,346.229733 C 192.527952,345.611823 192.175278,344.975405 191.866777,344.320479 C 191.648760,344.254274 191.454968,344.100983 191.332897,343.834267 C 189.949987,340.819705 188.595338,337.799924 187.333785,334.731734 C 172.038887,281.436595 190.603800,224.173691 195.855914,170.419628 C 196.219988,167.341473 196.756005,164.231994 196.754580,161.131533 C 196.754580,160.986073 196.965472,160.990819 196.977109,161.131533 C 198.829540,174.851299 197.424305,188.698729 195.663071,202.356562 C 193.408094,219.442557 190.445393,236.457602 188.409857,253.574444 C 193.821091,270.827968 208.975395,283.295068 224.888007,290.770962 C 227.595405,292.056612 230.363601,293.202259 233.186182,294.211226 L 233.375558,294.276851 C 236.476970,295.361438 239.977267,297.038322 242.969388,294.840525 C 248.711447,290.945609 252.765182,285.002149 256.486429,279.278421 C 254.980973,279.115401 253.473618,278.974213 251.965074,278.870516 C 248.261164,283.104997 243.722948,286.699738 238.933703,289.637417 C 236.982002,290.755538 234.764785,290.282615 233.862557,288.094068 C 233.010995,286.029143 234.053702,283.616938 234.808686,281.625886 L 234.917729,281.335271 C 238.739910,271.033226 245.376598,261.592077 254.337373,255.140574 C 247.576715,253.789669 240.554579,253.830720 234.069174,251.160707 C 234.422798,251.532070 233.959453,251.947568 233.734312,252.262455 C 233.814346,252.873008 233.370475,253.319355 232.824958,253.482850 C 227.533183,260.393276 223.522671,268.577013 222.685278,277.341167 C 222.908045,280.326304 220.235558,283.773687 217.662105,280.639530 C 215.649368,271.914767 223.566845,258.279951 230.528895,252.896263 C 223.547371,248.106755 225.582431,241.194905 221.199297,241.163108 C 220.066702,243.335993 218.588795,245.416335 216.726153,247.030397 C 215.884247,247.714511 214.861848,248.230385 213.958194,248.837378 C 213.007755,249.475932 212.018368,248.071161 212.770977,247.299961 L 212.969512,247.061416 C 215.828248,243.643855 219.222853,240.284388 219.813299,235.661011 C 220.666842,229.966945 218.106451,224.198607 216.143825,218.997397 C 212.381254,209.026137 209.885698,198.651243 208.669981,188.063972 C 207.292771,178.577975 208.967558,168.738412 205.718442,159.558997 C 205.072704,157.002647 204.143877,154.674335 203.005345,152.513551 C 202.978271,152.491008 202.951434,152.467991 202.926973,152.439753 C 201.575411,150.877183 200.495777,149.139017 199.235649,147.502412 C 197.917812,145.790348 196.489065,144.161099 194.975772,142.619411 C 192.446730,140.043366 189.654548,137.893972 186.743858,135.824309 C 186.689947,135.804851 186.635562,135.779698 186.580939,135.747426 C 186.035659,135.425421 185.511992,135.034363 185.006611,134.604626 L 184.957450,134.570456 C 183.264851,133.394673 181.537579,132.118515 180.216416,130.522250 C 178.919715,128.954934 177.996825,127.127309 176.938090,125.401007 C 175.490819,123.636502 174.111234,121.745994 172.365912,120.275731 C 171.378662,119.712399 170.351276,119.181576 169.470184,118.477055 C 169.326027,118.416783 169.179495,118.359595 169.030350,118.305493 C 169.405824,119.835554 169.973902,121.243409 170.485695,122.797673 C 171.227142,122.484922 172.241942,122.831606 172.366625,123.973219 L 172.412632,124.399385 C 173.157148,131.390601 173.534012,139.850590 169.420311,145.903774 C 160.361927,159.030547 146.831824,147.823231 139.988995,138.593036 C 133.848189,131.231516 128.685608,123.043034 124.873165,114.242811 L 124.810043,114.126482 C 124.100116,112.779781 122.561586,108.673115 122.126818,106.699764 C 121.027472,106.121245 119.689922,105.841003 118.421008,105.685814 Z M 89.419788,350.345093 C 89.392239,350.379738 89.360891,350.409636 89.326692,350.435739 C 90.611518,352.259567 91.835547,354.145566 93.097100,355.975565 C 92.062826,354.286044 91.090538,352.583471 90.229633,350.862153 C 89.960318,350.688455 89.689578,350.517130 89.419788,350.345093 Z M 17.518898,279.496493 C 22.428788,306.136113 29.445461,334.163894 48.996674,354.081735 C 42.911916,345.516432 38.180145,335.517172 36.803409,325.043801 C 36.746411,322.233074 37.770710,319.263835 40.882793,318.847625 C 41.413930,318.776437 41.817400,319.251935 42.007107,319.674743 L 42.025362,319.716826 C 43.249629,322.637420 44.841531,325.414926 46.726497,327.959886 L 46.911309,328.200692 C 48.333743,330.038878 54.371251,337.532151 55.213478,333.950331 C 54.596951,315.844216 35.872444,308.379237 32.805960,283.442427 C 27.559307,282.887163 22.580545,280.895568 17.518898,279.496493 Z M 57.771969,332.337929 C 57.792155,332.622205 57.801893,332.903634 57.797618,333.180792 C 58.075720,333.065942 58.361659,332.973873 58.654010,332.902448 C 58.357147,332.719021 58.063608,332.530136 57.771969,332.337929 Z M 57.494342,330.386912 C 57.597175,330.907294 57.684097,331.432185 57.737532,331.951855 C 58.271887,332.121756 58.800542,332.307556 59.326348,332.500712 C 59.007635,332.214775 58.704359,331.911752 58.420082,331.589272 C 58.088782,331.213164 57.778143,330.809530 57.494342,330.386912 Z M 64.730456,206.794877 C 60.895213,217.491302 56.599475,228.023047 51.803344,238.325329 C 48.582965,244.353977 46.434384,251.378779 41.978101,256.610362 C 41.934641,256.652363 41.890942,256.691042 41.846294,256.727347 L 41.920096,256.730135 C 43.248007,256.788914 50.463120,257.498604 46.759509,259.129220 C 45.321500,264.791726 43.437484,270.324908 41.862206,275.950159 L 41.827084,276.113197 C 41.250727,278.833861 40.521958,284.314400 36.654265,282.485189 C 36.234618,282.805771 35.730899,283.031436 35.189182,283.182354 C 36.927617,298.428147 46.577116,308.353135 54.205091,320.800778 C 52.499935,314.231445 52.998256,307.371155 53.591974,300.663639 L 53.739133,299.013073 C 56.890877,268.258567 68.457166,238.016137 64.730456,206.794877 Z M 96.763059,304.553421 C 90.546256,296.809149 59.968333,220.138108 81.577406,266.588314 C 89.257629,282.758835 95.579404,300.070495 108.249789,313.172827 C 109.125893,314.113453 107.971687,315.766669 106.833155,315.007096 C 102.743321,312.278472 99.433171,308.659052 96.763059,304.553421 Z M 74.632384,211.884963 C 74.606735,211.760622 74.766092,211.692282 74.836152,211.798826 C 83.144301,228.188843 89.076353,245.802101 98.463661,261.695702 C 104.130198,271.537163 110.929804,280.711121 118.716185,288.983605 C 119.301126,289.605074 118.420984,290.463360 117.787358,289.911655 C 95.560096,269.420991 84.753540,239.634637 74.632384,211.884963 Z M 238.456584,279.362185 L 238.443047,279.364321 L 238.443047,279.364321 L 238.238715,279.892563 C 238.169279,280.070681 238.098685,280.250608 238.027437,280.431662 C 238.061398,280.416712 238.095597,280.402950 238.129796,280.388712 C 238.202706,280.315389 238.275615,280.241116 238.348525,280.163047 C 238.332138,279.893483 238.365624,279.623207 238.456584,279.362185 Z M 5.646246,249.075145 C 4.517688,249.517695 3.131216,249.601222 1.883675,249.709190 C 3.280360,256.284323 4.486102,262.909524 5.750267,269.502216 C 6.334732,271.525844 7.708856,272.236298 9.610684,272.877936 L 11.139215,273.366211 C 18.275000,275.650967 25.451099,277.997707 32.809047,279.398966 C 33.326303,279.062485 34.061100,279.078858 34.404512,279.617987 C 34.762411,279.651445 35.129810,279.671140 35.492933,279.705547 C 37.458884,272.451284 40.822945,265.421737 45.324588,259.404242 C 32.742075,259.809537 20.068602,256.493852 8.098578,252.786634 C 7.613859,253.021791 6.975483,252.874669 6.771003,252.318219 L 6.586655,252.265511 C 4.577128,251.669631 1.912640,250.206524 6.135715,250.949754 C 5.880650,250.355574 5.739105,249.716784 5.646246,249.075145 Z M 294.970429,243.707119 C 286.629980,242.329637 280.256196,249.081789 273.138114,252.181301 C 268.876337,254.007978 257.519278,259.673569 253.390496,257.788993 C 247.729897,263.233428 242.950627,269.594522 239.608653,276.731800 C 240.519668,276.677460 241.430921,276.637121 242.342175,276.608171 C 243.992500,276.078772 245.754209,276.051721 247.467706,276.561187 C 264.631422,276.750072 281.806537,280.082605 298.901143,275.859039 L 299.294506,275.785684 C 302.806092,275.119962 314.795184,272.587794 315.478018,270.106362 C 315.298712,269.026207 312.075009,270.167346 311.455395,270.289552 C 306.528405,271.259365 301.522332,271.721848 296.529795,272.207585 C 295.141185,272.341893 295.158759,270.183482 296.529795,270.046327 C 302.539268,269.448825 308.233116,267.194785 313.747421,264.849626 C 314.333549,264.589790 315.886503,264.051849 316.960912,263.353972 C 311.866017,264.219614 306.616040,264.369820 301.460821,264.186156 C 299.686051,263.956695 299.560893,261.262952 301.460821,261.316106 C 304.941015,261.700519 308.265890,259.983947 311.106995,258.171983 L 311.725309,257.770918 C 316.461048,254.686322 316.130169,254.552639 310.145394,255.699160 C 301.350863,257.299222 292.450411,257.239899 283.569196,256.629346 C 282.301706,256.607989 281.426552,254.903756 282.475312,253.990892 C 286.564670,250.462593 290.948755,247.316097 294.970429,243.707119 Z M 254.655848,256.557446 L 254.559190,256.649147 C 254.355114,256.844819 254.187711,257.017914 254.094043,257.110069 L 254.056183,257.146643 C 253.930550,257.264577 253.808717,257.386545 253.684272,257.505666 C 254.229552,257.688618 254.831116,257.699059 255.451681,257.602956 C 255.077157,257.368986 254.798818,256.986708 254.655848,256.557446 Z M 97.943170,228.314916 L 97.989989,228.365224 C 103.354968,234.165947 108.792896,243.573436 113.237694,250.992016 C 113.823620,257.072703 100.681775,231.843952 97.963396,228.340308 L 97.943170,228.314916 Z M 232.968640,250.758259 C 233.020572,250.822645 233.070709,250.888928 233.119263,250.956618 L 233.190932,251.059146 L 233.306353,250.987958 C 233.348864,250.962568 233.393512,250.946907 233.439110,250.935279 C 233.281891,250.877617 233.125385,250.817108 232.968640,250.758259 Z M 208.422136,230.955529 C 213.249379,231.712728 203.378301,237.705308 202.075425,238.563832 C 201.241119,238.880617 193.308680,245.424427 193.789837,243.300423 L 194.014343,243.013679 C 197.708726,238.315866 202.743715,232.943801 208.422136,230.955529 Z M 19.586329,218.397237 C 21.371787,215.524102 31.088733,219.306541 34.160205,219.759532 C 35.886765,220.214896 37.594563,220.753787 39.339647,221.136302 C 40.703321,221.630582 47.061906,221.151489 44.728319,223.844994 C 42.293323,225.152711 39.114268,224.141846 36.620612,223.447529 C 31.659187,222.093302 26.680662,220.513410 21.600016,219.761905 C 21.447547,219.685734 21.438284,219.737227 21.571754,219.916857 C 22.664688,222.343408 24.963127,224.619990 27.552016,225.402106 C 27.730847,225.453835 27.655563,225.726959 27.474594,225.680924 C 24.648926,225.120440 18.068049,221.987707 19.586329,218.397237 Z" id="🖍-Ink" fill="#000000"></path>
</g>
</svg>
