<?xml version="1.0" encoding="UTF-8"?>
<svg xmlns="http://www.w3.org/2000/svg" viewBox="-14 -1 273 724">
<g stroke="none" stroke-width="1" fill="none" fill-rule="evenodd">
<path d="M174.504,71.226 L174.557,71.324 L91.002,71.324 L91.037,71.079 L91.083,70.762 L91.13,70.446 L91.178,70.129 L91.227,69.813 L91.276,69.496 L91.326,69.18 L91.378,68.864 L91.43,68.548 L91.483,68.233 L91.537,67.917 L91.591,67.603 L91.645,67.289 L91.701,66.974 L91.758,66.659 L91.816,66.344 L91.877,66.029 L91.939,65.714 L92.005,65.399 L92.073,65.085 L92.144,64.772 L92.22,64.46 L92.299,64.149 L92.382,63.84 L92.47,63.532 L92.563,63.226 L92.662,62.921 L92.766,62.619 L92.876,62.319 L92.992,62.021 L93.115,61.727 L93.245,61.435 L93.383,61.146 L93.528,60.86 L93.681,60.577 L93.842,60.298 L94.012,60.024 L94.188,59.754 L94.372,59.488 L94.563,59.226 L94.759,58.968 L94.962,58.714 L95.17,58.464 L95.383,58.217 L95.602,57.974 L95.824,57.734 L96.051,57.497 L96.281,57.263 L96.515,57.032 L96.752,56.804 L96.991,56.578 L97.232,56.355 L97.476,56.134 L97.721,55.916 L97.966,55.7 L98.213,55.485 L98.46,55.273 L98.707,55.062 L98.954,54.853 L99.2,54.646 L99.445,54.439 L99.699,54.227 L99.956,54.018 L100.214,53.812 L100.475,53.609 L100.737,53.41 L101.003,53.215 L101.27,53.023 L101.54,52.836 L101.813,52.653 L102.088,52.475 L102.366,52.302 L102.646,52.134 L102.93,51.971 L103.216,51.813 L103.506,51.662 L103.799,51.516 L104.095,51.377 L104.394,51.244 L104.697,51.118 L105.003,50.998 L105.312,50.886 L105.625,50.781 L105.942,50.683 L106.263,50.594 L106.587,50.512 L106.906,50.439 L107.226,50.373 L107.546,50.312 L107.867,50.257 L108.188,50.208 L108.51,50.164 L108.832,50.126 L109.155,50.092 L109.478,50.064 L109.802,50.041 L110.126,50.022 L110.45,50.008 L110.775,49.999 L111.1,49.994 L111.426,49.993 L111.752,49.996 L112.077,50.003 L112.404,50.014 L112.73,50.028 L113.056,50.046 L113.383,50.067 L113.709,50.092 L114.036,50.119 L114.363,50.15 L114.689,50.183 L115.016,50.219 L115.343,50.257 L115.669,50.298 L115.995,50.341 L116.322,50.386 L116.648,50.432 L116.973,50.481 L117.299,50.531 L117.624,50.583 L117.949,50.636 L118.274,50.69 L118.598,50.746 L118.922,50.802 L119.246,50.859 L119.569,50.916 L119.892,50.974 L120.214,51.033 L120.536,51.091 L120.857,51.15 L121.177,51.209 L121.497,51.267 L121.816,51.325 L122.135,51.383 L122.453,51.439 L122.77,51.495 L123.087,51.55 L123.402,51.604 L123.728,51.66 L124.054,51.715 L124.379,51.77 L124.705,51.825 L125.031,51.88 L125.356,51.935 L125.682,51.991 L126.008,52.046 L126.333,52.101 L126.659,52.156 L126.984,52.211 L127.31,52.266 L127.636,52.322 L127.961,52.377 L128.287,52.432 L128.613,52.487 L128.938,52.542 L129.264,52.597 L129.59,52.653 L129.915,52.708 L130.241,52.763 L130.567,52.818 L130.892,52.873 L131.218,52.929 L131.544,52.984 L131.869,53.039 L132.195,53.094 L132.521,53.149 L132.846,53.204 L133.172,53.26 L133.498,53.315 L133.823,53.37 L134.149,53.425 L134.475,53.48 L134.8,53.535 L135.126,53.591 L135.452,53.646 L135.777,53.701 L136.103,53.756 L136.429,53.811 L136.754,53.866 L137.08,53.922 L137.406,53.977 L137.731,54.032 L138.057,54.087 L138.383,54.142 L138.708,54.197 L139.034,54.253 L139.359,54.308 L139.685,54.363 L140.011,54.418 L140.336,54.473 L140.662,54.528 L140.988,54.584 L141.313,54.639 L141.634,54.693 L141.956,54.748 L142.278,54.802 L142.6,54.857 L142.922,54.913 L143.245,54.968 L143.569,55.024 L143.892,55.08 L144.216,55.136 L144.54,55.193 L144.865,55.251 L145.189,55.309 L145.514,55.367 L145.838,55.426 L146.163,55.486 L146.488,55.546 L146.813,55.607 L147.138,55.669 L147.463,55.732 L147.788,55.795 L148.113,55.859 L148.438,55.924 L148.763,55.991 L149.088,56.057 L149.412,56.125 L149.736,56.194 L150.06,56.264 L150.384,56.336 L150.708,56.408 L151.031,56.481 L151.354,56.556 L151.676,56.632 L151.998,56.709 L152.32,56.788 L152.641,56.868 L152.962,56.949 L153.282,57.032 L153.602,57.116 L153.921,57.202 L154.24,57.289 L154.558,57.378 L154.876,57.469 L155.192,57.561 L155.509,57.655 L155.824,57.75 L156.139,57.848 L156.453,57.947 L156.766,58.048 L157.078,58.151 L157.389,58.256 L157.7,58.363 L158.01,58.472 L158.318,58.583 L158.626,58.695 L158.933,58.81 L159.239,58.928 L159.543,59.047 L159.847,59.169 L160.15,59.292 L160.451,59.419 L160.751,59.547 L161.051,59.678 L161.348,59.811 L161.645,59.947 L161.941,60.085 L162.235,60.226 L162.528,60.369 L162.819,60.515 L163.109,60.663 L163.398,60.814 L163.686,60.968 L163.971,61.125 L164.256,61.284 L164.539,61.446 L164.82,61.611 L165.1,61.779 L165.378,61.95 L165.655,62.124 L165.93,62.3 L166.203,62.48 L166.475,62.663 L166.745,62.849 L167.013,63.038 L167.28,63.231 L167.544,63.426 L167.807,63.625 L168.068,63.827 L168.327,64.033 L168.584,64.242 L168.84,64.454 L169.093,64.669 L169.344,64.889 L169.593,65.111 L169.841,65.338 L170.086,65.567 L170.329,65.801 L170.57,66.038 L170.808,66.279 L171.04,66.518 L171.267,66.76 L171.49,67.005 L171.709,67.251 L171.923,67.501 L172.134,67.752 L172.341,68.006 L172.543,68.262 L172.741,68.521 L172.936,68.781 L173.126,69.044 L173.312,69.31 L173.495,69.577 L173.673,69.847 L173.847,70.118 L174.017,70.392 L174.183,70.668 L174.346,70.946 Z" id="🎨-Hat" fill="#FFFFFF" fill-rule="evenodd"></path>
<path d="M 93.834,59.055 L 93.908,57.761 L 94.023,56.604 L 94.482,53.85 L 94.75,52.781 L 95.198,51.534 L 95.322,51.059 L 95.751,50.108 L 96.29,49.203 L 96.914,48.304 L 97.677,47.327 L 98.575,46.291 L 99.605,45.213 L 100.591,44.268 L 101.671,43.314 L 102.842,42.359 L 104.104,41.414 L 105.454,40.489 L 106.893,39.591 L 108.157,38.872 L 109.48,38.184 L 110.861,37.532 L 112.3,36.922 L 113.796,36.358 L 115.348,35.847 L 116.956,35.393 L 118.618,35.002 L 120.336,34.678 L 121.814,34.465 L 122.9,34.377 L 124.025,34.35 L 125.415,34.399 L 126.833,34.536 L 128.028,34.717 L 129.224,34.958 L 130.414,35.258 L 131.822,35.695 L 132.97,36.121 L 134.086,36.602 L 135.163,37.137 L 136.192,37.724 L 136.975,38.229 L 137.9,38.905 L 138.591,39.479 L 139.389,40.236 L 140.107,41.035 L 140.74,41.875 L 141.453,42.996 L 141.773,43.27 L 142.025,43.396 L 142.297,43.469 L 142.578,43.488 L 142.857,43.451 L 146.077,42.751 L 149.141,42.191 L 151.78,41.794 L 154.451,41.473 L 157.147,41.235 L 159.86,41.086 L 162.58,41.033 L 165.301,41.081 L 168.012,41.238 L 170.463,41.478 L 172.894,41.817 L 175.299,42.259 L 177.671,42.809 L 180.006,43.47 L 182.296,44.247 L 184.316,45.05 L 186.291,45.953 L 188.219,46.961 L 190.094,48.076 L 191.715,49.161 L 193.482,50.489 L 195.187,51.935 L 195.89,52.585 L 197.154,54.074 L 198.1,55.392 L 199.024,56.942 L 199.669,58.28 L 200.259,59.851 L 200.685,61.429 L 200.954,63.015 L 201.075,64.607 L 201.041,66.431 L 200.831,68.256 L 200.664,69.167 L 200.4,70.302 L 199.853,72.109 L 199.067,74.117 L 198.115,76.09 L 196.885,78.227 L 195.639,80.087 L 194.124,82.071 L 192.495,83.952 L 190.776,85.716 L 188.994,87.347 L 186.99,88.972 L 185.158,90.28 L 183.166,91.513 L 181.406,92.435 L 179.754,93.15 L 179.483,93.332 L 179.125,93.45 L 178.709,93.484 L 178.301,93.396 L 177.473,92.913 L 176.962,89.346 L 176.306,85.714 L 175.533,82.189 L 174.648,78.786 L 173.584,75.298 L 172.972,73.518 L 172.331,71.801 L 172.121,71.434 L 171.925,71.23 L 171.692,71.07 L 171.295,70.922 L 168.131,70.624 L 164.836,70.448 L 161.531,70.401 L 158.474,70.473 L 155.171,70.675 L 151.881,71.008 L 148.603,71.472 L 145.598,72.017 L 142.37,72.736 L 139.417,73.518 L 136.266,74.491 L 133.397,75.51 L 130.568,76.646 L 127.796,77.896 L 125.08,79.262 L 122.43,80.741 L 120.264,82.069 L 118.157,83.473 L 116.098,84.961 L 114.292,86.371 L 112.342,88.016 L 110.635,89.571 L 108.63,91.554 L 107.568,92.68 L 107.395,92.909 L 107.231,93.306 L 107.194,93.734 L 108.799,103.419 L 108.835,104.009 L 108.796,104.182 L 108.702,104.302 L 108.583,104.367 L 108.394,104.357 L 108.015,104.247 L 107.68,104.1 L 106.882,103.653 L 104.958,102.407 L 105.193,102.301 L 105.419,102.14 L 105.61,101.939 L 105.758,101.705 L 105.858,101.447 L 105.906,101.174 L 105.882,100.368 L 105.8,100.095 L 105.665,99.843 L 105.482,99.624 L 105.259,99.445 L 104.869,99.269 L 104.588,99.219 L 104.302,99.227 L 103.891,99.344 L 103.224,99.662 L 102.916,99.939 L 102.76,100.168 L 102.617,100.556 L 102.592,100.97 L 102.688,101.373 L 102.833,101.643 L 101.575,101.616 L 100.569,101.748 L 99.361,102.079 L 98.794,102.302 L 98.035,102.679 L 97.055,103.322 L 96.155,104.113 L 95.407,104.968 L 94.648,106.112 L 94.258,106.866 L 93.927,107.648 L 93.653,108.453 L 93.429,109.307 L 93.268,110.145 L 93.159,110.992 L 93.104,111.846 L 93.108,112.958 L 93.173,113.838 L 93.288,114.683 L 93.513,115.762 L 93.744,116.573 L 94.04,117.394 L 94.378,118.16 L 94.77,118.895 L 95.195,119.562 L 95.694,120.221 L 96.088,120.667 L 96.652,121.212 L 97.118,121.594 L 97.769,122.04 L 98.307,122.341 L 99.041,122.668 L 99.642,122.871 L 100.453,123.061 L 101.104,123.151 L 101.98,123.19 L 102.618,123.164 L 103.317,123.085 L 104.314,122.888 L 105.104,122.657 L 105.488,122.46 L 105.695,122.758 L 106.395,123.458 L 106.997,124.155 L 107.73,125.109 L 108.543,126.254 L 108.259,127.133 L 108.113,127.368 L 107.794,127.728 L 106.237,128.227 L 104.643,128.606 L 102.548,128.935 L 100.169,129.118 L 97.505,129.139 L 94.563,129.001 L 85.937,128.259 L 83.767,127.941 L 81.733,127.52 L 80.53,127.206 L 79.379,126.855 L 78.279,126.467 L 77.027,125.957 L 76.039,125.494 L 75.1,124.999 L 74.21,124.472 L 73.206,123.8 L 72.421,123.208 L 71.54,122.46 L 70.724,121.672 L 69.973,120.845 L 69.284,119.981 L 68.657,119.08 L 68.091,118.144 L 67.584,117.172 L 67.137,116.166 L 66.75,115.127 L 66.42,114.055 L 66.149,112.952 L 65.937,111.818 L 65.782,110.656 L 65.686,109.466 L 65.647,108.25 L 65.675,106.801 L 65.803,105.107 L 66.033,103.377 L 66.364,101.615 L 66.796,99.825 L 67.327,98.011 L 67.958,96.178 L 68.59,94.561 L 69.404,92.703 L 70.314,90.837 L 71.318,88.968 L 72.274,87.333 L 73.454,85.469 L 74.561,83.845 L 75.911,82.001 L 77.166,80.4 L 78.488,78.815 L 79.674,77.47 L 82.192,74.826 L 83.748,73.317 L 85.132,72.045 L 88.013,69.589 L 89.983,68.193 L 91.822,66.976 L 93.908,65.686 L 96.035,64.463 L 97.981,63.42 L 100.176,62.325 L 102.625,61.198 L 105.108,60.153 L 105.565,59.894 L 105.863,59.646 L 106.261,59.071 L 106.43,58.554 L 106.462,57.901 L 106.355,57.412 L 106.253,57.146 L 105.988,56.726 L 105.816,56.539 L 105.417,56.241 L 105.142,56.114 L 104.625,55.997 L 104.323,55.994 L 103.66,56.145 L 100.636,57.427 L 97.888,58.709 L 95.362,59.993 L 94.579,59.654 L 93.834,59.055" id="🎨-Cap" fill="#000000" fill-rule="evenodd"></path>
<path d="M 92.59,62.875 L 92.813,62.949 L 93.085,62.886 L 92.375,63.304 L 92.371,62.478 L 92.43,62.705 L 92.59,62.875 M 109.041,96.21 L 103.882,96.21 L 99.132,97.869 L 90.345,99.765 L 90.82,123.466 L 102.694,127.258 L 108.869,126.784 L 109.379,125.004 L 110.649,126.797 L 110.515,126.668 L 110.294,126.594 L 110.066,126.633 L 109.883,126.777 L 109.814,126.899 L 109.731,127.255 L 109.533,127.772 L 109.253,128.223 L 108.872,128.681 L 108.832,128.901 L 108.897,129.114 L 108.763,128.881 L 107.339,129.384 L 105.653,129.843 L 104.19,130.137 L 102.465,130.375 L 100.975,130.501 L 99.478,130.562 L 97.725,130.565 L 95.969,130.508 L 93.466,130.347 L 88.769,129.923 L 86.944,129.794 L 84.348,129.478 L 82.443,129.135 L 80.639,128.71 L 78.934,128.205 L 77.326,127.624 L 76.238,127.162 L 75.2,126.664 L 74.21,126.13 L 73.269,125.56 L 72.376,124.956 L 71.532,124.319 L 70.736,123.65 L 69.987,122.95 L 69.285,122.219 L 68.631,121.458 L 68.023,120.67 L 67.354,119.687 L 66.848,118.839 L 66.387,117.966 L 65.971,117.068 L 65.532,115.96 L 65.215,115.012 L 64.894,113.846 L 64.674,112.852 L 64.468,111.633 L 64.344,110.598 L 64.252,109.333 L 64.222,108.262 L 64.242,106.956 L 64.305,105.852 L 64.436,104.511 L 64.829,102.008 L 65.419,99.458 L 65.822,98.051 L 66.283,96.635 L 66.891,94.973 L 67.473,93.542 L 68.11,92.107 L 68.802,90.669 L 69.678,88.991 L 70.487,87.553 L 72.263,84.688 L 73.396,83.027 L 74.422,81.612 L 76.627,78.812 L 79.031,76.063 L 81.63,73.379 L 84.42,70.773 L 87.141,68.464 L 89.178,67.02 L 91.263,65.645 L 94.039,63.959 L 97.103,62.273 L 98.885,61.371 L 100.687,60.512 L 102.507,59.698 L 104.573,58.835 L 104.81,58.688 L 104.962,58.486 L 105.038,58.253 L 105.041,58.011 L 104.98,57.783 L 104.858,57.592 L 104.683,57.46 L 104.46,57.409 L 104.195,57.464 L 101.674,58.523 L 99.41,59.556 L 96.953,60.768 L 94.601,62.024 L 94.743,61.904 L 94.838,61.693 L 94.835,61.508 L 94.732,61.301 L 94.586,61.187 L 93.855,60.88 L 93.411,60.561 L 93.086,60.263 L 92.814,60.2 L 92.592,60.273 L 92.432,60.443 L 92.372,60.668 L 92.425,58.654 L 92.554,56.912 L 92.904,54.521 L 93.197,53.076 L 93.521,51.939 L 93.836,51.118 L 93.972,50.604 L 94.166,50.108 L 94.698,49.073 L 95.365,48.024 L 96.576,46.425 L 97.966,44.856 L 99.447,43.388 L 101.142,41.9 L 102.826,40.584 L 104.673,39.3 L 106.68,38.068 L 108.567,37.05 L 110.867,35.976 L 113.006,35.13 L 115.259,34.389 L 117.625,33.765 L 120.103,33.275 L 122.119,33.006 L 124.03,32.928 L 126.008,33.018 L 127.517,33.194 L 128.781,33.411 L 130.043,33.691 L 131.295,34.032 L 132.53,34.435 L 133.741,34.898 L 134.919,35.421 L 136.058,36.003 L 137.15,36.643 L 138.187,37.341 L 139.163,38.095 L 139.894,38.738 L 140.739,39.593 L 141.356,40.315 L 142.047,41.267 L 142.531,42.067 L 145.562,41.404 L 148.425,40.869 L 151.343,40.418 L 154.055,40.085 L 156.795,39.835 L 159.555,39.675 L 162.326,39.612 L 164.849,39.643 L 167.369,39.765 L 169.88,39.982 L 172.376,40.298 L 174.851,40.719 L 177.298,41.25 L 179.473,41.826 L 181.852,42.578 L 183.954,43.361 L 185.334,43.941 L 186.694,44.567 L 188.033,45.242 L 189.35,45.967 L 190.644,46.741 L 191.913,47.568 L 193.156,48.446 L 194.172,49.219 L 196.142,50.88 L 196.907,51.587 L 197.321,52.046 L 198.097,52.97 L 198.804,53.904 L 199.444,54.846 L 200.152,56.035 L 200.647,56.994 L 201.08,57.959 L 201.452,58.929 L 201.835,60.148 L 202.077,61.126 L 202.302,62.352 L 202.422,63.335 L 202.499,64.564 L 202.505,65.546 L 202.444,66.772 L 202.311,67.994 L 202.109,69.21 L 201.899,70.178 L 201.58,71.38 L 201.2,72.572 L 200.762,73.752 L 200.165,75.15 L 199.377,76.752 L 198.496,78.32 L 197.533,79.848 L 196.496,81.332 L 195.392,82.767 L 194.231,84.149 L 193.02,85.474 L 191.587,86.911 L 189.927,88.422 L 188.422,89.664 L 186.712,90.939 L 185.192,91.955 L 183.497,92.958 L 181.837,93.804 L 180.403,94.416 L 180.504,95.091 L 180.398,94.842 L 180.257,94.727 L 180.128,94.681 L 179.946,94.679 L 179.46,94.833 L 179.163,94.887 L 178.628,94.905 L 178.35,94.874 L 178.054,94.811 L 177.553,94.623 L 176.95,94.237 L 176.772,94.181 L 176.585,94.198 L 176.385,94.317 L 176.265,94.517 L 176.249,94.704 L 175.869,91.658 L 175.427,88.8 L 174.909,85.994 L 174.262,83.007 L 173.599,80.348 L 172.802,77.548 L 171.935,74.865 L 171.002,72.314 L 168.274,72.061 L 165.783,71.909 L 163.037,71.828 L 160.537,71.834 L 157.786,71.928 L 155.288,72.092 L 152.548,72.361 L 150.066,72.685 L 147.351,73.13 L 144.898,73.615 L 142.464,74.177 L 140.051,74.816 L 137.425,75.609 L 135.067,76.411 L 132.739,77.291 L 130.445,78.249 L 127.296,79.722 L 124.226,81.349 L 121.244,83.132 L 118.561,84.927 L 115.771,87.01 L 113.281,89.085 L 110.894,91.296 L 108.616,93.643 L 109.041,96.21 M 96.672,51.513 L 97.056,50.69 L 97.486,49.976 L 98.062,49.147 L 98.778,48.23 L 99.5,47.391 L 100.319,46.516 L 101.232,45.617 L 102.238,44.703 L 103.335,43.784 L 104.521,42.871 L 105.575,42.121 L 106.689,41.386 L 107.861,40.673 L 110.114,39.457 L 112.549,38.356 L 113.979,37.804 L 115.161,37.397 L 117.63,36.689 L 120.234,36.138 L 122.367,35.839 L 123.388,35.78 L 124.449,35.778 L 125.541,35.834 L 126.654,35.947 L 127.78,36.118 L 128.908,36.345 L 130.031,36.628 L 131.14,36.966 L 132.226,37.356 L 133.28,37.797 L 134.294,38.288 L 135.072,38.713 L 135.994,39.284 L 136.856,39.896 L 137.649,40.545 L 138.23,41.088 L 138.761,41.651 L 139.24,42.232 L 139.666,42.829 L 140.201,43.704 L 140.569,44.129 L 140.783,44.313 L 141.26,44.612 L 141.518,44.725 L 142.062,44.872 L 142.342,44.904 L 142.905,44.886 L 146.128,44.191 L 148.906,43.673 L 151.971,43.203 L 154.839,42.863 L 157.491,42.636 L 160.156,42.499 L 162.825,42.455 L 165.247,42.503 L 167.901,42.655 L 170.295,42.89 L 172.902,43.26 L 175.241,43.7 L 177.545,44.245 L 179.806,44.898 L 182.021,45.663 L 183.97,46.45 L 185.873,47.333 L 187.727,48.317 L 189.528,49.403 L 191.083,50.458 L 192.962,51.899 L 194.766,53.481 L 195.533,54.333 L 196.338,55.355 L 197.299,56.789 L 198.078,58.227 L 198.689,59.667 L 199.144,61.111 L 199.451,62.563 L 199.633,64.232 L 199.65,65.702 L 199.516,67.394 L 199.224,69.093 L 198.781,70.796 L 198.195,72.493 L 197.377,74.388 L 196.403,76.253 L 195.29,78.076 L 194.054,79.844 L 192.712,81.545 L 191.282,83.166 L 189.614,84.859 L 187.886,86.422 L 186.127,87.841 L 184.365,89.098 L 182.63,90.18 L 181.119,90.992 L 179.105,91.883 L 178.802,92.062 L 178.191,88.056 L 177.382,83.893 L 176.482,80.108 L 175.387,76.255 L 174.472,73.485 L 173.545,71.03 L 173.24,70.554 L 172.848,70.147 L 172.382,69.826 L 171.862,69.603 L 171.308,69.486 L 170.027,69.356 L 166.426,69.093 L 163.078,68.985 L 159.965,69.001 L 156.861,69.13 L 153.763,69.373 L 150.675,69.728 L 147.602,70.197 L 144.549,70.781 L 141.531,71.478 L 138.534,72.293 L 135.818,73.141 L 132.894,74.18 L 130.254,75.234 L 127.647,76.393 L 125.096,77.647 L 122.38,79.125 L 119.931,80.596 L 117.345,82.303 L 115.034,83.981 L 112.783,85.768 L 110.614,87.65 L 108.522,89.636 L 106.52,91.716 L 106.175,92.175 L 105.929,92.694 L 105.847,92.969 L 105.768,93.537 L 105.804,94.109 L 106.154,96.21 L 103.882,96.21 L 99.132,97.869 L 90.345,99.765 L 90.82,123.466 L 102.694,127.258 L 104.866,127.091 L 103.27,127.404 L 101.256,127.63 L 98.949,127.726 L 96.584,127.688 L 93.932,127.53 L 86.925,126.935 L 84.782,126.667 L 82.54,126.247 L 80.255,125.641 L 79.193,125.288 L 78.183,124.902 L 76.317,124.039 L 75.459,123.565 L 74.65,123.064 L 73.887,122.536 L 73.032,121.87 L 71.748,120.682 L 71.169,120.053 L 70.529,119.267 L 70.038,118.586 L 69.501,117.738 L 69.094,117.006 L 68.656,116.097 L 68.332,115.314 L 67.992,114.343 L 67.704,113.339 L 67.506,112.478 L 67.316,111.415 L 67.18,110.321 L 67.072,108.239 L 67.147,106.066 L 67.407,103.811 L 67.712,102.126 L 68.059,100.625 L 68.548,98.882 L 69.055,97.337 L 69.725,95.552 L 70.39,93.977 L 71.128,92.393 L 71.938,90.802 L 72.82,89.209 L 73.772,87.615 L 74.795,86.023 L 75.887,84.438 L 77.047,82.86 L 78.275,81.293 L 79.569,79.741 L 80.93,78.205 L 83.2,75.832 L 85.627,73.517 L 87.251,72.079 L 88.693,70.871 L 90.196,69.776 L 91.987,68.565 L 93.815,67.405 L 95.678,66.299 L 97.573,65.245 L 99.496,64.244 L 101.447,63.297 L 103.421,62.403 L 105.642,61.471 L 106.083,61.247 L 106.533,60.953 L 106.916,60.603 L 107.235,60.203 L 107.56,59.656 L 107.823,58.855 L 107.891,58.055 L 107.85,57.527 L 107.792,57.268 L 107.527,56.509 L 107.265,56.07 L 106.954,55.665 L 106.401,55.191 L 105.883,54.88 L 105.602,54.768 L 104.79,54.584 L 104.185,54.578 L 103.886,54.623 L 103.37,54.741 L 102.895,54.92 L 99.117,56.553 L 97.257,57.434 L 95.293,58.421 L 95.465,56.573 L 95.92,53.945 L 96.17,53.005 L 96.672,51.513" id="🖍-Hat-Ink" fill="#000000" fill-rule="evenodd"></path>
</g>
</svg>
