<?xml version="1.0" encoding="UTF-8"?>
<svg xmlns="http://www.w3.org/2000/svg" viewBox="-1 -41 324 738">
<g stroke="none" stroke-width="1" fill="none" fill-rule="evenodd">
<path d="M 110.833,19.392 L 110.762,19.042 L 110.745,18.664 L 110.812,17.368 L 111.047,15.745 L 111.555,12.946 L 111.819,11.896 L 112.094,11.062 L 112.609,9.745 L 113.192,8.458 L 113.841,7.201 L 114.678,5.777 L 115.599,4.402 L 116.453,3.262 L 117.363,2.169 L 118.489,0.955 L 119.681,-0.189 L 120.937,-1.263 L 122.252,-2.265 L 123.622,-3.191 L 125.044,-4.04 L 126.514,-4.809 L 127.81,-5.404 L 129.085,-5.919 L 129.161,-5.941 L 129.643,-5.877 L 129.903,-5.909 L 130.153,-5.988 L 132.004,-6.944 L 133.762,-7.794 L 135.545,-8.595 L 137.579,-9.438 L 139.408,-10.137 L 141.253,-10.787 L 143.112,-11.389 L 144.983,-11.944 L 147.298,-12.565 L 149.131,-13.005 L 150.948,-13.372 L 151.734,-13.465 L 152.584,-13.42 L 152.981,-13.309 L 153.289,-13.144 L 153.543,-12.911 L 153.703,-12.682 L 153.854,-12.354 L 154.002,-11.841 L 154.225,-11.487 L 154.426,-11.293 L 154.662,-11.143 L 154.922,-11.041 L 155.198,-10.992 L 155.478,-10.998 L 157.021,-11.304 L 158.669,-11.554 L 160.091,-11.703 L 161.76,-11.8 L 163.435,-11.818 L 165.113,-11.756 L 166.792,-11.618 L 168.244,-11.43 L 168.338,-11.324 L 168.401,-11.17 L 168.431,-10.795 L 168.366,-10.603 L 168.109,-10.141 L 168.035,-9.874 L 168.014,-9.598 L 168.084,-9.19 L 168.195,-8.936 L 168.353,-8.709 L 168.666,-8.436 L 169.043,-8.264 L 171.364,-7.948 L 172.494,-7.714 L 173.258,-7.5 L 173.541,-7.231 L 173.659,-6.96 L 173.507,-6.557 L 173.446,-6.278 L 173.441,-5.991 L 173.542,-5.575 L 173.677,-5.322 L 173.859,-5.102 L 174.206,-4.85 L 174.473,-4.745 L 175.472,-4.539 L 176.304,-4.311 L 177.117,-4.025 L 177.908,-3.682 L 178.676,-3.28 L 179.419,-2.82 L 180.03,-2.375 L 180.351,-1.999 L 180.572,-1.806 L 180.965,-1.612 L 181.398,-1.546 L 182.913,-1.654 L 184.277,-1.65 L 185.639,-1.543 L 186.992,-1.335 L 188.329,-1.028 L 189.642,-0.624 L 190.923,-0.124 L 192.333,0.558 L 192.503,0.693 L 192.651,0.93 L 192.715,1.123 L 192.735,1.385 L 192.657,1.603 L 192.002,2.447 L 191.818,2.831 L 191.762,3.11 L 191.763,3.394 L 191.87,3.806 L 192.095,4.167 L 192.416,4.447 L 193.815,5.099 L 194.319,5.417 L 194.781,5.777 L 195.458,6.487 L 196.003,7.335 L 196.38,8.263 L 196.528,8.852 L 196.613,9.451 L 196.626,10.245 L 196.561,10.821 L 196.376,11.686 L 196.414,12.118 L 196.581,12.519 L 197.193,13.284 L 197.514,13.878 L 197.725,14.532 L 197.81,15.225 L 197.784,15.76 L 197.672,16.313 L 197.484,16.826 L 197.242,17.257 L 196.946,17.626 L 196.595,17.947 L 196.182,18.227 L 195.729,18.473 L 195.512,18.643 L 195.332,18.852 L 195.195,19.092 L 195.107,19.353 L 195.072,19.626 L 195.09,19.901 L 195.174,20.282 L 195.171,20.461 L 195.093,20.73 L 194.916,20.982 L 194.347,21.511 L 193.707,21.991 L 193.025,22.399 L 192.16,22.801 L 191.819,23.059 L 191.64,23.282 L 191.51,23.537 L 191.375,24.223 L 191.061,24.762 L 190.584,25.34 L 189.85,25.974 L 189.171,26.394 L 188.241,26.793 L 187.461,26.998 L 186.184,27.218 L 185.587,27.153 L 185.304,26.999 L 184.49,26.713 L 183.889,26.375 L 183.603,26.135 L 183.388,25.685 L 183.118,25.361 L 182.764,25.131 L 182.253,24.974 L 182.0,24.834 L 181.849,24.696 L 181.167,23.848 L 180.313,23.051 L 179.857,22.707 L 179.151,22.251 L 177.705,21.513 L 176.755,21.122 L 175.395,20.628 L 171.384,19.249 L 170.342,18.969 L 169.711,18.867 L 168.866,18.825 L 166.216,18.987 L 165.662,18.941 L 164.946,18.775 L 164.327,18.501 L 163.777,18.103 L 163.452,17.768 L 163.035,17.153 L 162.752,16.863 L 162.399,16.663 L 162.003,16.572 L 161.732,16.575 L 160.046,16.827 L 158.443,16.898 L 156.777,16.856 L 151.979,16.576 L 150.643,16.564 L 149.307,16.626 L 148.419,16.752 L 147.382,16.992 L 143.671,18.159 L 142.854,18.326 L 142.261,18.388 L 141.728,18.388 L 141.452,18.343 L 141.081,18.208 L 140.633,17.897 L 140.26,17.725 L 139.854,17.666 L 139.581,17.693 L 137.802,18.093 L 135.806,18.658 L 131.547,20.065 L 129.88,20.675 L 124.545,22.81 L 124.306,22.958 L 124.099,23.153 L 123.935,23.382 L 123.7,23.861 L 123.598,23.924 L 123.403,23.959 L 122.997,23.905 L 122.359,23.754 L 121.079,23.336 L 119.997,22.894 L 116.808,21.478 L 115.037,20.842 L 114.269,20.635 L 113.997,20.595 L 113.588,20.634 L 113.252,20.764 L 112.757,20.773 L 112.483,20.716 L 112.106,20.533 L 111.753,20.236 L 111.585,19.925 L 111.299,19.629 L 111.065,19.483 L 110.833,19.392" id="🎨-Hair" fill="#000000" fill-rule="evenodd"></path>
<path d="M 106.659,41.156 L 106.659,41.157 L 106.659,41.156 M 106.647,41.402 L 106.646,41.404 L 106.646,41.403 L 106.647,41.402 M 106.635,41.649 L 106.635,41.65 L 106.635,41.65 L 106.635,41.649 M 106.625,41.895 L 106.625,41.897 L 106.625,41.896 L 106.625,41.895 M 106.615,42.142 L 106.615,42.143 L 106.615,42.142 M 106.606,42.388 L 106.606,42.389 L 106.606,42.389 L 106.606,42.388 M 106.599,42.634 L 106.599,42.636 L 106.599,42.635 L 106.599,42.634 M 106.592,42.88 L 106.592,42.882 L 106.592,42.881 L 106.592,42.88 M 106.585,43.126 L 106.585,43.128 L 106.585,43.127 L 106.585,43.126 M 106.58,43.372 L 106.58,43.374 L 106.58,43.373 L 106.58,43.372 M 106.576,43.618 L 106.576,43.62 L 106.576,43.619 L 106.576,43.618 M 106.572,43.864 L 106.572,43.865 L 106.572,43.865 L 106.572,43.864 M 106.569,44.11 L 106.569,44.111 L 106.569,44.11 M 106.567,44.355 L 106.567,44.357 L 106.567,44.356 L 106.567,44.355 M 106.566,44.601 L 106.566,44.603 L 106.566,44.602 L 106.566,44.601 M 106.566,44.847 L 106.566,44.847 L 106.566,44.848 L 106.566,44.847 M 106.567,45.093 L 106.567,45.092 L 106.567,45.094 L 106.567,45.093 M 106.568,45.338 L 106.568,45.339 L 106.568,45.338 M 106.571,45.583 L 106.571,45.585 L 106.571,45.584 L 106.571,45.583 M 106.574,45.829 L 106.574,45.83 L 106.574,45.829 M 106.578,46.074 L 106.578,46.076 L 106.578,46.075 L 106.578,46.074 M 106.583,46.319 L 106.583,46.321 L 106.583,46.32 L 106.583,46.319 M 106.589,46.565 L 106.589,46.566 L 106.589,46.566 L 106.589,46.565 M 106.596,46.81 L 106.596,46.812 L 106.596,46.811 L 106.596,46.81 M 106.603,47.055 L 106.603,47.057 L 106.603,47.056 L 106.603,47.055 M 106.612,47.301 L 106.612,47.302 L 106.612,47.302 L 106.612,47.301 M 106.621,47.546 L 106.621,47.548 L 106.621,47.547 L 106.621,47.546 M 106.631,47.791 L 106.631,47.793 L 106.631,47.792 L 106.631,47.791 M 106.642,48.037 L 106.643,48.038 L 106.642,48.037 M 106.654,48.282 L 106.654,48.284 L 106.654,48.283 L 106.654,48.282 M 106.584,63.849 L 106.576,63.86 L 106.58,63.854 L 106.584,63.849 M 106.446,64.051 L 106.44,64.062 L 106.443,64.056 L 106.446,64.051 M 106.311,64.262 L 106.315,64.257 L 106.308,64.268 L 106.311,64.262 M 106.185,64.472 L 106.188,64.467 L 106.182,64.477 L 106.185,64.472 M 106.066,64.68 L 106.061,64.69 L 106.064,64.685 L 106.066,64.68 M 105.95,64.896 L 105.945,64.906 L 105.947,64.901 L 105.95,64.896 M 105.838,65.115 L 105.833,65.125 L 105.836,65.12 L 105.838,65.115 M 105.732,65.338 L 105.727,65.347 L 105.729,65.343 L 105.732,65.338 M 105.63,65.563 L 105.626,65.573 L 105.628,65.568 L 105.63,65.563 M 105.532,65.791 L 105.529,65.8 L 105.531,65.796 L 105.532,65.791 M 105.44,66.021 L 105.436,66.03 L 105.438,66.026 L 105.44,66.021 M 105.352,66.254 L 105.349,66.263 L 105.35,66.258 L 105.352,66.254 M 105.268,66.489 L 105.265,66.497 L 105.267,66.493 L 105.268,66.489 M 105.189,66.725 L 105.186,66.734 L 105.188,66.73 L 105.189,66.725 M 105.114,66.964 L 105.112,66.972 L 105.113,66.968 L 105.114,66.964 M 105.044,67.204 L 105.041,67.212 L 105.043,67.208 L 105.044,67.204 M 104.977,67.446 L 104.975,67.454 L 104.976,67.45 L 104.977,67.446 M 104.915,67.689 L 104.913,67.697 L 104.914,67.693 L 104.915,67.689 M 104.856,67.933 L 104.855,67.941 L 104.855,67.937 L 104.856,67.933 M 104.801,68.182 L 104.802,68.178 L 104.8,68.186 L 104.801,68.182 M104.75,68.431 L104.75,68.431 L104.75,68.429 Z M104.703,68.678 L104.704,68.673 L104.704,68.675 Z M104.66,68.924 L104.661,68.92 L104.66,68.922 Z M104.621,69.169 L104.621,69.17 L104.621,69.168 Z M104.584,69.419 L104.585,69.414 L104.585,69.417 Z M 104.552,69.661 L 104.552,69.667 L 104.552,69.664 L 104.552,69.661 M104.523,69.909 L104.522,69.914 L104.522,69.914 Z M104.497,70.156 L104.497,70.159 L104.497,70.157 Z M104.474,70.406 L104.473,70.408 L104.474,70.403 Z M 104.454,70.652 L 104.454,70.649 L 104.454,70.654 L 104.454,70.652 M 104.437,70.894 L 104.437,70.9 L 104.437,70.897 L 104.437,70.894 M 104.423,71.138 L 104.423,71.144 L 104.423,71.141 L 104.423,71.138 M 104.412,71.382 L 104.412,71.387 L 104.412,71.384 L 104.412,71.382 M 104.404,71.624 L 104.404,71.629 L 104.404,71.626 L 104.404,71.624 M104.398,71.867 L104.399,71.865 L104.399,71.864 Z M 104.396,72.103 L 104.396,72.108 L 104.396,72.105 L 104.396,72.103 M 104.395,72.335 L 104.395,72.34 L 104.395,72.337 L 104.395,72.335 M 104.397,72.583 L 104.397,72.58 L 104.397,72.585 L 104.397,72.583 M 104.402,72.829 L 104.402,72.826 L 104.402,72.831 L 104.402,72.829 M 104.409,73.073 L 104.409,73.078 L 104.409,73.075 L 104.409,73.073 M 104.419,73.32 L 104.419,73.325 L 104.419,73.323 L 104.419,73.32 M 104.432,73.568 L 104.432,73.573 L 104.432,73.571 L 104.432,73.568 M104.447,73.82 L104.447,73.818 L104.448,73.822 Z M 104.466,74.064 L 104.466,74.07 L 104.466,74.067 L 104.466,74.064 M104.488,74.319 L104.488,74.315 L104.488,74.316 Z M104.513,74.566 L104.512,74.564 L104.513,74.564 Z M104.541,74.814 L104.54,74.812 L104.541,74.812 Z M104.572,75.06 L104.572,75.061 L104.572,75.059 Z M104.607,75.31 L104.606,75.306 L104.607,75.308 Z M104.645,75.555 L104.645,75.556 L104.645,75.554 Z M104.686,75.798 L104.686,75.801 L104.686,75.798 Z M104.731,76.045 L104.733,76.05 L104.733,76.048 Z M104.781,76.292 L104.781,76.291 L104.782,76.295 Z M 104.833,76.531 L 104.835,76.539 L 104.834,76.535 L 104.833,76.531 M 104.891,76.778 L 104.89,76.774 L 104.892,76.781 L 104.891,76.778 M105.084,77.492 L105.085,77.495 L105.085,77.495 Z M105.159,77.734 L105.157,77.729 L105.16,77.737 Z M105.236,77.968 L105.236,77.97 L105.235,77.966 Z M105.317,78.201 L105.318,78.201 L105.316,78.196 Z M105.404,78.432 L105.403,78.428 L105.403,78.429 Z M105.494,78.66 L105.493,78.655 L105.495,78.66 Z M105.59,78.886 L105.59,78.887 L105.59,78.887 Z M105.688,79.105 L105.689,79.108 L105.688,79.106 Z M105.793,79.326 L105.794,79.328 L105.795,79.33 Z M105.795,79.331 L105.795,79.331 L105.795,79.33 Z M105.906,79.552 L105.904,79.548 L105.905,79.549 Z M106.017,79.76 L106.019,79.765 L106.018,79.762 Z M106.395,80.396 L106.392,80.39 L106.398,80.399 Z M106.529,80.597 L106.526,80.593 L106.533,80.602 Z M 107.978,29.832 L 107.978,29.831 L 107.978,29.833 L 107.978,29.832 M 107.932,30.078 L 107.932,30.077 L 107.932,30.079 L 107.932,30.078 M 107.886,30.323 L 107.886,30.325 L 107.886,30.324 L 107.886,30.323 M 107.842,30.569 L 107.841,30.571 L 107.841,30.57 L 107.842,30.569 M 107.798,30.815 L 107.798,30.817 L 107.798,30.816 L 107.798,30.815 M 107.755,31.061 L 107.755,31.063 L 107.755,31.062 L 107.755,31.061 M 107.713,31.308 L 107.712,31.31 L 107.713,31.309 L 107.713,31.308 M 107.671,31.555 L 107.671,31.556 L 107.671,31.555 M 107.631,31.801 L 107.631,31.803 L 107.631,31.802 L 107.631,31.801 M 107.591,32.048 L 107.591,32.05 L 107.591,32.049 L 107.591,32.048 M 107.552,32.295 L 107.552,32.297 L 107.552,32.296 L 107.552,32.295 M 107.514,32.542 L 107.514,32.544 L 107.514,32.543 L 107.514,32.542 M 107.477,32.789 L 107.477,32.791 L 107.477,32.79 L 107.477,32.789 M 107.441,33.037 L 107.441,33.038 L 107.441,33.037 M 107.405,33.284 L 107.405,33.285 L 107.405,33.285 L 107.405,33.284 M 107.37,33.531 L 107.37,33.533 L 107.37,33.532 L 107.37,33.531 M 107.336,33.778 L 107.336,33.78 L 107.336,33.779 L 107.336,33.778 M 107.303,34.026 L 107.303,34.026 L 107.303,34.027 L 107.303,34.026 M 107.271,34.274 L 107.271,34.273 L 107.27,34.275 L 107.271,34.274 M 107.239,34.52 L 107.239,34.522 L 107.239,34.521 L 107.239,34.52 M 107.208,34.768 L 107.208,34.769 L 107.208,34.768 M 107.178,35.015 L 107.178,35.016 L 107.178,35.016 L 107.178,35.015 M 107.149,35.262 L 107.148,35.264 L 107.148,35.263 L 107.149,35.262 M 107.12,35.51 L 107.12,35.511 L 107.12,35.51 M 107.092,35.757 L 107.092,35.758 L 107.092,35.757 M 107.065,36.004 L 107.065,36.005 L 107.065,36.005 L 107.065,36.004 M 107.038,36.252 L 107.039,36.251 L 107.038,36.252 M 107.013,36.498 L 107.013,36.498 L 107.013,36.499 L 107.013,36.498 M 106.988,36.745 L 106.988,36.746 L 106.988,36.745 M 106.964,36.991 L 106.964,36.993 L 106.964,36.992 L 106.964,36.991 M 106.94,37.238 L 106.94,37.239 L 106.94,37.238 M 106.917,37.484 L 106.917,37.486 L 106.917,37.485 L 106.917,37.484 M 106.895,37.731 L 106.895,37.732 L 106.895,37.731 M 106.874,37.977 L 106.874,37.978 L 106.874,37.977 M 106.853,38.223 L 106.853,38.224 L 106.853,38.223 M 106.833,38.469 L 106.834,38.468 L 106.833,38.47 L 106.833,38.469 M 106.814,38.714 L 106.814,38.714 L 106.814,38.715 L 106.814,38.714 M 106.796,38.959 L 106.796,38.96 L 106.796,38.96 L 106.796,38.959 M 106.778,39.204 L 106.778,39.206 L 106.778,39.205 L 106.778,39.204 M 106.761,39.449 L 106.761,39.45 L 106.761,39.45 L 106.761,39.449 M 106.744,39.694 L 106.744,39.695 L 106.744,39.694 M 106.728,39.938 L 106.728,39.939 L 106.728,39.939 L 106.728,39.938 M 106.713,40.182 L 106.713,40.184 L 106.713,40.183 L 106.713,40.182 M 106.698,40.426 L 106.698,40.427 L 106.698,40.427 L 106.698,40.426 M 106.685,40.67 L 106.684,40.671 L 106.684,40.67 L 106.685,40.67 M 106.671,40.913 L 106.671,40.914 L 106.671,40.914 L 106.671,40.913 M 106.667,48.527 L 106.667,48.529 L 106.667,48.528 L 106.667,48.527 M 106.681,48.773 L 106.681,48.774 L 106.681,48.773 M 106.695,49.018 L 106.696,49.02 L 106.695,49.019 L 106.695,49.018 M 106.711,49.263 L 106.711,49.265 L 106.711,49.264 L 106.711,49.263 M 106.727,49.509 L 106.727,49.51 L 106.727,49.509 M 106.744,49.754 L 106.744,49.756 L 106.744,49.755 L 106.744,49.754 M 106.762,50.0 L 106.762,49.999 L 106.763,50.001 L 106.762,50.0 M 106.781,50.246 L 106.781,50.245 L 106.781,50.246 M 106.801,50.49 L 106.801,50.492 L 106.801,50.491 L 106.801,50.49 M 106.822,50.736 L 106.822,50.737 L 106.822,50.737 L 106.822,50.736 M 106.843,50.981 L 106.844,50.983 L 106.843,50.982 L 106.843,50.981 M 106.866,51.227 L 106.866,51.228 L 106.866,51.228 L 106.866,51.227 M 106.889,51.473 L 106.889,51.474 L 106.889,51.473 M 106.913,51.717 L 106.913,51.719 L 106.913,51.718 L 106.913,51.717 M 106.938,51.962 L 106.938,51.963 L 106.938,51.963 L 106.938,51.962 M 106.963,52.207 L 106.963,52.208 L 106.963,52.207 M 106.989,52.451 L 106.989,52.453 L 106.989,52.452 L 106.989,52.451 M 107.016,52.696 L 107.016,52.697 L 107.016,52.696 M 107.043,52.94 L 107.043,52.942 L 107.043,52.941 L 107.043,52.94 M 107.071,53.184 L 107.072,53.186 L 107.072,53.185 L 107.071,53.184 M 107.101,53.428 L 107.101,53.43 L 107.101,53.429 L 107.101,53.428 M 107.131,53.672 L 107.131,53.674 L 107.131,53.673 L 107.131,53.672 M 107.162,53.916 L 107.162,53.918 L 107.162,53.917 L 107.162,53.916 M 107.194,54.161 L 107.194,54.16 L 107.195,54.162 L 107.194,54.161 M 107.228,54.404 L 107.228,54.403 L 107.228,54.405 L 107.228,54.404 M 107.262,54.646 L 107.262,54.649 L 107.262,54.648 L 107.262,54.646 M 107.298,54.89 L 107.298,54.892 L 107.298,54.891 L 107.298,54.89 M 107.335,55.133 L 107.335,55.135 L 107.335,55.134 L 107.335,55.133 M 107.373,55.375 L 107.373,55.378 L 107.373,55.377 L 107.373,55.375 M 107.412,55.618 L 107.413,55.621 L 107.412,55.619 L 107.412,55.618 M 107.453,55.86 L 107.454,55.863 L 107.453,55.862 L 107.453,55.86 M 107.495,56.103 L 107.496,56.105 L 107.496,56.104 L 107.495,56.103 M 107.539,56.345 L 107.54,56.348 L 107.539,56.346 L 107.539,56.345 M 107.711,57.271 L 107.711,57.273 L 107.711,57.272 L 107.711,57.271 M 107.755,57.507 L 107.755,57.51 L 107.755,57.508 L 107.755,57.507 M 107.8,57.745 L 107.801,57.749 L 107.801,57.747 L 107.8,57.745 M 107.849,57.984 L 107.85,57.99 L 107.85,57.987 L 107.849,57.984 M 107.901,58.225 L 107.903,58.232 L 107.902,58.228 L 107.901,58.225 M 107.957,58.465 L 107.959,58.474 L 107.958,58.47 L 107.957,58.465 M 107.88,62.388 L 107.868,62.399 L 107.874,62.393 L 107.88,62.388 M 107.692,62.559 L 107.698,62.554 L 107.687,62.565 L 107.692,62.559 M 107.516,62.73 L 107.521,62.725 L 107.511,62.736 L 107.516,62.73 M 107.351,62.901 L 107.341,62.912 L 107.346,62.906 L 107.351,62.901 M 107.186,63.082 L 107.177,63.092 L 107.182,63.087 L 107.186,63.082 M 107.027,63.267 L 107.019,63.278 L 107.023,63.272 L 107.027,63.267 M 106.874,63.457 L 106.866,63.468 L 106.87,63.462 L 106.874,63.457 M 106.726,63.651 L 106.718,63.662 L 106.722,63.656 L 106.726,63.651 M106.667,80.792 L106.67,80.797 L106.668,80.793 Z M 106.813,80.988 L 106.821,80.998 L 106.817,80.993 L 106.813,80.988 M106.973,81.191 L106.971,81.189 L106.969,81.187 Z M107.126,81.374 L107.13,81.379 L107.122,81.37 Z M107.289,81.559 L107.291,81.561 L107.287,81.557 Z M107.458,81.74 L107.459,81.741 L107.456,81.738 Z M107.814,82.089 L107.81,82.085 L107.813,82.088 Z M107.994,82.251 L107.997,82.253 L107.995,82.252 Z M 110.103,21.676 L 110.102,21.679 L 110.103,21.678 L 110.103,21.676 M 110.025,21.909 L 110.024,21.911 L 110.024,21.91 L 110.025,21.909 M 109.947,22.143 L 109.947,22.142 L 109.946,22.144 L 109.947,22.143 M 109.87,22.376 L 109.87,22.375 L 109.87,22.377 L 109.87,22.376 M 109.795,22.609 L 109.794,22.611 L 109.795,22.61 L 109.795,22.609 M 109.72,22.843 L 109.72,22.845 L 109.72,22.844 L 109.72,22.843 M 109.647,23.078 L 109.646,23.08 L 109.647,23.079 L 109.647,23.078 M 109.574,23.314 L 109.574,23.316 L 109.574,23.315 L 109.574,23.314 M 109.503,23.55 L 109.502,23.552 L 109.503,23.551 L 109.503,23.55 M 109.432,23.787 L 109.432,23.789 L 109.432,23.788 L 109.432,23.787 M 109.363,24.024 L 109.362,24.026 L 109.363,24.025 L 109.363,24.024 M 109.294,24.261 L 109.294,24.263 L 109.294,24.262 L 109.294,24.261 M 109.227,24.499 L 109.226,24.501 L 109.226,24.5 L 109.227,24.499 M 109.16,24.738 L 109.16,24.74 L 109.16,24.739 L 109.16,24.738 M 109.095,24.977 L 109.094,24.979 L 109.094,24.978 L 109.095,24.977 M 109.03,25.216 L 109.029,25.218 L 109.03,25.217 L 109.03,25.216 M 108.966,25.456 L 108.966,25.458 L 108.966,25.457 L 108.966,25.456 M 108.903,25.696 L 108.903,25.698 L 108.903,25.697 L 108.903,25.696 M 108.842,25.937 L 108.841,25.939 L 108.841,25.938 L 108.842,25.937 M 108.781,26.179 L 108.781,26.178 L 108.78,26.18 L 108.781,26.179 M 108.721,26.42 L 108.721,26.419 L 108.72,26.421 L 108.721,26.42 M 108.662,26.661 L 108.662,26.663 L 108.662,26.662 L 108.662,26.661 M 108.604,26.903 L 108.604,26.905 L 108.604,26.904 L 108.604,26.903 M 108.547,27.145 L 108.546,27.147 L 108.547,27.146 L 108.547,27.145 M 108.491,27.388 L 108.49,27.39 L 108.49,27.389 L 108.491,27.388 M 108.435,27.631 L 108.435,27.633 L 108.435,27.632 L 108.435,27.631 M 108.381,27.875 L 108.381,27.876 L 108.381,27.875 M 108.328,28.118 L 108.327,28.12 L 108.327,28.119 L 108.328,28.118 M 108.275,28.363 L 108.275,28.362 L 108.275,28.364 L 108.275,28.363 M 108.223,28.607 L 108.223,28.607 L 108.223,28.608 L 108.223,28.607 M 108.173,28.851 L 108.172,28.853 L 108.172,28.852 L 108.173,28.851 M 108.123,29.096 L 108.122,29.097 L 108.122,29.097 L 108.123,29.096 M 108.074,29.341 L 108.073,29.342 L 108.073,29.342 L 108.074,29.341 M 108.026,29.586 L 108.025,29.588 L 108.025,29.587 L 108.026,29.586 M 109.824,57.004 L 109.809,56.765 L 109.824,57.003 L 109.824,57.004 M 109.839,57.247 L 109.839,57.245 L 109.839,57.246 L 109.839,57.247 M 109.853,57.493 L 109.853,57.49 L 109.853,57.492 L 109.853,57.493 M 109.866,57.739 L 109.866,57.741 L 109.866,57.737 L 109.866,57.739 M 109.876,57.988 L 109.876,57.991 L 109.876,57.984 L 109.876,57.988 M 109.883,58.241 L 109.883,58.233 L 109.883,58.237 L 109.883,58.241 M 109.886,58.491 L 109.886,58.481 L 109.886,58.486 L 109.886,58.491 M 108.017,58.704 L 108.02,58.715 L 108.019,58.71 L 108.017,58.704 M 109.884,58.74 L 109.884,58.729 L 109.884,58.734 L 109.884,58.74 M 108.083,58.942 L 108.087,58.954 L 108.085,58.948 L 108.083,58.942 M 109.876,58.988 L 109.876,58.975 L 109.876,58.981 L 109.876,58.988 M 108.155,59.176 L 108.16,59.19 L 108.157,59.183 L 108.155,59.176 M 109.86,59.234 L 109.862,59.218 L 109.861,59.226 L 109.86,59.234 M 108.234,59.407 L 108.24,59.422 L 108.237,59.415 L 108.234,59.407 M 109.838,59.476 L 109.839,59.459 L 109.839,59.468 L 109.838,59.476 M 108.32,59.633 L 108.327,59.65 L 108.323,59.642 L 108.32,59.633 M 109.806,59.716 L 109.809,59.696 L 109.808,59.706 L 109.806,59.716 M 108.414,59.854 L 108.422,59.873 L 108.418,59.863 L 108.414,59.854 M 109.765,59.951 L 109.769,59.929 L 109.767,59.94 L 109.765,59.951 M 108.516,60.068 L 108.527,60.089 L 108.521,60.078 L 108.516,60.068 M 109.716,60.169 L 109.713,60.181 L 109.719,60.157 L 109.716,60.169 M 108.634,60.286 L 108.628,60.275 L 108.641,60.297 L 108.634,60.286 M 109.65,60.405 L 109.658,60.379 L 109.654,60.392 L 109.65,60.405 M 108.75,60.474 L 108.765,60.497 L 108.757,60.486 L 108.75,60.474 M 111.847,60.642 L 111.833,60.644 L 111.84,60.643 L 111.847,60.642 M 111.591,60.68 L 111.577,60.682 L 111.584,60.681 L 111.591,60.68 M 109.036,60.857 L 108.802,60.55 L 109.024,60.722 L 109.258,60.748 L 109.476,60.658 L 109.641,60.431 L 109.535,60.724 L 109.411,60.886 L 109.22,60.947 L 109.036,60.857 M 111.336,60.725 L 111.322,60.727 L 111.329,60.726 L 111.336,60.725 M 111.085,60.777 L 111.071,60.78 L 111.078,60.779 L 111.085,60.777 M 110.831,60.838 L 110.838,60.836 L 110.824,60.84 L 110.831,60.838 M 110.587,60.904 L 110.594,60.903 L 110.581,60.907 L 110.587,60.904 M 110.356,60.975 L 110.342,60.98 L 110.349,60.977 L 110.356,60.975 M 110.124,61.054 L 110.109,61.059 L 110.117,61.056 L 110.124,61.054 M 109.897,61.138 L 109.883,61.144 L 109.89,61.141 L 109.897,61.138 M 109.678,61.229 L 109.663,61.235 L 109.671,61.232 L 109.678,61.229 M 109.466,61.324 L 109.451,61.332 L 109.459,61.328 L 109.466,61.324 M 109.263,61.425 L 109.247,61.433 L 109.255,61.429 L 109.263,61.425 M 109.068,61.531 L 109.052,61.54 L 109.06,61.535 L 109.068,61.531 M 108.874,61.646 L 108.882,61.641 L 108.867,61.651 L 108.874,61.646 M 108.662,61.784 L 108.669,61.78 L 108.655,61.788 L 108.662,61.784 M 108.462,61.923 L 108.449,61.933 L 108.456,61.928 L 108.462,61.923 M 108.262,62.073 L 108.25,62.082 L 108.256,62.077 L 108.262,62.073 M 108.062,62.233 L 108.068,62.228 L 108.056,62.238 L 108.062,62.233 M 111.793,68.321 L 111.777,68.334 L 111.785,68.327 L 111.793,68.321 M 111.609,68.467 L 111.593,68.48 L 111.601,68.474 L 111.609,68.467 M 111.43,68.622 L 111.415,68.635 L 111.422,68.628 L 111.43,68.622 M 111.257,68.784 L 111.243,68.798 L 111.25,68.791 L 111.257,68.784 M 111.091,68.954 L 111.077,68.969 L 111.084,68.961 L 111.091,68.954 M 110.932,69.132 L 110.919,69.148 L 110.925,69.14 L 110.932,69.132 M 111.151,70.05 L 111.337,70.024 L 110.697,70.284 L 110.273,70.52 L 110.143,70.503 L 110.121,70.368 L 110.236,70.145 L 110.49,69.72 L 110.813,69.277 L 110.725,69.443 L 110.706,69.583 L 110.766,69.808 L 110.928,69.978 L 111.151,70.05 M108.193,82.42 L108.19,82.417 L108.198,82.423 Z M108.392,82.577 L108.386,82.573 L108.395,82.58 Z M108.811,82.881 L108.808,82.88 L108.814,82.883 Z M109.005,83.009 L109.015,83.016 L109.014,83.016 Z M109.211,83.137 L109.215,83.139 L109.217,83.141 Z M109.22,83.143 L109.22,83.143 L109.22,83.143 Z M109.424,83.261 L109.418,83.258 L109.425,83.263 Z M109.637,83.379 L109.633,83.376 L109.633,83.376 Z M109.851,83.489 L109.846,83.486 L109.854,83.49 Z M110.293,83.695 L110.288,83.692 L110.298,83.696 Z M110.519,83.788 L110.513,83.786 L110.523,83.791 Z M110.744,83.877 L110.74,83.875 L110.75,83.879 Z M110.979,83.962 L110.976,83.96 L110.977,83.96 Z M111.209,84.038 L111.206,84.037 L111.21,84.038 Z M111.447,84.111 L111.443,84.109 L111.444,84.109 Z M111.676,84.174 L111.68,84.175 L111.681,84.176 Z M111.685,84.177 L111.682,84.176 L111.686,84.177 Z M111.922,84.237 L111.919,84.236 L111.925,84.237 Z M 113.66,22.976 L 113.712,22.787 L 113.66,22.976 M 113.593,23.216 L 113.66,22.976 L 113.593,23.216 M 113.526,23.456 L 113.593,23.216 L 113.526,23.456 M 113.459,23.696 L 113.526,23.456 L 113.459,23.696 M 112.878,60.571 L 112.886,60.572 L 112.87,60.572 L 112.878,60.571 M 113.137,60.575 L 113.145,60.575 L 113.129,60.575 L 113.137,60.575 M 112.626,60.577 L 112.61,60.577 L 112.618,60.577 L 112.626,60.577 M 113.403,60.588 L 113.386,60.587 L 113.394,60.587 L 113.403,60.588 M 112.366,60.59 L 112.351,60.591 L 112.358,60.591 L 112.366,60.59 M 113.659,60.61 L 113.641,60.609 L 113.65,60.609 L 113.659,60.61 M 112.106,60.612 L 112.091,60.613 L 112.099,60.613 L 112.106,60.612 M 113.912,60.642 L 113.893,60.64 L 113.903,60.641 L 113.912,60.642 M 114.162,60.684 L 114.142,60.68 L 114.152,60.682 L 114.162,60.684 M 114.407,60.736 L 114.387,60.731 L 114.397,60.733 L 114.407,60.736 M 114.648,60.798 L 114.627,60.792 L 114.638,60.795 L 114.648,60.798 M 114.884,60.871 L 114.862,60.864 L 114.873,60.867 L 114.884,60.871 M 115.114,60.955 L 115.091,60.946 L 115.102,60.951 L 115.114,60.955 M 115.337,61.051 L 115.313,61.04 L 115.325,61.045 L 115.337,61.051 M 115.553,61.157 L 115.528,61.144 L 115.541,61.151 L 115.553,61.157 M 115.76,61.276 L 115.735,61.261 L 115.748,61.268 L 115.76,61.276 M 115.959,61.406 L 115.934,61.389 L 115.947,61.397 L 115.959,61.406 M 116.137,61.538 L 116.149,61.549 L 116.124,61.529 L 116.137,61.538 M 116.317,61.692 L 116.329,61.704 L 116.305,61.682 L 116.317,61.692 M 116.498,61.871 L 116.475,61.847 L 116.487,61.859 L 116.498,61.871 M 116.656,62.052 L 116.634,62.025 L 116.645,62.038 L 116.656,62.052 M 116.626,62.867 L 116.807,62.661 L 116.848,62.435 L 116.752,62.179 L 116.792,62.231 L 116.927,62.437 L 117.156,62.89 L 117.114,63.049 L 116.951,63.094 L 116.269,62.928 L 116.407,62.938 L 116.626,62.867 M 115.396,67.162 L 115.383,67.162 L 115.39,67.162 L 115.396,67.162 M 115.503,67.164 L 115.488,67.163 L 115.496,67.164 L 115.503,67.164 M 115.146,67.166 L 115.127,67.167 L 115.137,67.166 L 115.146,67.166 M 115.759,67.176 L 115.738,67.174 L 115.748,67.175 L 115.759,67.176 M 114.886,67.18 L 114.895,67.179 L 114.877,67.181 L 114.886,67.18 M 115.997,67.197 L 116.007,67.198 L 115.987,67.196 L 115.997,67.197 M 114.639,67.203 L 114.648,67.202 L 114.63,67.204 L 114.639,67.203 M 116.253,67.231 L 116.233,67.228 L 116.243,67.23 L 116.253,67.231 M 114.404,67.234 L 114.385,67.237 L 114.395,67.236 L 114.404,67.234 M 116.495,67.274 L 116.476,67.271 L 116.485,67.272 L 116.495,67.274 M 114.163,67.276 L 114.144,67.279 L 114.154,67.277 L 114.163,67.276 M 116.734,67.327 L 116.716,67.323 L 116.725,67.325 L 116.734,67.327 M 113.926,67.327 L 113.907,67.331 L 113.916,67.329 L 113.926,67.327 M 116.961,67.386 L 116.97,67.389 L 116.952,67.384 L 116.961,67.386 M 113.683,67.389 L 113.692,67.386 L 113.674,67.392 L 113.683,67.389 M 117.203,67.459 L 117.187,67.454 L 117.195,67.457 L 117.203,67.459 M 113.463,67.455 L 113.444,67.461 L 113.453,67.458 L 113.463,67.455 M 117.433,67.538 L 117.418,67.533 L 117.426,67.535 L 117.433,67.538 M 113.237,67.533 L 113.219,67.54 L 113.228,67.537 L 113.237,67.533 M 117.661,67.624 L 117.647,67.619 L 117.654,67.622 L 117.661,67.624 M 113.016,67.62 L 112.998,67.628 L 113.007,67.624 L 113.016,67.62 M 117.887,67.718 L 117.874,67.713 L 117.881,67.715 L 117.887,67.718 M 112.8,67.716 L 112.782,67.724 L 112.791,67.72 L 112.8,67.716 M 118.11,67.819 L 118.099,67.813 L 118.105,67.816 L 118.11,67.819 M 112.588,67.82 L 112.57,67.829 L 112.579,67.824 L 112.588,67.82 M 112.382,67.933 L 112.364,67.943 L 112.373,67.937 L 112.382,67.933 M 112.18,68.054 L 112.163,68.065 L 112.171,68.059 L 112.18,68.054 M 111.984,68.183 L 111.967,68.195 L 111.975,68.189 L 111.984,68.183 M 117.12,71.788 L 117.122,71.79 L 117.121,71.789 L 117.12,71.788 M 117.281,71.964 L 117.286,71.97 L 117.283,71.967 L 117.281,71.964 M 117.448,72.142 L 117.444,72.138 L 117.452,72.146 L 117.448,72.142 M 117.617,72.313 L 117.612,72.307 L 117.623,72.319 L 117.617,72.313 M 117.785,72.471 L 117.8,72.484 L 117.792,72.478 L 117.785,72.471 M 117.965,72.627 L 117.984,72.643 L 117.974,72.635 L 117.965,72.627 M 118.153,72.773 L 118.178,72.791 L 118.165,72.783 L 118.153,72.773 M 115.584,79.929 L 115.578,79.929 L 115.581,79.929 L 115.584,79.929 M 115.343,79.929 L 115.339,79.929 L 115.341,79.929 L 115.343,79.929 M 115.824,79.932 L 115.818,79.932 L 115.821,79.932 L 115.824,79.932 M 116.065,79.939 L 116.058,79.938 L 116.062,79.938 L 116.065,79.939 M 116.302,79.948 L 116.306,79.949 L 116.299,79.948 L 116.302,79.948 M 116.543,79.962 L 116.547,79.962 L 116.539,79.962 L 116.543,79.962 M 116.787,79.979 L 116.78,79.979 L 116.784,79.979 L 116.787,79.979 M 117.028,80.0 L 117.02,80.0 L 117.024,80.0 L 117.028,80.0 M 117.268,80.025 L 117.26,80.024 L 117.264,80.025 L 117.268,80.025 M 117.508,80.054 L 117.5,80.053 L 117.504,80.054 L 117.508,80.054 M 117.747,80.088 L 117.739,80.086 L 117.743,80.087 L 117.747,80.088 M 117.986,80.125 L 117.977,80.124 L 117.981,80.124 L 117.986,80.125 M117.701,83.88 L117.695,83.883 L117.702,83.88 Z M117.475,83.967 L117.477,83.967 L117.469,83.969 Z M117.962,84.01 L117.964,84.018 L117.963,84.016 Z M117.246,84.047 L117.24,84.049 L117.249,84.046 Z M118.004,84.236 L118.004,84.234 L118.005,84.24 Z M 116.539,84.25 L 116.552,84.247 L 116.545,84.249 L 116.539,84.25 M112.153,84.289 L112.159,84.29 L112.162,84.291 L112.156,84.29 Z M116.314,84.302 L116.312,84.303 L116.308,84.303 Z M112.4,84.339 L112.396,84.338 L112.406,84.34 Z M116.062,84.353 L116.063,84.353 L116.063,84.353 Z M115.58,84.43 L115.585,84.43 L115.582,84.43 Z M113.13,84.45 L113.126,84.449 L113.137,84.45 Z M 118.051,84.462 L 118.05,84.458 L 118.052,84.467 L 118.051,84.462 M 113.377,84.475 L 113.371,84.474 L 113.383,84.475 L 113.377,84.475 M115.101,84.482 L115.095,84.483 L115.098,84.482 Z M113.623,84.494 L113.624,84.494 L113.622,84.494 Z M114.857,84.499 L114.851,84.5 L114.853,84.499 Z M113.871,84.507 L113.863,84.507 L113.866,84.507 Z M114.611,84.511 L114.607,84.511 L114.614,84.51 Z M114.115,84.514 L114.112,84.514 L114.11,84.514 Z M 114.356,84.516 L 114.367,84.516 L 114.362,84.516 L 114.356,84.516 M 118.101,84.685 L 118.1,84.681 L 118.102,84.69 L 118.101,84.685 M 118.332,67.926 L 118.321,67.92 L 118.327,67.923 L 118.332,67.926 M 118.552,68.039 L 118.542,68.033 L 118.547,68.036 L 118.552,68.039 M 118.769,68.157 L 118.761,68.152 L 118.765,68.154 L 118.769,68.157 M 118.985,68.28 L 118.979,68.276 L 118.982,68.278 L 118.985,68.28 M 119.945,68.801 L 119.944,68.8 L 119.944,68.801 L 119.945,68.801 M 120.17,68.917 L 120.166,68.915 L 120.168,68.916 L 120.17,68.917 M 120.396,69.037 L 120.389,69.033 L 120.393,69.035 L 120.396,69.037 M 120.615,69.157 L 120.621,69.16 L 120.61,69.154 L 120.615,69.157 M 120.834,69.285 L 120.841,69.289 L 120.827,69.281 L 120.834,69.285 M 121.056,69.425 L 121.039,69.414 L 121.048,69.419 L 121.056,69.425 M 121.263,69.568 L 121.243,69.554 L 121.253,69.561 L 121.263,69.568 M 121.459,69.721 L 121.437,69.702 L 121.448,69.711 L 121.459,69.721 M 121.644,69.884 L 121.619,69.86 L 121.632,69.871 L 121.644,69.884 M 121.814,70.058 L 121.787,70.028 L 121.801,70.042 L 121.814,70.058 M 121.967,70.244 L 121.94,70.209 L 121.954,70.226 L 121.967,70.244 M 122.101,70.444 L 122.076,70.402 L 122.09,70.422 L 122.101,70.444 M 122.214,70.656 L 122.193,70.611 L 122.205,70.633 L 122.214,70.656 M 122.07,72.57 L 122.109,72.517 L 122.091,72.545 L 122.07,72.57 M 121.914,72.744 L 121.952,72.705 L 121.934,72.726 L 121.914,72.744 M 121.724,72.914 L 121.761,72.884 L 121.743,72.9 L 121.724,72.914 M 118.357,72.913 L 118.383,72.929 L 118.37,72.922 L 118.357,72.913 M 118.569,73.038 L 118.597,73.053 L 118.583,73.046 L 118.569,73.038 M 121.522,73.061 L 121.562,73.035 L 121.543,73.049 L 121.522,73.061 M 118.788,73.149 L 118.817,73.162 L 118.802,73.156 L 118.788,73.149 M 121.334,73.174 L 121.312,73.184 L 121.354,73.161 L 121.334,73.174 M 119.028,73.25 L 119.013,73.243 L 119.044,73.255 L 119.028,73.25 M 121.095,73.283 L 121.138,73.265 L 121.117,73.275 L 121.095,73.283 M 119.242,73.322 L 119.275,73.332 L 119.258,73.327 L 119.242,73.322 M 120.872,73.359 L 120.916,73.346 L 120.894,73.354 L 120.872,73.359 M 119.474,73.384 L 119.509,73.391 L 119.491,73.388 L 119.474,73.384 M 120.644,73.414 L 120.687,73.405 L 120.666,73.41 L 120.644,73.414 M 119.709,73.428 L 119.745,73.433 L 119.727,73.431 L 119.709,73.428 M 120.413,73.447 L 120.455,73.443 L 120.434,73.446 L 120.413,73.447 M 119.963,73.455 L 119.944,73.453 L 119.983,73.456 L 119.963,73.455 M 120.199,73.46 L 120.179,73.46 L 120.22,73.459 L 120.199,73.46 M 118.223,80.167 L 118.214,80.165 L 118.219,80.166 L 118.223,80.167 M 118.46,80.214 L 118.451,80.212 L 118.455,80.213 L 118.46,80.214 M 118.695,80.265 L 118.686,80.263 L 118.691,80.264 L 118.695,80.265 M 118.93,80.321 L 118.92,80.318 L 118.925,80.319 L 118.93,80.321 M 119.163,80.382 L 119.153,80.379 L 119.158,80.38 L 119.163,80.382 M 119.394,80.447 L 119.384,80.444 L 119.389,80.446 L 119.394,80.447 M 119.644,80.528 L 119.592,80.509 L 119.618,80.517 L 119.644,80.528 M 119.875,80.641 L 119.791,80.593 L 119.835,80.615 L 119.875,80.641 M 120.057,80.781 L 119.988,80.721 L 120.024,80.749 L 120.057,80.781 M 120.153,80.881 L 120.183,80.914 L 120.207,80.951 L 120.182,80.915 L 120.153,80.881 M 120.282,81.068 L 120.306,81.105 L 120.323,81.146 L 120.304,81.106 L 120.282,81.068 M 120.373,81.271 L 120.391,81.314 L 120.399,81.359 L 120.388,81.315 L 120.373,81.271 M 120.424,81.485 L 120.433,81.533 L 120.432,81.582 L 120.43,81.533 L 120.424,81.485 M 120.43,81.703 L 120.43,81.756 L 120.417,81.807 L 120.427,81.755 L 120.43,81.703 M 120.39,81.921 L 120.377,81.975 L 120.352,82.024 L 120.374,81.974 L 120.39,81.921 M 120.297,82.133 L 120.272,82.183 L 120.235,82.226 L 120.269,82.181 L 120.297,82.133 M 120.087,82.393 L 120.13,82.349 L 120.11,82.373 L 120.087,82.393 M 119.944,82.522 L 119.955,82.513 L 119.95,82.518 L 119.944,82.522 M 119.78,82.663 L 119.791,82.653 L 119.786,82.658 L 119.78,82.663 M 119.611,82.797 L 119.624,82.787 L 119.617,82.792 L 119.611,82.797 M 119.606,83.091 L 119.605,83.09 L 119.605,83.091 L 119.606,83.091 M 119.766,83.263 L 119.765,83.262 L 119.765,83.262 L 119.766,83.263 M 119.925,83.434 L 119.924,83.433 L 119.925,83.434 M 120.084,83.607 L 120.083,83.606 L 120.084,83.606 L 120.084,83.607 M 120.242,83.779 L 120.243,83.78 L 120.242,83.779 M 120.4,83.953 L 120.401,83.954 L 120.399,83.952 L 120.4,83.953 M 120.558,84.128 L 120.557,84.127 L 120.557,84.128 L 120.558,84.128 M 120.715,84.304 L 120.713,84.302 L 120.714,84.303 L 120.715,84.304 M 120.871,84.481 L 120.869,84.479 L 120.87,84.48 L 120.871,84.481 M 121.026,84.658 L 121.025,84.656 L 121.025,84.657 L 121.026,84.658 M 121.181,84.837 L 121.179,84.835 L 121.18,84.836 L 121.181,84.837 M 121.335,85.017 L 121.333,85.015 L 121.334,85.016 L 121.335,85.017 M118.213,85.126 L118.213,85.127 L118.213,85.126 Z M 121.488,85.198 L 121.488,85.198 L 121.487,85.198 L 121.488,85.198 M118.278,85.356 L118.277,85.352 L118.278,85.352 Z M118.346,85.577 L118.345,85.573 L118.347,85.579 Z M118.416,85.794 L118.419,85.801 L118.417,85.796 Z M118.494,86.02 L118.494,86.02 L118.496,86.024 Z M118.576,86.242 L118.575,86.24 L118.578,86.248 Z M118.663,86.471 L118.662,86.467 L118.662,86.467 Z M118.85,86.922 L118.849,86.918 L118.852,86.925 Z M 118.951,87.15 L 118.95,87.147 L 118.953,87.154 L 118.951,87.15 M119.053,87.372 L119.053,87.373 L119.053,87.372 Z M119.269,87.818 L119.268,87.817 L119.27,87.82 Z M119.381,88.039 L119.381,88.038 L119.38,88.038 Z M119.492,88.251 L119.493,88.253 L119.493,88.253 Z M119.61,88.47 L119.608,88.466 L119.609,88.469 Z M119.728,88.682 L119.727,88.68 L119.728,88.683 Z M 119.848,88.892 L 119.851,88.897 L 119.849,88.894 L 119.848,88.892 M119.973,89.105 L119.973,89.106 L119.972,89.104 Z M120.099,89.314 L120.099,89.315 L120.098,89.313 Z M120.227,89.521 L120.227,89.52 L120.226,89.519 Z M120.227,89.521 L120.227,89.522 L120.227,89.522 Z M120.357,89.726 L120.359,89.729 L120.357,89.727 Z M120.49,89.931 L120.489,89.929 L120.491,89.933 Z M120.627,90.137 L120.627,90.137 L120.627,90.137 Z M 120.761,90.334 L 120.764,90.338 L 120.763,90.336 L 120.761,90.334 M121.042,90.734 L121.045,90.738 L121.044,90.737 Z M121.186,90.933 L121.187,90.934 L121.187,90.935 Z M121.331,91.129 L121.333,91.131 L121.332,91.131 Z M121.48,91.326 L121.48,91.327 L121.478,91.324 Z M121.63,91.522 L121.628,91.52 L121.629,91.52 Z M 121.778,91.712 L 121.781,91.715 L 121.78,91.714 L 121.778,91.712 M121.933,91.905 L121.932,91.905 L121.932,91.905 Z M121.933,91.906 L121.934,91.906 L121.934,91.907 Z M122.086,92.096 L122.086,92.095 L122.089,92.098 Z M 122.3,70.87 L 122.285,70.826 L 122.294,70.847 L 122.3,70.87 M 122.36,71.065 L 122.364,71.09 L 122.353,71.042 L 122.36,71.065 M 122.402,71.286 L 122.404,71.312 L 122.397,71.26 L 122.402,71.286 M 122.419,71.534 L 122.418,71.478 L 122.42,71.506 L 122.419,71.534 M 122.406,71.755 L 122.412,71.695 L 122.411,71.725 L 122.406,71.755 M 122.366,71.97 L 122.38,71.909 L 122.375,71.94 L 122.366,71.97 M 122.297,72.18 L 122.32,72.119 L 122.311,72.15 L 122.297,72.18 M 122.198,72.38 L 122.231,72.322 L 122.217,72.352 L 122.198,72.38 M 122.243,92.286 L 122.245,92.288 L 122.244,92.287 L 122.243,92.286 M122.402,92.477 L122.4,92.474 L122.4,92.474 Z M 122.559,92.66 L 122.557,92.658 L 122.561,92.662 L 122.559,92.66 M122.72,92.844 L122.719,92.843 L122.719,92.843 Z M 122.877,93.019 L 122.881,93.023 L 122.879,93.021 L 122.877,93.019 M123.04,93.197 L123.042,93.2 L123.041,93.198 Z M123.205,93.373 L123.205,93.373 L123.205,93.373 Z M 130.783,93.532 L 130.782,93.531 L 130.782,93.531 L 130.783,93.532 M123.372,93.548 L123.375,93.55 L123.373,93.549 Z M 130.995,93.658 L 130.993,93.657 L 130.994,93.657 L 130.995,93.658 M 131.207,93.785 L 131.203,93.783 L 131.205,93.784 L 131.207,93.785 M 123.71,93.889 L 123.713,93.892 L 123.712,93.891 L 123.71,93.889 M 131.417,93.913 L 131.413,93.911 L 131.415,93.912 L 131.417,93.913 M 131.625,94.044 L 131.62,94.04 L 131.623,94.042 L 131.625,94.044 M123.883,94.059 L123.883,94.058 L123.882,94.057 Z M 131.832,94.177 L 131.826,94.173 L 131.829,94.175 L 131.832,94.177 M 132.036,94.312 L 132.029,94.307 L 132.032,94.31 L 132.036,94.312 M 132.233,94.448 L 132.237,94.451 L 132.229,94.446 L 132.233,94.448 M124.409,94.554 L124.408,94.553 L124.41,94.555 Z M 132.434,94.594 L 132.425,94.588 L 132.43,94.591 L 132.434,94.594 M124.586,94.715 L124.585,94.714 L124.588,94.717 Z M 132.628,94.742 L 132.618,94.734 L 132.623,94.738 L 132.628,94.742 M124.766,94.876 L124.764,94.875 L124.767,94.877 Z M 132.818,94.894 L 132.807,94.885 L 132.812,94.889 L 132.818,94.894 M124.946,95.035 L124.945,95.034 L124.948,95.036 Z M 132.997,95.046 L 133.002,95.051 L 132.991,95.041 L 132.997,95.046 M 133.182,95.214 L 133.17,95.203 L 133.176,95.208 L 133.182,95.214 M125.311,95.348 L125.312,95.349 L125.311,95.349 Z M 133.362,95.391 L 133.337,95.364 L 133.35,95.377 L 133.362,95.391 M 125.495,95.502 L 125.497,95.504 L 125.496,95.503 L 125.495,95.502 M 133.539,95.597 L 133.502,95.549 L 133.522,95.572 L 133.539,95.597 M125.682,95.657 L125.682,95.657 L125.682,95.657 Z M 133.675,95.804 L 133.643,95.751 L 133.661,95.776 L 133.675,95.804 M125.869,95.81 L125.868,95.809 L125.869,95.809 Z M 126.056,95.96 L 126.055,95.959 L 126.057,95.961 L 126.056,95.96 M 133.778,96.018 L 133.754,95.961 L 133.768,95.989 L 133.778,96.018 M 133.851,96.238 L 133.835,96.179 L 133.845,96.208 L 133.851,96.238 M 126.434,96.258 L 126.436,96.26 L 126.435,96.259 L 126.434,96.258 M 133.894,96.461 L 133.886,96.402 L 133.892,96.431 L 133.894,96.461 M126.817,96.554 L126.816,96.553 L126.818,96.554 Z M 133.91,96.686 L 133.909,96.629 L 133.911,96.657 L 133.91,96.686 M127.009,96.7 L127.009,96.699 L127.058,96.736 Z M127.106,96.773 L127.106,96.773 L127.109,96.775 Z M 133.899,96.911 L 133.904,96.858 L 133.903,96.884 L 133.899,96.911 M127.38,96.981 L127.379,96.98 L127.381,96.981 Z M 133.862,97.136 L 133.873,97.086 L 133.869,97.111 L 133.862,97.136 M127.567,97.121 L127.565,97.12 L127.566,97.12 Z M 133.802,97.358 L 133.816,97.311 L 133.81,97.335 L 133.802,97.358 M 133.728,97.555 L 133.718,97.575 L 133.736,97.533 L 133.728,97.555 M128.17,97.561 L128.173,97.563 L128.171,97.562 Z M 128.382,97.708 L 128.388,97.712 L 128.385,97.71 L 128.382,97.708 M 133.611,97.787 L 133.633,97.749 L 133.623,97.769 L 133.611,97.787 M128.604,97.857 L128.602,97.855 L128.609,97.86 Z M 133.484,97.992 L 133.508,97.956 L 133.497,97.975 L 133.484,97.992 M128.831,98.003 L128.826,98 L128.833,98.005 Z M 129.055,98.141 L 129.065,98.147 L 129.06,98.144 L 129.055,98.141 M 133.335,98.188 L 133.363,98.154 L 133.35,98.171 L 133.335,98.188 M 133.147,98.393 L 133.182,98.358 L 133.166,98.376 L 133.147,98.393 M129.523,98.405 L129.525,98.406 L129.524,98.406 Z M 132.952,98.566 L 132.992,98.533 L 132.973,98.55 L 132.952,98.566 M130.012,98.641 L130.006,98.639 L130.017,98.643 Z M 132.749,98.708 L 132.794,98.679 L 132.772,98.695 L 132.749,98.708 M 130.249,98.739 L 130.239,98.735 L 130.259,98.743 L 130.249,98.739 M 132.565,98.811 L 132.54,98.822 L 132.589,98.798 L 132.565,98.811 M130.49,98.826 L130.5,98.829 L130.479,98.822 Z M130.731,98.899 L130.718,98.895 L130.74,98.902 Z M 132.325,98.908 L 132.375,98.891 L 132.351,98.901 L 132.325,98.908 M130.971,98.957 L130.956,98.953 L130.982,98.959 Z M132.131,98.964 L132.155,98.958 L132.112,98.969 Z M131.192,98.995 L131.196,98.996 L131.193,98.995 Z M131.919,99.003 L131.905,99.005 L131.906,99.005 Z M131.678,99.023 L131.656,99.023 L131.68,99.022 Z M 143.912,101.074 L 143.873,101.089 L 143.802,101.129 L 143.853,101.094 L 143.912,101.074 M 143.616,101.268 L 143.653,101.228 L 143.698,101.198 L 143.655,101.231 L 143.616,101.268 M 143.461,101.447 L 143.486,101.406 L 143.519,101.371 L 143.488,101.408 L 143.461,101.447 M 143.34,101.659 L 143.356,101.617 L 143.379,101.58 L 143.358,101.618 L 143.34,101.659 M 143.258,101.894 L 143.266,101.851 L 143.282,101.81 L 143.268,101.851 L 143.258,101.894 M 143.222,102.142 L 143.221,102.095 L 143.23,102.049 L 143.224,102.095 L 143.222,102.142 M 143.224,102.287 L 143.237,102.391 L 143.228,102.339 L 143.224,102.287 M 143.278,102.554 L 143.309,102.627 L 143.281,102.574 L 143.267,102.516 L 143.278,102.554 M 143.363,102.728 L 143.411,102.801 L 143.44,102.834 L 143.394,102.786 L 143.363,102.728 M 143.543,102.942 L 143.594,102.987 L 143.567,102.966 L 143.543,102.942 M 143.762,103.119 L 143.764,103.12 L 143.763,103.119 L 143.762,103.119 M 143.958,103.27 L 143.961,103.271 L 143.959,103.271 L 143.958,103.27 M 125.222,-5.751 L 127.016,-6.611 L 128.633,-7.269 L 129.137,-7.37 L 129.598,-7.298 L 131.365,-8.215 L 133.159,-9.082 L 134.979,-9.899 L 136.82,-10.667 L 139.384,-11.642 L 142.215,-12.599 L 145.072,-13.446 L 148.115,-14.231 L 150.706,-14.773 L 151.902,-14.893 L 152.612,-14.855 L 153.069,-14.77 L 153.716,-14.54 L 154.112,-14.307 L 154.636,-13.825 L 154.931,-13.406 L 155.131,-13.007 L 155.308,-12.41 L 156.771,-12.704 L 158.491,-12.965 L 160.221,-13.14 L 161.96,-13.229 L 163.703,-13.235 L 165.447,-13.16 L 167.19,-13.005 L 168.682,-12.789 L 168.909,-12.694 L 169.293,-12.409 L 169.581,-12.025 L 169.77,-11.572 L 169.859,-11.085 L 169.844,-10.596 L 169.723,-10.137 L 169.439,-9.63 L 170.891,-9.465 L 172.098,-9.256 L 173.54,-8.917 L 173.977,-8.731 L 174.184,-8.593 L 174.555,-8.246 L 174.848,-7.825 L 174.956,-7.595 L 175.08,-7.113 L 175.088,-6.867 L 175.056,-6.623 L 174.861,-6.113 L 175.803,-5.922 L 176.729,-5.668 L 177.637,-5.349 L 178.523,-4.965 L 179.594,-4.392 L 180.419,-3.859 L 180.976,-3.44 L 181.394,-2.968 L 182.863,-3.076 L 184.335,-3.071 L 185.804,-2.956 L 187.261,-2.732 L 188.936,-2.336 L 190.344,-1.884 L 191.717,-1.329 L 193.048,-0.673 L 193.418,-0.408 L 193.579,-0.242 L 193.85,0.143 L 194.106,0.809 L 194.165,1.279 L 194.123,1.744 L 193.971,2.181 L 193.722,2.561 L 193.181,3.247 L 194.086,3.634 L 194.73,3.986 L 195.529,4.547 L 196.079,5.043 L 196.578,5.608 L 197.023,6.247 L 197.381,6.908 L 197.743,7.847 L 197.971,8.827 L 198.059,9.826 L 198.003,10.818 L 197.798,11.779 L 198.379,12.495 L 198.825,13.319 L 199.117,14.225 L 199.223,14.944 L 199.224,15.684 L 199.111,16.436 L 198.966,16.95 L 198.67,17.642 L 198.286,18.244 L 197.824,18.763 L 197.293,19.201 L 196.496,19.671 L 196.595,20.15 L 196.587,20.636 L 196.477,21.11 L 196.384,21.337 L 196.127,21.757 L 195.444,22.445 L 194.698,23.037 L 193.899,23.543 L 192.839,24.051 L 192.78,24.506 L 192.708,24.732 L 192.365,25.372 L 191.778,26.146 L 191.073,26.826 L 190.271,27.403 L 189.839,27.65 L 189.162,27.967 L 188.457,28.217 L 187.975,28.343 L 186.994,28.498 L 187.105,28.965 L 186.996,28.757 L 186.755,28.613 L 185.981,28.642 L 185.314,28.558 L 185.138,28.602 L 184.962,28.745 L 184.882,28.908 L 184.869,29.089 L 184.776,28.32 L 184.116,28.1 L 183.691,27.907 L 182.888,27.407 L 182.496,27.035 L 182.354,26.836 L 182.171,26.424 L 181.535,26.212 L 181.143,25.972 L 180.791,25.651 L 180.133,24.826 L 179.434,24.17 L 178.645,23.609 L 177.577,23.022 L 176.691,22.627 L 175.368,22.126 L 171.163,20.674 L 170.032,20.357 L 169.579,20.283 L 168.855,20.247 L 166.675,20.402 L 165.946,20.4 L 165.207,20.307 L 164.497,20.125 L 164.048,19.952 L 163.618,19.735 L 163.015,19.323 L 162.357,18.678 L 161.882,17.989 L 161.154,18.123 L 160.176,18.243 L 158.45,18.32 L 156.707,18.276 L 151.933,17.997 L 150.672,17.986 L 149.421,18.044 L 148.696,18.147 L 147.747,18.367 L 144.954,19.27 L 144.018,19.538 L 143.067,19.732 L 142.34,19.808 L 141.6,19.805 L 140.882,19.66 L 140.232,19.364 L 139.855,19.088 L 138.16,19.469 L 136.228,20.016 L 132.236,21.333 L 130.627,21.912 L 125.173,24.087 L 124.968,24.543 L 124.833,24.733 L 124.506,25.041 L 124.115,25.252 L 123.9,25.32 L 123.443,25.383 L 122.96,25.346 L 122.228,25.189 L 120.808,24.752 L 119.43,24.199 L 116.261,22.791 L 115.341,22.438 L 114.403,22.139 L 113.926,22.016 L 113.712,22.787 L 113.726,22.601 L 113.688,22.466 L 113.612,22.348 L 113.464,22.234 L 113.283,22.187 L 112.591,22.187 L 112.043,22.07 L 111.529,21.848 L 110.75,21.286 L 110.564,21.258 L 110.382,21.303 L 110.232,21.416 L 110.137,21.577 L 110.428,20.755 L 110.203,20.737 L 110.007,20.65 L 109.838,20.506 L 109.695,20.317 L 109.485,19.861 L 109.342,19.171 L 109.334,17.957 L 109.488,16.479 L 109.979,13.567 L 110.268,12.185 L 110.592,11.042 L 111.107,9.653 L 111.697,8.287 L 112.356,6.954 L 113.211,5.444 L 114.013,4.19 L 115.028,2.776 L 115.965,1.611 L 116.956,0.497 L 117.822,-0.392 L 118.723,-1.242 L 119.658,-2.055 L 120.822,-2.979 L 121.825,-3.705 L 122.857,-4.39 L 123.916,-5.034 L 125.222,-5.751 M 118.142,3.446 L 117.295,4.499 L 116.503,5.594 L 115.767,6.723 L 114.983,8.081 L 114.378,9.278 L 113.836,10.503 L 113.362,11.747 L 113.135,12.477 L 112.904,13.451 L 112.414,16.212 L 112.229,17.518 L 112.169,18.503 L 112.571,18.88 L 112.911,19.357 L 113.52,19.2 L 114.069,19.175 L 114.613,19.255 L 115.485,19.491 L 116.313,19.764 L 117.356,20.165 L 121.384,21.929 L 122.166,22.212 L 122.868,22.417 L 123.224,22.012 L 123.439,21.83 L 123.917,21.534 L 130.085,19.077 L 133.416,17.934 L 135.651,17.219 L 137.464,16.711 L 139.306,16.297 L 139.852,16.244 L 140.399,16.297 L 140.665,16.362 L 141.174,16.567 L 141.738,16.944 L 142.181,16.968 L 142.803,16.893 L 143.509,16.731 L 146.196,15.86 L 147.305,15.542 L 148.214,15.343 L 149.193,15.209 L 150.614,15.143 L 152.005,15.154 L 156.846,15.435 L 158.437,15.476 L 159.917,15.41 L 161.581,15.16 L 162.124,15.155 L 162.658,15.252 L 163.163,15.448 L 163.4,15.581 L 163.622,15.737 L 164.019,16.106 L 164.498,16.796 L 164.729,17.044 L 165.036,17.266 L 165.394,17.424 L 165.87,17.534 L 166.388,17.565 L 168.225,17.426 L 169.231,17.408 L 169.985,17.468 L 170.652,17.581 L 171.83,17.899 L 175.852,19.281 L 177.263,19.793 L 178.275,20.21 L 179.653,20.898 L 180.399,21.355 L 181.002,21.783 L 181.528,22.214 L 182.037,22.696 L 182.439,23.138 L 182.848,23.663 L 183.357,23.838 L 183.608,23.968 L 184.065,24.299 L 184.447,24.713 L 184.762,25.245 L 185.183,25.462 L 186.097,25.796 L 186.414,25.713 L 187.191,25.601 L 187.788,25.444 L 188.364,25.209 L 189.017,24.82 L 189.557,24.354 L 189.959,23.846 L 190.006,23.77 L 190.092,23.293 L 190.299,22.761 L 190.442,22.513 L 190.798,22.066 L 191.237,21.699 L 191.482,21.55 L 192.215,21.216 L 192.777,20.9 L 193.305,20.525 L 193.695,20.186 L 193.652,19.857 L 193.67,19.306 L 193.794,18.769 L 194.019,18.265 L 194.167,18.032 L 194.528,17.615 L 194.962,17.275 L 195.635,16.888 L 196.013,16.527 L 196.189,16.231 L 196.3,15.928 L 196.37,15.585 L 196.385,15.262 L 196.333,14.839 L 196.16,14.341 L 195.95,13.991 L 195.364,13.26 L 195.226,13.004 L 195.03,12.458 L 194.975,12.172 L 194.954,11.592 L 195.177,10.445 L 195.204,9.725 L 195.156,9.275 L 195.06,8.827 L 194.918,8.393 L 194.736,7.987 L 194.51,7.604 L 194.245,7.254 L 193.619,6.667 L 192.971,6.259 L 191.9,5.787 L 191.419,5.482 L 191.009,5.088 L 190.835,4.862 L 190.56,4.365 L 190.39,3.822 L 190.346,3.541 L 190.344,2.973 L 190.386,2.691 L 190.552,2.148 L 190.675,1.891 L 190.967,1.459 L 189.965,1.017 L 188.77,0.584 L 187.549,0.24 L 186.309,-0.013 L 185.056,-0.174 L 184.009,-0.236 L 182.962,-0.233 L 181.402,-0.124 L 181.109,-0.138 L 180.535,-0.256 L 180.26,-0.358 L 179.997,-0.489 L 179.519,-0.826 L 179.067,-1.324 L 178.782,-1.531 L 178.135,-1.949 L 177.465,-2.315 L 176.772,-2.63 L 175.878,-2.953 L 173.813,-3.468 L 173.552,-3.587 L 173.072,-3.9 L 172.858,-4.09 L 172.492,-4.532 L 172.223,-5.037 L 172.061,-5.586 L 172.022,-5.87 L 172.025,-6.362 L 170.689,-6.619 L 168.918,-6.834 L 168.648,-6.898 L 168.133,-7.102 L 167.667,-7.403 L 167.458,-7.585 L 167.099,-8.007 L 166.828,-8.49 L 166.729,-8.749 L 166.656,-9.017 L 166.59,-9.566 L 166.65,-10.203 L 165.259,-10.322 L 163.876,-10.386 L 162.497,-10.395 L 161.122,-10.348 L 158.848,-10.143 L 157.496,-9.943 L 155.647,-9.586 L 155.087,-9.575 L 154.537,-9.672 L 154.271,-9.761 L 153.772,-10.014 L 153.544,-10.177 L 153.141,-10.564 L 152.821,-11.022 L 152.597,-11.534 L 152.458,-11.985 L 151.935,-12.048 L 151.19,-11.97 L 149.664,-11.666 L 147.876,-11.244 L 145.832,-10.705 L 142.393,-9.667 L 139.225,-8.551 L 136.995,-7.665 L 135.017,-6.805 L 133.071,-5.886 L 130.708,-4.679 L 130.462,-4.588 L 129.95,-4.476 L 129.289,-4.474 L 127.754,-3.823 L 126.536,-3.227 L 125.35,-2.576 L 124.198,-1.87 L 123.084,-1.11 L 122.008,-0.298 L 120.974,0.565 L 119.984,1.477 L 119.039,2.438 L 118.142,3.446 M 145.767,100.677 L 145.804,100.67 L 145.842,100.669 L 145.804,100.671 L 145.767,100.677 M 146.097,100.682 L 146.007,100.667 L 145.962,100.666 L 146.031,100.664 L 146.097,100.682 M 145.589,100.71 L 145.59,100.709 L 145.587,100.71 L 145.589,100.71 M 146.231,100.72 L 146.193,100.708 L 146.25,100.723 L 146.302,100.753 L 146.231,100.72 M 145.375,100.751 L 145.372,100.752 L 145.374,100.751 L 145.375,100.751 M 145.16,100.794 L 145.158,100.795 L 145.159,100.794 L 145.16,100.794 M 144.945,100.838 L 144.943,100.838 L 144.944,100.838 L 144.945,100.838 M 146.402,100.809 L 146.451,100.836 L 146.491,100.873 L 146.449,100.838 L 146.402,100.809 M 144.729,100.883 L 144.514,100.927 L 144.729,100.883 M 146.576,100.951 L 146.618,100.99 L 146.65,101.038 L 146.615,100.992 L 146.576,100.951 M 144.113,101.009 L 144.053,101.026 L 144.082,101.015 L 144.113,101.009 M 146.745,101.196 L 146.703,101.118 L 146.74,101.174 L 146.76,101.237 L 146.745,101.196 M 146.793,101.35 L 146.779,101.298 L 146.804,101.376 L 146.801,101.457 L 146.793,101.35 M 147.909,101.87 L 147.909,101.87 L 147.464,101.756 L 147.909,101.87 M 148.354,101.985 L 148.353,101.985 L 148.353,101.985 L 148.354,101.985 M 148.576,102.043 L 148.575,102.043 L 148.575,102.043 L 148.576,102.043 M 148.798,102.102 L 148.797,102.102 L 148.797,102.102 L 148.798,102.102 M 149.021,102.161 L 149.018,102.161 L 149.019,102.161 L 149.021,102.161 M 149.574,102.312 L 149.572,102.312 L 149.573,102.312 L 149.574,102.312 M 144.154,103.419 L 144.157,103.421 L 144.156,103.42 L 144.154,103.419 M 144.35,103.566 L 144.354,103.568 L 144.352,103.567 L 144.35,103.566 M 144.547,103.711 L 144.551,103.713 L 144.549,103.712 L 144.547,103.711 M 144.744,103.853 L 144.748,103.856 L 144.746,103.854 L 144.744,103.853 M 144.942,103.993 L 144.947,103.996 L 144.944,103.994 L 144.942,103.993 M 145.141,104.13 L 145.146,104.133 L 145.144,104.132 L 145.141,104.13 M 145.342,104.264 L 145.347,104.268 L 145.344,104.266 L 145.342,104.264 M 145.544,104.396 L 145.55,104.4 L 145.547,104.398 L 145.544,104.396 M146.806,105.118 L146.802,105.116 L146.808,105.12 Z M147.703,105.522 L147.71,105.525 L147.707,105.524 Z M 147.934,105.613 L 147.932,105.612 L 147.936,105.614 L 147.934,105.613 M149.311,106.107 L149.309,106.106 L149.311,106.107 Z M 149.54,106.181 L 149.544,106.183 L 149.542,106.182 L 149.54,106.181 M150.708,106.525 L150.706,106.524 L150.71,106.525 Z M 150.941,106.586 L 150.945,106.588 L 150.943,106.587 L 150.941,106.586 M151.892,106.814 L151.889,106.813 L151.894,106.814 Z M 152.129,106.865 L 152.133,106.865 L 152.131,106.865 L 152.129,106.865 M 152.85,107.009 L 152.853,107.009 L 152.852,107.009 L 152.85,107.009 M 153.333,107.097 L 153.335,107.097 L 153.334,107.097 L 153.333,107.097 M 153.574,107.139 L 153.577,107.139 L 153.576,107.139 L 153.574,107.139 M 154.3,107.256 L 154.303,107.256 L 154.302,107.256 L 154.3,107.256 M 154.543,107.292 L 154.546,107.292 L 154.545,107.292 L 154.543,107.292 M 155.273,107.391 L 155.275,107.391 L 155.274,107.391 L 155.273,107.391 M 155.516,107.421 L 155.519,107.421 L 155.518,107.421 L 155.516,107.421 M 156.249,107.502 L 156.248,107.502 L 156.251,107.502 L 156.249,107.502 M 156.492,107.526 L 156.495,107.526 L 156.494,107.526 L 156.492,107.526 M 156.737,107.548 L 156.74,107.548 L 156.738,107.548 L 156.737,107.548 M 156.981,107.569 L 156.984,107.569 L 156.983,107.569 L 156.981,107.569 M 162.868,107.608 L 162.871,107.607 L 162.869,107.607 L 162.868,107.608 M 157.716,107.623 L 157.719,107.623 L 157.717,107.623 L 157.716,107.623 M 162.623,107.624 L 162.622,107.624 L 162.624,107.624 L 162.623,107.624 M 157.962,107.638 L 157.961,107.637 L 157.964,107.638 L 157.962,107.638 M 162.375,107.639 L 162.378,107.638 L 162.377,107.639 L 162.375,107.639 M 158.206,107.651 L 158.209,107.651 L 158.207,107.651 L 158.206,107.651 M 162.129,107.652 L 162.132,107.652 L 162.131,107.652 L 162.129,107.652 M 158.451,107.662 L 158.454,107.663 L 158.452,107.662 L 158.451,107.662 M 161.883,107.664 L 161.886,107.664 L 161.884,107.664 L 161.883,107.664 M 158.696,107.673 L 158.699,107.673 L 158.698,107.673 L 158.696,107.673 M 161.638,107.674 L 161.641,107.674 L 161.64,107.674 L 161.638,107.674 M 158.941,107.681 L 158.944,107.681 L 158.943,107.681 L 158.941,107.681 M 161.393,107.682 L 161.396,107.682 L 161.395,107.682 L 161.393,107.682 M 159.187,107.688 L 159.19,107.688 L 159.188,107.688 L 159.187,107.688 M 161.148,107.689 L 161.151,107.689 L 161.15,107.689 L 161.148,107.689 M 159.432,107.694 L 159.435,107.694 L 159.433,107.694 L 159.432,107.694 M 160.903,107.694 L 160.906,107.694 L 160.905,107.694 L 160.903,107.694 M 159.677,107.698 L 159.68,107.698 L 159.679,107.698 L 159.677,107.698 M 160.658,107.698 L 160.661,107.698 L 160.66,107.698 L 160.658,107.698 M 159.924,107.7 L 159.922,107.7 L 159.925,107.7 L 159.924,107.7 M 160.414,107.7 L 160.413,107.701 L 160.416,107.7 L 160.414,107.7 M 160.168,107.701 L 160.171,107.701 L 160.169,107.701 L 160.168,107.701 M 184.927,29.551 L 184.927,29.552 L 184.927,29.551 M 184.958,29.797 L 184.958,29.798 L 184.958,29.797 M 184.798,97.881 L 184.801,97.877 L 184.8,97.879 L 184.798,97.881 M 184.63,98.062 L 184.634,98.059 L 184.632,98.06 L 184.63,98.062 M 184.461,98.242 L 184.464,98.239 L 184.462,98.24 L 184.461,98.242 M 184.289,98.42 L 184.293,98.417 L 184.291,98.419 L 184.289,98.42 M 184.116,98.597 L 184.119,98.594 L 184.118,98.596 L 184.116,98.597 M 183.941,98.772 L 183.944,98.769 L 183.943,98.771 L 183.941,98.772 M 183.765,98.946 L 183.768,98.943 L 183.766,98.944 L 183.765,98.946 M 183.586,99.118 L 183.59,99.115 L 183.588,99.117 L 183.586,99.118 M 183.406,99.289 L 183.409,99.286 L 183.408,99.287 L 183.406,99.289 M 183.225,99.458 L 183.228,99.455 L 183.226,99.456 L 183.225,99.458 M 183.041,99.625 L 183.044,99.622 L 183.043,99.623 L 183.041,99.625 M 182.858,99.789 L 182.856,99.79 L 182.859,99.788 L 182.858,99.789 M 182.671,99.953 L 182.67,99.954 L 182.673,99.952 L 182.671,99.953 M 182.481,100.117 L 182.485,100.114 L 182.483,100.115 L 182.481,100.117 M 182.292,100.278 L 182.295,100.275 L 182.293,100.276 L 182.292,100.278 M 182.1,100.437 L 182.104,100.434 L 182.102,100.435 L 182.1,100.437 M 181.907,100.594 L 181.911,100.591 L 181.909,100.593 L 181.907,100.594 M 181.713,100.75 L 181.716,100.747 L 181.715,100.749 L 181.713,100.75 M 181.517,100.904 L 181.521,100.901 L 181.519,100.903 L 181.517,100.904 M 181.32,101.056 L 181.323,101.054 L 181.321,101.055 L 181.32,101.056 M 181.121,101.207 L 181.124,101.204 L 181.123,101.206 L 181.121,101.207 M 180.921,101.356 L 180.924,101.353 L 180.922,101.355 L 180.921,101.356 M 180.719,101.503 L 180.722,101.501 L 180.721,101.502 L 180.719,101.503 M 180.516,101.648 L 180.519,101.646 L 180.517,101.647 L 180.516,101.648 M 180.311,101.792 L 180.315,101.79 L 180.313,101.791 L 180.311,101.792 M 180.105,101.934 L 180.109,101.932 L 180.107,101.933 L 180.105,101.934 M 179.9,102.073 L 179.903,102.071 L 179.902,102.072 L 179.9,102.073 M 179.694,102.21 L 179.697,102.208 L 179.695,102.209 L 179.694,102.21 M 179.488,102.344 L 179.486,102.345 L 179.489,102.343 L 179.488,102.344 M 179.279,102.478 L 179.277,102.479 L 179.281,102.477 L 179.279,102.478 M 179.068,102.611 L 179.071,102.609 L 179.069,102.61 L 179.068,102.611 M 178.857,102.741 L 178.86,102.739 L 178.858,102.74 L 178.857,102.741 M 178.645,102.869 L 178.648,102.867 L 178.646,102.868 L 178.645,102.869 M 178.432,102.995 L 178.435,102.993 L 178.433,102.994 L 178.432,102.995 M 178.218,103.12 L 178.221,103.118 L 178.219,103.119 L 178.218,103.12 M 178.003,103.243 L 178.006,103.241 L 178.004,103.242 L 178.003,103.243 M 177.787,103.364 L 177.79,103.362 L 177.788,103.363 L 177.787,103.364 M 177.571,103.482 L 177.57,103.483 L 177.573,103.481 L 177.571,103.482 M 177.353,103.6 L 177.352,103.601 L 177.355,103.599 L 177.353,103.6 M 177.133,103.717 L 177.136,103.715 L 177.135,103.716 L 177.133,103.717 M 176.913,103.831 L 176.916,103.829 L 176.915,103.83 L 176.913,103.831 M 176.692,103.943 L 176.696,103.941 L 176.694,103.942 L 176.692,103.943 M 176.471,104.054 L 176.474,104.052 L 176.472,104.053 L 176.471,104.054 M 176.248,104.162 L 176.251,104.161 L 176.25,104.162 L 176.248,104.162 M 176.024,104.27 L 176.028,104.268 L 176.026,104.269 L 176.024,104.27 M 175.8,104.375 L 175.804,104.373 L 175.802,104.374 L 175.8,104.375 M 175.577,104.478 L 175.575,104.479 L 175.578,104.477 L 175.577,104.478 M 175.351,104.58 L 175.349,104.581 L 175.352,104.579 L 175.351,104.58 M 175.122,104.681 L 175.126,104.679 L 175.124,104.68 L 175.122,104.681 M 174.895,104.779 L 174.898,104.778 L 174.896,104.779 L 174.895,104.779 M 174.666,104.876 L 174.67,104.875 L 174.668,104.876 L 174.666,104.876 M 174.437,104.971 L 174.441,104.97 L 174.439,104.971 L 174.437,104.971 M 174.207,105.065 L 174.211,105.064 L 174.209,105.064 L 174.207,105.065 M 173.977,105.157 L 173.98,105.155 L 173.979,105.156 L 173.977,105.157 M 173.746,105.247 L 173.749,105.245 L 173.747,105.246 L 173.746,105.247 M 173.514,105.335 L 173.517,105.334 L 173.515,105.334 L 173.514,105.335 M 173.281,105.422 L 173.284,105.42 L 173.283,105.421 L 173.281,105.422 M 173.048,105.507 L 173.051,105.505 L 173.049,105.506 L 173.048,105.507 M 172.814,105.59 L 172.817,105.589 L 172.815,105.589 L 172.814,105.59 M 172.579,105.671 L 172.582,105.67 L 172.581,105.671 L 172.579,105.671 M 172.344,105.751 L 172.347,105.75 L 172.346,105.751 L 172.344,105.751 M 172.108,105.83 L 172.111,105.829 L 172.11,105.829 L 172.108,105.83 M 171.872,105.906 L 171.875,105.905 L 171.873,105.906 L 171.872,105.906 M 171.637,105.981 L 171.635,105.981 L 171.638,105.98 L 171.637,105.981 M 171.399,106.054 L 171.398,106.055 L 171.401,106.054 L 171.399,106.054 M 171.16,106.126 L 171.163,106.125 L 171.161,106.126 L 171.16,106.126 M 170.921,106.196 L 170.924,106.195 L 170.923,106.196 L 170.921,106.196 M 170.682,106.265 L 170.685,106.264 L 170.684,106.264 L 170.682,106.265 M 170.442,106.331 L 170.446,106.33 L 170.444,106.331 L 170.442,106.331 M 170.203,106.396 L 170.206,106.396 L 170.204,106.396 L 170.203,106.396 M 169.962,106.46 L 169.965,106.459 L 169.964,106.459 L 169.962,106.46 M 169.721,106.522 L 169.724,106.521 L 169.723,106.521 L 169.721,106.522 M 169.482,106.582 L 169.48,106.582 L 169.483,106.581 L 169.482,106.582 M 169.24,106.64 L 169.238,106.641 L 169.241,106.64 L 169.24,106.64 M 168.996,106.697 L 168.999,106.697 L 168.998,106.697 L 168.996,106.697 M 168.754,106.753 L 168.757,106.752 L 168.755,106.752 L 168.754,106.753 M 168.511,106.807 L 168.514,106.806 L 168.513,106.806 L 168.511,106.807 M 168.268,106.859 L 168.271,106.858 L 168.27,106.858 L 168.268,106.859 M 168.025,106.909 L 168.028,106.909 L 168.026,106.909 L 168.025,106.909 M 167.781,106.958 L 167.784,106.958 L 167.782,106.958 L 167.781,106.958 M 167.537,107.006 L 167.54,107.005 L 167.538,107.005 L 167.537,107.006 M 167.294,107.051 L 167.293,107.051 L 167.296,107.051 L 167.294,107.051 M 167.05,107.095 L 167.048,107.095 L 167.051,107.095 L 167.05,107.095 M 166.803,107.138 L 166.806,107.138 L 166.805,107.138 L 166.803,107.138 M 166.558,107.179 L 166.561,107.179 L 166.56,107.179 L 166.558,107.179 M 166.313,107.219 L 166.316,107.218 L 166.315,107.218 L 166.313,107.219 M 166.068,107.256 L 166.071,107.256 L 166.069,107.256 L 166.068,107.256 M 165.822,107.293 L 165.825,107.292 L 165.824,107.292 L 165.822,107.293 M 165.576,107.327 L 165.579,107.327 L 165.578,107.327 L 165.576,107.327 M 165.331,107.361 L 165.334,107.36 L 165.332,107.36 L 165.331,107.361 M 165.085,107.392 L 165.088,107.392 L 165.086,107.392 L 165.085,107.392 M 164.839,107.422 L 164.842,107.422 L 164.84,107.422 L 164.839,107.422 M 164.592,107.451 L 164.595,107.451 L 164.594,107.451 L 164.592,107.451 M 164.346,107.478 L 164.349,107.478 L 164.348,107.478 L 164.346,107.478 M 164.1,107.503 L 164.103,107.503 L 164.101,107.503 L 164.1,107.503 M 163.853,107.527 L 163.856,107.527 L 163.855,107.527 L 163.853,107.527 M 163.607,107.55 L 163.61,107.549 L 163.609,107.549 L 163.607,107.55 M 163.361,107.57 L 163.364,107.57 L 163.362,107.57 L 163.361,107.57 M 163.116,107.59 L 163.114,107.59 L 163.117,107.59 L 163.116,107.59 M 187.109,28.985 L 187.109,28.985 L 187.109,28.984 L 187.109,28.985 M 187.166,29.229 L 187.166,29.228 L 187.166,29.228 L 187.166,29.229 M 187.222,29.473 L 187.222,29.472 L 187.222,29.472 L 187.222,29.473 M 187.278,29.717 L 187.278,29.716 L 187.278,29.716 L 187.278,29.717 M 187.334,29.961 L 187.334,29.96 L 187.334,29.96 L 187.334,29.961 M 184.989,30.043 L 184.989,30.044 L 184.989,30.044 L 184.989,30.043 M 187.389,30.205 L 187.388,30.204 L 187.389,30.204 L 187.389,30.205 M 185.021,30.289 L 185.021,30.29 L 185.021,30.29 L 185.021,30.289 M 187.443,30.449 L 187.443,30.449 L 187.443,30.448 L 187.443,30.449 M 185.053,30.536 L 185.053,30.536 L 185.085,30.782 L 185.053,30.536 M 187.497,30.694 L 187.497,30.693 L 187.497,30.693 L 187.497,30.694 M 185.085,30.782 L 185.117,31.028 L 185.085,30.782 M 187.551,30.938 L 187.551,30.937 L 187.551,30.938 M 185.117,31.028 L 185.15,31.274 L 185.117,31.028 M 187.604,31.183 L 187.604,31.182 L 187.604,31.182 L 187.604,31.183 M 185.15,31.274 L 185.183,31.52 L 185.15,31.274 M 185.183,31.52 L 185.183,31.52 L 185.216,31.766 L 185.183,31.52 M 185.216,31.766 L 185.249,32.012 L 185.216,31.766 M 187.762,31.917 L 187.761,31.916 L 187.762,31.917 M 185.249,32.012 L 185.282,32.257 L 185.249,32.012 M 187.813,32.162 L 187.813,32.161 L 187.813,32.162 M 185.282,32.257 L 185.315,32.503 L 185.282,32.258 L 185.282,32.257 M 187.865,32.407 L 187.865,32.406 L 187.865,32.407 M 185.315,32.503 L 185.349,32.749 L 185.315,32.503 M 185.349,32.749 L 185.382,32.995 L 185.349,32.749 M 187.967,32.897 L 187.966,32.897 L 187.966,32.897 L 187.967,32.897 M 185.382,32.995 L 185.416,33.241 L 185.382,32.995 M 188.017,33.143 L 188.017,33.142 L 188.017,33.142 L 188.017,33.143 M 185.416,33.241 L 185.449,33.487 L 185.416,33.241 M 188.067,33.388 L 188.067,33.387 L 188.067,33.387 L 188.067,33.388 M 185.449,33.487 L 185.483,33.732 L 185.449,33.487 M 188.117,33.633 L 188.117,33.633 L 188.117,33.632 L 188.117,33.633 M 188.216,34.124 L 188.216,34.123 L 188.216,34.123 L 188.216,34.124 M 188.265,34.369 L 188.216,34.124 L 188.265,34.369 M 188.313,34.614 L 188.265,34.369 L 188.313,34.614 M 188.362,34.86 L 188.313,34.614 L 188.362,34.86 M 188.41,35.105 L 188.362,34.86 L 188.41,35.105 M 188.458,35.351 L 188.41,35.105 L 188.458,35.35 L 188.458,35.351 M 188.506,35.596 L 188.458,35.351 L 188.506,35.596 M 188.554,35.841 L 188.506,35.596 L 188.554,35.841 M 188.601,36.087 L 188.554,35.841 L 188.601,36.087 M 188.649,36.332 L 188.601,36.087 L 188.649,36.332 M 188.696,36.577 L 188.649,36.332 L 188.696,36.577 M 188.743,36.823 L 188.696,36.577 L 188.743,36.823 M 188.79,37.068 L 188.743,36.823 L 188.79,37.068 M 188.836,37.313 L 188.79,37.068 L 188.836,37.313 M 188.883,37.558 L 188.836,37.313 L 188.883,37.558 M 188.93,37.803 L 188.93,37.803 L 188.883,37.558 L 188.93,37.803 M 188.976,38.048 L 188.976,38.048 L 188.93,37.803 L 188.976,38.048 M 189.022,38.294 L 188.976,38.048 L 189.022,38.293 L 189.022,38.294 M 189.069,38.539 L 189.068,38.539 L 189.069,38.539 M 189.114,38.785 L 189.114,38.784 L 189.114,38.784 L 189.114,38.785 M 189.205,39.276 L 189.205,39.275 L 189.205,39.276 M 189.25,39.522 L 189.25,39.521 L 189.25,39.521 L 189.25,39.522 M 189.295,39.768 L 189.295,39.767 L 189.295,39.767 L 189.295,39.768 M 189.428,40.505 L 189.427,40.505 L 189.428,40.505 M 189.471,40.752 L 189.471,40.751 L 189.471,40.751 L 189.471,40.752 M 189.514,40.998 L 189.514,40.997 L 189.514,40.997 L 189.514,40.998 M 189.557,41.244 L 189.557,41.243 L 189.557,41.244 M 189.494,90.412 L 189.496,90.407 L 189.495,90.409 L 189.494,90.412 M 189.403,90.642 L 189.405,90.637 L 189.404,90.639 L 189.403,90.642 M 189.31,90.868 L 189.309,90.871 L 189.311,90.866 L 189.31,90.868 M 189.214,91.096 L 189.213,91.098 L 189.215,91.094 L 189.214,91.096 M 189.115,91.325 L 189.117,91.32 L 189.116,91.322 L 189.115,91.325 M 189.014,91.55 L 189.016,91.545 L 189.015,91.548 L 189.014,91.55 M 188.91,91.774 L 188.913,91.77 L 188.912,91.772 L 188.91,91.774 M 188.805,91.997 L 188.807,91.992 L 188.806,91.995 L 188.805,91.997 M 188.697,92.219 L 188.699,92.214 L 188.698,92.216 L 188.697,92.219 M 188.586,92.439 L 188.589,92.434 L 188.588,92.437 L 188.586,92.439 M 188.474,92.658 L 188.476,92.654 L 188.475,92.656 L 188.474,92.658 M 188.36,92.874 L 188.359,92.876 L 188.361,92.871 L 188.36,92.874 M 188.243,93.09 L 188.242,93.092 L 188.244,93.088 L 188.243,93.09 M 188.122,93.308 L 188.125,93.303 L 188.124,93.305 L 188.122,93.308 M 188.001,93.522 L 188.003,93.517 L 188.002,93.519 L 188.001,93.522 M 187.877,93.734 L 187.879,93.73 L 187.878,93.732 L 187.877,93.734 M 187.751,93.946 L 187.753,93.941 L 187.752,93.943 L 187.751,93.946 M 187.623,94.156 L 187.625,94.151 L 187.624,94.153 L 187.623,94.156 M 187.492,94.364 L 187.495,94.36 L 187.494,94.362 L 187.492,94.364 M 187.36,94.572 L 187.363,94.567 L 187.361,94.569 L 187.36,94.572 M 187.227,94.775 L 187.225,94.777 L 187.228,94.773 L 187.227,94.775 M 187.09,94.98 L 187.089,94.982 L 187.091,94.978 L 187.09,94.98 M 186.95,95.185 L 186.953,95.181 L 186.951,95.183 L 186.95,95.185 M 186.809,95.387 L 186.812,95.383 L 186.81,95.385 L 186.809,95.387 M 186.666,95.588 L 186.669,95.584 L 186.667,95.586 L 186.666,95.588 M 186.521,95.787 L 186.524,95.783 L 186.523,95.785 L 186.521,95.787 M 186.374,95.984 L 186.377,95.981 L 186.376,95.982 L 186.374,95.984 M 186.225,96.181 L 186.228,96.177 L 186.227,96.179 L 186.225,96.181 M 186.074,96.375 L 186.077,96.372 L 186.076,96.373 L 186.074,96.375 M 185.922,96.569 L 185.924,96.565 L 185.923,96.567 L 185.922,96.569 M 185.767,96.76 L 185.77,96.757 L 185.768,96.759 L 185.767,96.76 M 185.61,96.951 L 185.613,96.947 L 185.612,96.949 L 185.61,96.951 M 185.451,97.14 L 185.454,97.136 L 185.453,97.138 L 185.451,97.14 M 185.291,97.327 L 185.294,97.324 L 185.292,97.326 L 185.291,97.327 M 185.129,97.513 L 185.132,97.51 L 185.13,97.512 L 185.129,97.513 M 184.964,97.698 L 184.967,97.694 L 184.966,97.696 L 184.964,97.698 M 189.684,41.982 L 189.684,41.983 L 189.684,41.982 M 189.767,42.476 L 189.767,42.475 L 189.767,42.475 L 189.767,42.476 M 189.849,42.969 L 189.848,42.968 L 189.849,42.969 M 189.889,43.216 L 189.889,43.215 L 189.889,43.215 L 189.889,43.216 M 189.969,43.709 L 189.969,43.708 L 189.969,43.709 M 190.008,43.956 L 190.008,43.956 L 190.008,43.955 L 190.008,43.956 M 190.047,44.203 L 190.047,44.203 L 190.047,44.202 L 190.047,44.203 M 190.086,44.45 L 190.086,44.449 L 190.086,44.449 L 190.086,44.45 M 190.124,44.697 L 190.124,44.696 L 190.124,44.696 L 190.124,44.697 M 190.162,44.944 L 190.162,44.943 L 190.162,44.944 M 190.2,45.191 L 190.2,45.19 L 190.2,45.191 M 190.237,45.438 L 190.237,45.437 L 190.237,45.438 M 190.275,45.685 L 190.274,45.685 L 190.274,45.685 L 190.275,45.685 M 190.311,45.933 L 190.311,45.932 L 190.311,45.932 L 190.311,45.933 M 190.348,46.18 L 190.348,46.18 L 190.348,46.179 L 190.348,46.18 M 190.419,46.675 L 190.419,46.674 L 190.419,46.674 L 190.419,46.675 M 190.455,46.922 L 190.455,46.921 L 190.455,46.922 M 190.49,47.17 L 190.49,47.169 L 190.49,47.169 L 190.49,47.17 M 190.559,47.665 L 190.559,47.664 L 190.559,47.664 L 190.559,47.665 M 190.626,48.16 L 190.626,48.159 L 190.626,48.16 M 190.66,48.408 L 190.66,48.407 L 190.66,48.408 M 190.693,48.656 L 190.692,48.655 L 190.693,48.655 L 190.693,48.656 M 190.973,50.888 L 190.973,50.887 L 190.973,50.887 L 190.973,50.888 M 191.002,51.136 L 191.002,51.135 L 191.002,51.135 L 191.002,51.136 M 191.031,51.384 L 191.031,51.383 L 191.031,51.384 M 191.088,51.881 L 191.088,51.88 L 191.088,51.88 L 191.088,51.881 M 191.116,52.129 L 191.116,52.128 L 191.116,52.129 M 191.17,52.625 L 191.17,52.626 L 191.17,52.625 M 191.223,53.123 L 191.223,53.122 L 191.223,53.122 L 191.223,53.123 M 191.275,53.62 L 191.275,53.619 L 191.275,53.619 L 191.275,53.62 M 191.325,54.117 L 191.325,54.116 L 191.325,54.117 M 191.349,54.366 L 191.349,54.365 L 191.349,54.365 L 191.349,54.366 M 191.397,54.863 L 191.397,54.863 L 191.397,54.862 L 191.397,54.863 M 191.42,55.112 L 191.42,55.112 L 191.42,55.111 L 191.42,55.112 M 191.443,55.361 L 191.443,55.36 L 191.443,55.36 L 191.443,55.361 M 191.487,55.859 L 191.487,55.857 L 191.487,55.858 L 191.487,55.859 M 191.55,56.587 L 191.55,56.586 L 191.55,56.586 L 191.55,56.587 M 191.571,56.832 L 191.571,56.831 L 191.571,56.831 L 191.571,56.832 M 191.569,80.466 L 191.569,80.465 L 191.569,80.466 M 191.54,80.713 L 191.54,80.712 L 191.54,80.712 L 191.54,80.713 M 191.511,80.96 L 191.511,80.958 L 191.511,80.959 L 191.511,80.96 M 191.481,81.206 L 191.481,81.205 L 191.481,81.206 M 191.449,81.453 L 191.45,81.451 L 191.45,81.452 L 191.449,81.453 M 191.418,81.699 L 191.418,81.697 L 191.418,81.698 L 191.418,81.699 M 191.385,81.945 L 191.385,81.943 L 191.385,81.944 L 191.385,81.945 M 191.352,82.191 L 191.352,82.189 L 191.352,82.19 L 191.352,82.191 M 191.317,82.437 L 191.318,82.435 L 191.317,82.436 L 191.317,82.437 M 191.282,82.682 L 191.282,82.681 L 191.282,82.681 L 191.282,82.682 M 191.247,82.927 L 191.246,82.927 L 191.247,82.926 L 191.247,82.927 M 191.21,83.172 L 191.21,83.173 L 191.21,83.171 L 191.21,83.172 M 191.172,83.417 L 191.173,83.416 L 191.172,83.417 M 191.134,83.662 L 191.134,83.661 L 191.134,83.661 L 191.134,83.662 M 191.095,83.907 L 191.095,83.905 L 191.095,83.906 L 191.095,83.907 M 191.055,84.151 L 191.055,84.149 L 191.055,84.15 L 191.055,84.151 M 191.014,84.395 L 191.014,84.394 L 191.014,84.394 L 191.014,84.395 M 190.972,84.639 L 190.973,84.637 L 190.973,84.638 L 190.972,84.639 M 190.93,84.883 L 190.93,84.881 L 190.93,84.882 L 190.93,84.883 M 190.887,85.125 L 190.887,85.126 L 190.887,85.125 M 190.843,85.369 L 190.842,85.37 L 190.843,85.368 L 190.843,85.369 M 190.797,85.613 L 190.798,85.611 L 190.797,85.612 L 190.797,85.613 M 190.751,85.855 L 190.752,85.854 L 190.751,85.855 M 190.704,86.098 L 190.705,86.096 L 190.705,86.097 L 190.704,86.098 M 190.657,86.34 L 190.657,86.339 L 190.657,86.34 M 190.608,86.583 L 190.609,86.581 L 190.608,86.582 L 190.608,86.583 M 190.558,86.825 L 190.559,86.822 L 190.559,86.824 L 190.558,86.825 M 190.506,87.073 L 190.507,87.067 L 190.506,87.07 L 190.506,87.073 M 190.451,87.316 L 190.451,87.318 L 190.452,87.313 L 190.451,87.316 M 190.393,87.56 L 190.393,87.563 L 190.394,87.558 L 190.393,87.56 M 190.332,87.806 L 190.333,87.801 L 190.333,87.804 L 190.332,87.806 M 190.269,88.049 L 190.27,88.043 L 190.27,88.046 L 190.269,88.049 M 190.203,88.29 L 190.204,88.285 L 190.204,88.287 L 190.203,88.29 M 190.135,88.53 L 190.136,88.525 L 190.135,88.528 L 190.135,88.53 M 190.063,88.769 L 190.065,88.764 L 190.064,88.767 L 190.063,88.769 M 189.99,89.007 L 189.991,89.002 L 189.991,89.005 L 189.99,89.007 M 189.914,89.244 L 189.915,89.239 L 189.914,89.242 L 189.914,89.244 M 189.835,89.48 L 189.836,89.475 L 189.836,89.477 L 189.835,89.48 M 189.753,89.715 L 189.755,89.71 L 189.754,89.712 L 189.753,89.715 M 189.67,89.948 L 189.671,89.943 L 189.67,89.946 L 189.67,89.948 M 189.583,90.181 L 189.585,90.176 L 189.584,90.178 L 189.583,90.181 M 191.611,57.323 L 191.611,57.322 L 191.611,57.322 L 191.611,57.323 M 191.707,58.553 L 191.707,58.552 L 191.707,58.553 M 191.761,59.293 L 191.761,59.292 L 191.761,59.293 M 191.779,59.54 L 191.779,59.539 L 191.779,59.54 M 191.813,60.035 L 191.813,60.034 L 191.813,60.034 L 191.813,60.035 M 191.829,60.282 L 191.829,60.282 L 191.829,60.281 L 191.829,60.282 M 191.845,60.529 L 191.845,60.53 L 191.845,60.529 M 191.92,61.77 L 191.92,61.769 L 191.92,61.769 L 191.92,61.77 M 191.934,62.018 L 191.934,62.017 L 191.934,62.018 M 191.961,62.515 L 191.961,62.515 L 191.961,62.514 L 191.961,62.515 M 191.974,62.763 L 191.974,62.764 L 191.974,62.763 M 192.032,64.009 L 192.032,64.008 L 192.032,64.008 L 192.032,64.009 M 192.042,64.258 L 192.042,64.257 L 192.042,64.257 L 192.042,64.258 M 192.052,64.507 L 192.052,64.506 L 192.052,64.507 M 192.07,65.006 L 192.07,65.005 L 192.07,65.006 M 192.087,65.505 L 192.087,65.504 L 192.087,65.505 M 192.095,65.755 L 192.095,65.754 L 192.095,65.754 L 192.095,65.755 M 192.109,66.254 L 192.109,66.253 L 192.109,66.254 M 192.115,66.504 L 192.115,66.503 L 192.115,66.504 M 192.121,66.753 L 192.121,66.754 L 192.121,66.753 M 192.127,67.003 L 192.127,67.004 L 192.127,67.003 M 192.132,67.254 L 192.132,67.253 L 192.132,67.253 L 192.132,67.254 M 192.136,67.504 L 192.136,67.503 L 192.136,67.503 L 192.136,67.504 M 192.14,67.754 L 192.14,67.753 L 192.14,67.753 L 192.14,67.754 M 192.144,68.004 L 192.144,68.003 L 192.144,68.003 L 192.144,68.004 M 192.146,68.254 L 192.146,68.253 L 192.146,68.254 M 192.149,68.504 L 192.149,68.503 L 192.149,68.504 M 192.151,68.754 L 192.151,68.753 L 192.151,68.754 M 192.152,69.004 L 192.152,69.004 L 192.152,69.003 L 192.152,69.004 M 192.153,69.254 L 192.153,69.255 L 192.153,69.254 M 192.154,69.505 L 192.154,69.504 L 192.154,69.504 L 192.154,69.505 M 192.153,69.755 L 192.153,69.754 L 192.153,69.754 L 192.153,69.755 M 192.153,70.005 L 192.153,70.004 L 192.153,70.005 M 192.152,70.255 L 192.152,70.254 L 192.152,70.255 M 192.15,70.505 L 192.15,70.504 L 192.15,70.505 M 192.147,70.756 L 192.147,70.755 L 192.147,70.755 L 192.147,70.756 M 192.144,71.006 L 192.145,71.005 L 192.144,71.005 L 192.144,71.006 M 192.141,71.255 L 192.141,71.256 L 192.141,71.255 M 192.137,71.505 L 192.137,71.506 L 192.137,71.505 M 192.132,71.756 L 192.132,71.755 L 192.132,71.755 L 192.132,71.756 M 192.127,72.006 L 192.127,72.005 L 192.127,72.006 M 192.121,72.256 L 192.121,72.255 L 192.121,72.256 M 192.115,72.506 L 192.115,72.505 L 192.115,72.506 M 192.108,72.756 L 192.108,72.755 L 192.108,72.755 L 192.108,72.756 M 192.101,73.006 L 192.101,73.005 L 192.101,73.005 L 192.101,73.006 M 192.092,73.256 L 192.092,73.255 L 192.092,73.255 L 192.092,73.256 M 192.084,73.506 L 192.084,73.504 L 192.084,73.505 L 192.084,73.506 M 192.074,73.755 L 192.074,73.754 L 192.074,73.755 M 192.064,74.005 L 192.064,74.004 L 192.064,74.005 M 192.054,74.255 L 192.054,74.254 L 192.054,74.254 L 192.054,74.255 M 192.042,74.504 L 192.042,74.503 L 192.042,74.504 M 192.03,74.754 L 192.031,74.753 L 192.031,74.753 L 192.03,74.754 M 192.018,75.003 L 192.018,75.002 L 192.018,75.003 M 192.005,75.253 L 192.005,75.252 L 192.005,75.252 L 192.005,75.253 M 191.991,75.501 L 191.991,75.502 L 191.991,75.501 M 191.976,75.751 L 191.976,75.751 L 191.976,75.75 L 191.976,75.751 M 191.961,76.0 L 191.961,75.999 L 191.961,76.0 M 191.945,76.249 L 191.946,76.248 L 191.945,76.249 M 191.929,76.498 L 191.929,76.497 L 191.929,76.498 M 191.912,76.747 L 191.912,76.746 L 191.912,76.747 M 191.894,76.996 L 191.894,76.995 L 191.894,76.995 L 191.894,76.996 M 191.875,77.245 L 191.875,77.243 L 191.875,77.244 L 191.875,77.245 M 191.856,77.493 L 191.856,77.492 L 191.856,77.493 M 191.836,77.741 L 191.836,77.742 L 191.836,77.74 L 191.836,77.741 M 191.816,77.989 L 191.815,77.99 L 191.816,77.989 M 191.794,78.238 L 191.794,78.237 L 191.794,78.238 M 191.772,78.486 L 191.772,78.485 L 191.772,78.486 M 191.749,78.734 L 191.749,78.733 L 191.749,78.734 M 191.726,78.982 L 191.726,78.981 L 191.726,78.981 L 191.726,78.982 M 191.701,79.23 L 191.702,79.228 L 191.702,79.229 L 191.701,79.23 M 191.676,79.477 L 191.677,79.476 L 191.677,79.477 L 191.676,79.477 M 191.651,79.725 L 191.651,79.723 L 191.651,79.724 L 191.651,79.725 M 191.624,79.971 L 191.624,79.972 L 191.624,79.971 M 191.597,80.219 L 191.597,80.219 L 191.597,80.218 L 191.597,80.219" id="🖍-Hair-Ink" fill="#000000" fill-rule="evenodd"></path>
</g>
</svg>
