<?xml version="1.0" encoding="UTF-8"?>
<svg xmlns="http://www.w3.org/2000/svg" viewBox="-9 -6 321 660">
<g stroke="none" stroke-width="1" fill="none" fill-rule="evenodd">
<path d="M80,89.977 L79.862,88.831 L79.536,86.735 L79.162,84.875 L77.986,79.559 L77.749,78.167 L77.618,77.004 L77.563,75.37 L77.666,73.737 L77.953,71.88 L78.377,70.04 L78.761,68.674 L79.268,67.097 L79.835,65.539 L80.366,64.222 L81.04,62.708 L81.664,61.432 L82.331,60.178 L83.041,58.947 L83.923,57.545 L84.724,56.372 L85.566,55.227 L86.448,54.114 L87.525,52.854 L88.489,51.81 L89.49,50.801 L90.525,49.828 L91.595,48.893 L92.698,47.996 L94.799,46.456 L95.987,45.676 L97.203,44.939 L98.444,44.245 L99.708,43.594 L100.994,42.988 L102.301,42.425 L104.966,41.43 L107.691,40.613 L109.072,40.271 L110.696,39.93 L112.098,39.686 L113.743,39.46 L116.578,39.219 L119.423,39.162 L122.265,39.292 L123.681,39.428 L125.092,39.612 L126.495,39.845 L127.888,40.129 L130.411,40.782 L131.767,41.21 L133.106,41.688 L134.862,42.401 L136.794,43.304 L138.469,44.193 L140.3,45.285 L141.877,46.336 L143.592,47.604 L145.238,48.958 L146.813,50.396 L148.313,51.91 L149.736,53.497 L151.078,55.153 L152.331,56.876 L153.484,58.666 L154.415,60.313 L155.25,62.009 L155.984,63.751 L156.768,65.981 L158.294,70.931 L160.059,76.038 L160.77,78.294 L161.397,80.544 L161.44,80.544 L161.905,82.913 L162.316,85.377 L163.575,94.567 L165.205,108.322 L165.421,110.798 L165.506,112.773 L165.48,114.746 L165.341,116.477 L165.071,118.205 L164.666,119.886 L164.132,121.528 L163.484,123.128 L162.848,124.47 L162.149,125.783 L161.264,127.272 L160.32,128.714 L159.043,130.514 L157.708,132.28 L156.317,134.006 L154.87,135.684 L153.537,137.129 L152.325,138.365 L151.055,139.571 L149.74,140.727 L148.379,141.825 L147.176,142.714 L145.732,143.686 L144.461,144.456 L143.154,145.164 L141.816,145.805 L140.447,146.375 L139.046,146.868 L137.615,147.28 L136.395,147.559 L134.907,147.811 L133.66,147.948 L132.178,148.017 L130.934,147.997 L129.442,147.879 L128.206,147.7 L126.985,147.448 L125.791,147.121 L124.628,146.717 L123.329,146.179 L122.212,145.642 L121.323,145.154 L120.466,144.612 L119.852,144.17 L119.087,143.527 L118.645,143.096 L116.149,142.265 L114.343,141.565 L112.835,140.91 L111.142,140.084 L109.757,139.323 L108.028,138.234 L106.44,137.051 L105.034,135.788 L103.97,134.618 L103.413,133.881 L101.429,132.082 L100.387,131.066 L99.232,129.828 L98.132,128.534 L97.08,127.16 L96.099,125.72 L95.336,124.445 L94.652,123.128 L94.055,121.765 L93.56,120.368 L93.408,119.815 L93.361,119.754 L93.226,119.715 L93.142,119.748 L92.841,120.388 L92.41,120.965 L91.895,121.454 L91.315,121.865 L90.455,122.279 L89.771,122.479 L89.019,122.597 L88.273,122.618 L87.545,122.547 L86.608,122.308 L85.947,122.026 L85.326,121.657 L84.751,121.202 L84.226,120.661 L83.772,120.055 L83.406,119.42 L83.112,118.751 L82.879,118.041 L82.671,117.077 L82.581,116.332 L82.547,115.344 L82.699,113.262 L81.359,112.485 L80.338,111.759 L79.227,110.769 L78.726,110.23 L78.262,109.658 L77.45,108.428 L77.105,107.778 L76.804,107.105 L76.548,106.415 L76.339,105.71 L76.101,104.51 L76.028,103.784 L76.008,103.054 L76.102,101.833 L76.359,100.631 L76.593,99.928 L76.879,99.245 L77.217,98.581 L77.598,97.95 L78.024,97.346 L78.493,96.776 L79,96.244 L79.543,95.756 L80.328,95.137 L80.536,94.87 L80.561,94.582 L80.765,94.316 L80.498,93.246 Z" id="🎨-Background" fill="#FFFFFF" fill-rule="evenodd"></path>
<path d="M80.339,92.244 L80.054,90.445 L79.862,88.831 L79.536,86.735 L79.162,84.875 L77.986,79.559 L77.749,78.167 L77.618,77.004 L77.563,75.37 L77.666,73.737 L77.909,72.112 L78.318,70.269 L78.693,68.901 L79.192,67.321 L79.75,65.761 L80.275,64.44 L80.94,62.922 L81.557,61.643 L82.216,60.385 L82.919,59.151 L83.793,57.743 L84.587,56.565 L85.423,55.416 L86.298,54.297 L87.212,53.209 L88.164,52.154 L89.152,51.134 L90.176,50.149 L91.235,49.2 L92.327,48.29 L94.41,46.726 L95.588,45.931 L96.795,45.18 L98.027,44.471 L99.284,43.806 L100.563,43.185 L101.863,42.608 L104.517,41.584 L107.233,40.736 L108.61,40.38 L110.231,40.021 L113.037,39.549 L114.686,39.359 L116.104,39.246 L118.948,39.159 L121.792,39.257 L123.21,39.377 L124.622,39.545 L126.028,39.762 L127.425,40.029 L128.811,40.347 L130.184,40.716 L131.542,41.135 L132.884,41.605 L134.645,42.308 L136.582,43.199 L138.469,44.193 L140.3,45.285 L141.877,46.336 L143.592,47.604 L145.238,48.958 L146.813,50.396 L148.313,51.91 L149.736,53.497 L151.078,55.153 L152.331,56.876 L153.484,58.666 L154.415,60.313 L155.25,62.009 L155.984,63.751 L156.768,65.981 L158.294,70.931 L160.059,76.038 L160.77,78.294 L161.397,80.544 L161.44,80.544 L161.905,82.913 L162.316,85.376 L163.575,94.566 L165.205,108.323 L165.421,110.796 L165.506,112.774 L165.48,114.749 L165.341,116.476 L165.072,118.201 L164.666,119.887 L164.132,121.527 L163.484,123.129 L162.848,124.471 L162.149,125.782 L161.264,127.271 L160.32,128.714 L159.043,130.514 L157.708,132.28 L156.317,134.006 L154.87,135.684 L153.537,137.129 L152.325,138.365 L151.055,139.571 L149.74,140.727 L148.379,141.825 L147.177,142.714 L145.733,143.686 L144.46,144.456 L143.155,145.164 L141.817,145.805 L140.448,146.375 L139.047,146.868 L137.614,147.28 L136.396,147.559 L134.906,147.811 L133.661,147.948 L132.179,148.017 L130.935,147.997 L129.441,147.879 L128.205,147.7 L126.986,147.448 L125.79,147.121 L124.627,146.717 L123.331,146.18 L122.211,145.642 L121.324,145.154 L120.465,144.612 L119.851,144.169 L119.086,143.526 L118.563,143.004 L118.093,142.446 L117.683,141.853 L117.341,141.222 L117.075,140.553 L116.895,139.822 L116.881,139.313 L116.968,138.837 L117.144,138.402 L117.399,138.017 L117.903,137.551 L118.52,137.243 L118.975,137.14 L119.452,137.129 L119.695,137.16 L120.184,137.301 L120.875,137.666 L121.685,138.218 L123.619,139.856 L124.445,140.39 L125.296,140.87 L126.117,141.251 L127.189,141.634 L128.391,141.958 L129.596,142.19 L130.574,142.308 L131.807,142.371 L133.047,142.343 L134.287,142.225 L135.52,142.019 L136.74,141.725 L137.941,141.349 L139.109,140.901 L140.244,140.386 L141.562,139.688 L142.836,138.91 L144.068,138.061 L145.258,137.148 L146.599,136.016 L147.89,134.823 L149.136,133.583 L150.674,131.942 L152.312,130.085 L153.743,128.373 L155.113,126.611 L156.26,124.995 L157.195,123.535 L158.059,122.023 L158.714,120.671 L159.09,119.757 L159.491,118.601 L159.758,117.664 L160.024,116.476 L160.184,115.512 L160.318,114.289 L160.373,113.295 L160.378,112.041 L160.306,110.075 L160.155,107.862 L159.141,97.265 L158.661,91.533 L158.308,86.794 L158.132,82.662 L157.908,81.453 L157.562,79.957 L156.533,76.235 L155.847,74.031 L154.834,71.038 L153.533,66.783 L152.726,64.552 L152.045,62.999 L151.273,61.487 L150.411,60.012 L149.34,58.396 L148.307,57 L147.062,55.482 L145.741,54.025 L144.35,52.636 L142.892,51.321 L141.371,50.084 L139.789,48.928 L138.335,47.971 L136.649,46.979 L135.109,46.173 L133.336,45.358 L131.726,44.715 L129.881,44.089 L128.006,43.566 L126.102,43.148 L124.172,42.833 L122.22,42.618 L120.255,42.501 L118.285,42.481 L116.096,42.572 L114.133,42.755 L111.966,43.071 L110.032,43.456 L108.12,43.934 L106.027,44.575 L104.176,45.248 L102.364,46.012 L100.596,46.864 L98.879,47.804 L97.218,48.832 L95.791,49.82 L94.243,51.011 L92.761,52.284 L91.348,53.635 L90.009,55.06 L88.746,56.553 L87.564,58.112 L86.465,59.73 L85.453,61.404 L84.528,63.131 L83.691,64.908 L82.939,66.729 L82.274,68.586 L81.706,70.461 L81.344,71.908 L81.075,73.317 L80.934,74.479 L80.886,75.607 L80.906,76.355 L80.99,77.31 L81.335,79.353 L81.546,86.368 L81.47,89.168 L81.47,90.71 L81.51,91.121 L81.628,91.516 L81.82,91.88 L82.231,92.342 L82.571,92.576 L83.149,92.794 L83.766,92.838 L85.43,92.516 L86.65,92.446 L87.388,92.493 L87.909,92.569 L88.901,92.819 L89.75,93.202 L90.335,93.613 L90.813,94.102 L90.894,94.294 L90.916,94.501 L90.877,94.705 L90.737,94.944 L90.577,95.078 L90.385,95.16 L89.189,95.202 L87.981,95.377 L86.836,95.657 L85.754,96.054 L84.69,96.588 L84.346,96.794 L84.401,96.842 L83.834,97.044 L82.972,97.512 L82.563,97.81 L82.002,98.31 L81.665,98.674 L81.214,99.263 L80.952,99.679 L80.62,100.335 L80.362,101.021 L80.233,101.492 L80.105,102.211 L80.066,102.697 L80.1,103.672 L80.29,104.638 L80.642,105.577 L81.14,106.454 L81.732,107.23 L82.412,107.908 L83.179,108.494 L83.81,108.876 L85.197,109.571 L85.785,109.946 L86.305,110.413 L86.739,111.004 L87.032,111.649 L87.192,112.311 L87.254,113.224 L87.184,114.842 L87.207,115.751 L87.377,116.638 L87.49,116.974 L87.657,117.311 L88.091,117.766 L88.216,117.804 L88.646,117.791 L88.908,117.604 L89.175,117.28 L89.493,117.007 L89.968,116.759 L90.357,116.469 L90.796,116.337 L91.025,116.323 L91.483,116.391 L91.919,116.569 L92.303,116.839 L92.607,117.181 L92.975,117.838 L93.185,118.497 L93.235,118.935 L93.369,118.835 L93.522,118.892 L97.142,123.46 L98.427,124.981 L99.595,126.277 L101.153,127.862 L102.968,129.508 L104.471,130.73 L105.952,131.708 L106.591,132.175 L106.976,132.513 L107.307,132.878 L107.667,133.485 L107.79,133.936 L107.81,134.177 L107.79,134.407 L107.623,134.804 L107.323,135.111 L107.137,135.23 L106.726,135.389 L106.513,135.426 L106.08,135.419 L105.416,135.239 L104.972,135.027 L104.533,134.759 L103.482,133.943 L101.429,132.082 L100.388,131.068 L99.232,129.829 L98.131,128.532 L97.078,127.158 L96.1,125.722 L95.336,124.444 L94.651,123.125 L94.055,121.766 L93.56,120.367 L93.231,119.174 L93.115,119.786 L92.843,120.386 L92.409,120.967 L91.894,121.456 L91.313,121.866 L90.457,122.278 L89.773,122.479 L89.017,122.597 L88.271,122.618 L87.543,122.547 L86.61,122.309 L85.949,122.027 L85.327,121.658 L84.752,121.203 L84.229,120.666 L83.775,120.06 L83.407,119.422 L83.11,118.747 L82.879,118.043 L82.67,117.073 L82.581,116.333 L82.547,115.343 L82.628,113.919 L82.725,113.256 L81.36,112.486 L80.339,111.76 L79.228,110.77 L78.727,110.231 L78.263,109.659 L77.45,108.429 L77.105,107.777 L76.804,107.104 L76.548,106.414 L76.339,105.709 L76.101,104.511 L76.028,103.783 L76.008,103.052 L76.101,101.835 L76.358,100.633 L76.593,99.927 L76.879,99.244 L77.215,98.584 L77.597,97.951 L78.023,97.347 L78.492,96.777 L78.999,96.245 L79.544,95.755 L80.328,95.137 L80.577,94.811 L80.823,94.249 L80.894,93.845 L80.851,93.233 L80.636,92.658 Z M90.575,108.732 L89.929,107.485 L89.533,106.868 L89.08,106.312 L88.394,105.607 L87.843,105.113 L87.27,104.658 L86.471,104.108 L85.63,103.615 L84.745,103.172 L84.609,103.012 L84.61,102.797 L84.745,102.635 L85.434,102.351 L86.146,102.154 L86.873,102.043 L87.854,102.02 L88.59,102.092 L89.556,102.301 L90.49,102.632 L91.246,103.001 L92.283,103.652 L93.091,104.293 L93.822,105.025 L94.289,105.624 L94.662,106.259 L94.919,106.924 L95.039,107.612 L94.999,108.316 L94.861,108.812 L94.75,109.049 L94.457,109.452 L94.087,109.764 L93.878,109.884 L93.427,110.053 L92.944,110.124 L92.449,110.095 L91.96,109.966 L91.723,109.862 L91.297,109.595 L90.962,109.279 Z" id="🖍-Ink" fill="#000000" fill-rule="evenodd"></path>
</g>
</svg>
