<?xml version="1.0" encoding="UTF-8"?>
<svg xmlns="http://www.w3.org/2000/svg" viewBox="-24 -36 305 728">
<g stroke="none" stroke-width="1" fill="none" fill-rule="evenodd">
<path d="M 114.186,66.778 L 113.741,65.131 L 112.759,60.72 L 112.313,58.552 L 111.972,56.623 L 111.698,54.697 L 111.505,52.778 L 111.413,51.107 L 111.401,49.448 L 111.498,47.569 L 111.689,45.942 L 112.04,44.103 L 112.473,42.514 L 112.945,41.167 L 113.598,39.648 L 114.344,38.234 L 115.121,37.094 L 115.439,36.56 L 115.718,35.918 L 115.859,35.324 L 115.888,34.915 L 115.839,34.356 L 115.69,33.784 L 115.406,33.14 L 115.059,32.569 L 114.653,32.022 L 113.193,30.368 L 112.739,29.792 L 112.506,29.356 L 112.311,28.846 L 112.225,28.512 L 112.164,28.029 L 112.205,27.429 L 112.385,26.874 L 112.729,26.343 L 113.182,25.904 L 113.35,25.689 L 113.519,25.317 L 113.569,25.049 L 113.567,24.777 L 113.513,24.509 L 113.008,23.361 L 112.778,22.447 L 112.721,21.891 L 112.726,21.338 L 112.875,20.434 L 113.206,19.567 L 113.393,19.233 L 113.73,18.754 L 114.391,18.064 L 115.168,17.501 L 115.678,17.233 L 116.212,17.023 L 116.764,16.873 L 117.303,16.789 L 117.88,16.761 L 118.494,16.788 L 119.117,16.871 L 120.03,17.061 L 120.456,17.021 L 120.85,16.857 L 123.825,14.253 L 126.289,12.25 L 129.029,10.205 L 131.854,8.283 L 134.76,6.489 L 137.743,4.829 L 140.579,3.411 L 143.702,2.018 L 146.426,0.925 L 149.19,-0.074 L 151.988,-0.981 L 154.818,-1.793 L 157.676,-2.512 L 160.558,-3.138 L 163.459,-3.669 L 166.621,-4.139 L 170.043,-4.521 L 173.475,-4.775 L 176.912,-4.901 L 180.349,-4.899 L 183.778,-4.768 L 187.194,-4.508 L 190.847,-4.09 L 194.24,-3.574 L 198.087,-2.832 L 201.658,-1.986 L 205.188,-0.989 L 208.67,0.16 L 212.508,1.611 L 213.366,1.975 L 214.165,2.37 L 214.886,2.805 L 215.517,3.293 L 216.051,3.845 L 216.373,4.303 L 216.549,4.626 L 216.755,5.131 L 216.887,5.652 L 216.944,6.18 L 216.925,6.706 L 216.829,7.226 L 216.653,7.734 L 216.486,8.067 L 216.061,8.696 L 215.378,9.408 L 214.898,9.789 L 214.194,10.234 L 213.628,10.516 L 212.894,10.813 L 212.653,10.962 L 212.447,11.156 L 212.282,11.386 L 212.129,11.781 L 212.095,12.062 L 212.118,12.344 L 212.196,12.616 L 212.326,12.868 L 212.504,13.088 L 213.715,14.201 L 214.144,14.667 L 214.377,15.005 L 214.462,15.219 L 214.51,15.527 L 214.473,15.814 L 214.348,16.089 L 213.89,16.589 L 213.062,17.328 L 212.355,17.869 L 211.423,18.477 L 210.039,19.194 L 209.005,19.606 L 207.795,19.976 L 207.541,20.102 L 207.318,20.276 L 207.057,20.611 L 206.944,20.87 L 206.884,21.147 L 206.88,21.43 L 206.988,22.135 L 207.017,22.693 L 206.992,23.261 L 206.911,23.832 L 206.65,24.769 L 206.221,25.673 L 205.893,26.149 L 205.519,26.572 L 205.099,26.948 L 204.633,27.282 L 204.12,27.577 L 203.564,27.833 L 202.339,28.233 L 201.229,28.457 L 199.834,28.606 L 198.422,28.645 L 196.789,28.588 L 196.516,28.623 L 196.132,28.773 L 195.807,29.025 L 195.568,29.36 L 195.457,29.656 L 194.816,30.008 L 194.545,30.079 L 194.264,30.096 L 193.985,30.057 L 193.596,29.899 L 192.865,29.305 L 192.945,27.609 L 192.929,27.338 L 192.862,27.074 L 192.669,26.714 L 192.383,26.423 L 192.025,26.226 L 191.626,26.138 L 191.218,26.167 L 188.258,26.723 L 185.366,27.14 L 182.178,27.513 L 178.736,27.818 L 175.534,28.011 L 172.08,28.122 L 168.872,28.135 L 165.418,28.052 L 162.46,27.901 L 159.282,27.656 L 156.124,27.335 L 152.73,26.911 L 147.892,26.187 L 143.157,25.354 L 140.351,24.781 L 136.702,23.86 L 136.433,23.843 L 136.165,23.876 L 135.788,24.019 L 135.565,24.171 L 135.375,24.362 L 134.864,25.133 L 134.319,26.105 L 133.752,27.343 L 133.382,28.368 L 133.088,29.418 L 132.873,30.488 L 132.741,31.573 L 132.699,32.393 L 132.706,33.216 L 132.767,34.024 L 132.895,34.853 L 133.281,36.417 L 134.224,39.449 L 134.427,40.299 L 134.528,40.914 L 134.581,41.708 L 134.553,42.291 L 134.453,42.89 L 134.278,43.45 L 133.957,44.06 L 133.536,44.57 L 133.002,45.015 L 132.351,45.41 L 131.181,45.92 L 127.938,46.925 L 127.18,47.285 L 126.676,47.681 L 126.31,48.122 L 126.086,48.531 L 125.904,49.064 L 125.826,49.455 L 125.741,50.237 L 125.714,51.588 L 125.945,55.277 L 126.143,60.15 L 126.248,64.196 L 125.973,64.358 L 125.507,64.717 L 125.25,64.829 L 124.977,64.889 L 124.697,64.894 L 124.173,64.815 L 123.93,64.595 L 123.683,64.454 L 123.412,64.364 L 123.128,64.331 L 122.298,64.344 L 121.666,64.407 L 120.846,64.559 L 120.231,64.727 L 119.123,65.158 L 118.078,65.731 L 116.92,66.562 L 116.011,67.408 L 115.267,67.388 L 114.995,67.329 L 114.623,67.145 L 114.186,66.778" id="🎨-Hair" fill="#000000" fill-rule="evenodd"></path>
<path d="M 112.551,68.243 L 112.554,68.238 L 112.556,68.234 L 112.551,68.243 M 112.427,68.443 L 112.422,68.451 L 112.425,68.447 L 112.427,68.443 M 112.302,68.655 L 112.297,68.663 L 112.3,68.659 L 112.302,68.655 M 112.181,68.869 L 112.177,68.878 L 112.179,68.874 L 112.181,68.869 M 112.065,69.087 L 112.061,69.095 L 112.063,69.091 L 112.065,69.087 M 111.953,69.306 L 111.949,69.315 L 111.951,69.311 L 111.953,69.306 M 111.845,69.529 L 111.841,69.537 L 111.843,69.533 L 111.845,69.529 M 111.742,69.753 L 111.738,69.762 L 111.74,69.757 L 111.742,69.753 M 111.642,69.98 L 111.639,69.989 L 111.641,69.984 L 111.642,69.98 M 111.548,70.209 L 111.544,70.218 L 111.546,70.213 L 111.548,70.209 M 111.457,70.44 L 111.454,70.449 L 111.455,70.444 L 111.457,70.44 M 111.371,70.673 L 111.368,70.682 L 111.369,70.677 L 111.371,70.673 M 111.289,70.908 L 111.286,70.917 L 111.288,70.912 L 111.289,70.908 M 111.212,71.145 L 111.209,71.153 L 111.21,71.149 L 111.212,71.145 M 111.138,71.383 L 111.136,71.391 L 111.137,71.387 L 111.138,71.383 M 116.466,71.985 L 116.391,72.007 L 115.78,71.67 L 115.233,71.266 L 115.323,71.125 L 115.359,70.958 L 115.862,71.468 L 116.448,71.91 L 116.466,71.985 M 111.07,71.623 L 111.067,71.631 L 111.068,71.627 L 111.07,71.623 M 111.005,71.864 L 111.003,71.872 L 111.004,71.868 L 111.005,71.864 M 110.945,72.107 L 110.943,72.115 L 110.944,72.111 L 110.945,72.107 M 110.89,72.35 L 110.888,72.359 L 110.889,72.355 L 110.89,72.35 M 118.663,72.495 L 118.651,72.502 L 118.657,72.498 L 118.663,72.495 M 118.46,72.621 L 118.449,72.628 L 118.454,72.624 L 118.46,72.621 M 118.259,72.754 L 118.248,72.761 L 118.253,72.757 L 118.259,72.754 M 118.06,72.893 L 118.049,72.901 L 118.054,72.897 L 118.06,72.893 M 117.922,73.041 L 117.868,73.17 L 117.883,73.445 L 118.049,73.666 L 118.172,73.731 L 118.356,73.757 L 117.474,73.854 L 117.307,73.812 L 117.215,73.676 L 117.277,73.519 L 118.046,72.903 L 117.922,73.041 M 110.603,74.333 L 110.603,74.341 L 110.603,74.337 L 110.603,74.333 M 110.587,74.583 L 110.587,74.591 L 110.587,74.587 L 110.587,74.583 M 110.576,74.834 L 110.576,74.842 L 110.576,74.838 L 110.576,74.834 M 110.569,75.084 L 110.569,75.093 L 110.569,75.088 L 110.569,75.084 M 110.566,75.335 L 110.566,75.343 L 110.566,75.339 L 110.566,75.335 M 110.568,75.585 L 110.568,75.594 L 110.568,75.589 L 110.568,75.585 M 110.575,75.835 L 110.575,75.844 L 110.575,75.84 L 110.575,75.835 M 110.601,76.335 L 110.601,76.343 L 110.601,76.339 L 110.601,76.335 M 110.621,76.584 L 110.621,76.593 L 110.621,76.588 L 110.621,76.584 M111.973,81.305 L111.972,81.303 L111.975,81.309 Z M112.88,82.746 L112.88,82.747 L112.88,82.747 Z M113.5,83.496 L113.503,83.499 L113.496,83.492 Z M114.197,84.188 L114.192,84.183 L114.196,84.187 Z M115.596,85.231 L115.598,85.232 L115.591,85.227 Z M116.267,85.606 L116.268,85.606 L116.262,85.603 Z M117.173,86.017 L117.17,86.016 L117.178,86.019 Z M118.098,86.35 L118.094,86.349 L118.099,86.351 Z M 123.766,67.09 L 123.786,67.111 L 123.776,67.101 L 123.766,67.09 M 123.939,67.258 L 123.952,67.271 L 123.945,67.265 L 123.939,67.258 M 124.127,67.428 L 124.133,67.433 L 124.13,67.43 L 124.127,67.428 M 124.3,67.578 L 124.328,67.6 L 124.314,67.589 L 124.3,67.578 M 124.503,67.729 L 124.559,67.765 L 124.529,67.749 L 124.503,67.729 M 126.134,67.826 L 126.103,67.845 L 126.07,67.86 L 126.102,67.844 L 126.134,67.826 M 124.723,67.854 L 124.786,67.883 L 124.754,67.871 L 124.723,67.854 M 125.927,67.921 L 125.893,67.935 L 125.858,67.944 L 125.893,67.934 L 125.927,67.921 M 125.018,67.962 L 124.983,67.955 L 124.95,67.943 L 124.984,67.954 L 125.018,67.962 M 125.709,67.983 L 125.674,67.992 L 125.638,67.995 L 125.673,67.99 L 125.709,67.983 M 125.251,68.004 L 125.215,68.003 L 125.18,67.995 L 125.216,68.001 L 125.251,68.004 M 125.483,68.011 L 125.447,68.015 L 125.41,68.013 L 125.447,68.013 L 125.483,68.011 M 122.261,71.462 L 122.245,71.462 L 122.253,71.462 L 122.261,71.462 M 122.512,71.463 L 122.497,71.463 L 122.504,71.463 L 122.512,71.463 M 122.014,71.469 L 121.998,71.469 L 122.006,71.469 L 122.014,71.469 M 122.767,71.473 L 122.752,71.472 L 122.759,71.473 L 122.767,71.473 M 121.77,71.483 L 121.753,71.485 L 121.762,71.484 L 121.77,71.483 M 123.024,71.491 L 123.011,71.49 L 123.018,71.491 L 123.024,71.491 M 121.529,71.506 L 121.513,71.508 L 121.521,71.507 L 121.529,71.506 M 123.259,71.514 L 123.249,71.513 L 123.254,71.513 L 123.259,71.514 M 121.291,71.537 L 121.275,71.54 L 121.283,71.538 L 121.291,71.537 M 123.498,71.542 L 123.488,71.541 L 123.493,71.541 L 123.498,71.542 M 123.739,71.576 L 123.729,71.574 L 123.734,71.575 L 123.739,71.576 M 121.057,71.576 L 121.041,71.579 L 121.049,71.577 L 121.057,71.576 M 123.973,71.613 L 123.978,71.614 L 123.983,71.615 L 123.973,71.613 M 120.826,71.622 L 120.81,71.626 L 120.818,71.624 L 120.826,71.622 M 124.227,71.66 L 124.217,71.658 L 124.222,71.659 L 124.227,71.66 M 120.598,71.676 L 120.582,71.68 L 120.59,71.678 L 120.598,71.676 M 124.473,71.71 L 124.463,71.708 L 124.468,71.709 L 124.473,71.71 M 120.372,71.738 L 120.356,71.743 L 120.364,71.74 L 120.372,71.738 M 124.72,71.766 L 124.71,71.763 L 124.715,71.765 L 124.72,71.766 M 120.15,71.807 L 120.134,71.812 L 120.142,71.81 L 120.15,71.807 M 124.966,71.828 L 124.956,71.825 L 124.961,71.826 L 124.966,71.828 M 119.93,71.884 L 119.915,71.889 L 119.922,71.886 L 119.93,71.884 M 125.213,71.895 L 125.202,71.892 L 125.207,71.894 L 125.213,71.895 M 125.458,71.969 L 125.447,71.965 L 125.453,71.967 L 125.458,71.969 M 119.712,71.968 L 119.698,71.974 L 119.705,71.971 L 119.712,71.968 M 125.702,72.048 L 125.691,72.044 L 125.697,72.046 L 125.702,72.048 M 119.498,72.059 L 119.484,72.065 L 119.491,72.062 L 119.498,72.059 M 125.933,72.13 L 125.939,72.131 L 125.945,72.134 L 125.933,72.13 M 119.286,72.157 L 119.272,72.164 L 119.279,72.161 L 119.286,72.157 M 126.185,72.225 L 126.173,72.221 L 126.179,72.223 L 126.185,72.225 M 119.076,72.263 L 119.063,72.27 L 119.069,72.266 L 119.076,72.263 M 118.868,72.375 L 118.856,72.382 L 118.862,72.379 L 118.868,72.375 M 125.726,76.392 L 125.727,76.393 L 125.726,76.392 M 125.914,76.552 L 125.917,76.554 L 125.915,76.553 L 125.914,76.552 M 126.105,76.712 L 126.11,76.716 L 126.107,76.714 L 126.105,76.712 M 124.422,82.089 L 124.373,82.089 L 124.397,82.087 L 124.422,82.089 M 124.646,82.103 L 124.597,82.097 L 124.622,82.099 L 124.646,82.103 M 124.198,82.098 L 124.155,82.102 L 124.177,82.099 L 124.198,82.098 M 123.975,82.128 L 123.944,82.134 L 123.959,82.131 L 123.975,82.128 M 124.864,82.14 L 124.814,82.129 L 124.84,82.133 L 124.864,82.14 M 123.753,82.174 L 123.735,82.179 L 123.744,82.176 L 123.753,82.174 M 123.534,82.23 L 123.527,82.232 L 123.53,82.231 L 123.534,82.23 M 125.256,82.269 L 125.454,82.372 L 125.232,82.402 L 125.06,82.214 L 124.931,82.157 L 125.051,82.19 L 125.256,82.269 M 125.517,82.413 L 125.467,82.409 L 125.492,82.409 L 125.517,82.413 M 125.697,82.437 L 125.741,82.443 L 125.782,82.456 L 125.74,82.445 L 125.697,82.437 M 125.924,82.503 L 125.966,82.517 L 126.005,82.538 L 125.966,82.519 L 125.924,82.503 M 126.128,82.606 L 126.167,82.627 L 126.201,82.655 L 126.166,82.629 L 126.128,82.606 M 125.817,85.975 L 125.817,85.979 L 125.817,85.977 L 125.817,85.975 M124.542,86.4 L124.544,86.4 L124.534,86.403 Z M123.859,86.6 L123.852,86.601 L123.863,86.599 Z M 119.043,86.606 L 119.053,86.608 L 119.048,86.607 L 119.043,86.606 M 121.962,86.86 L 121.97,86.86 L 121.966,86.86 L 121.962,86.86 M 120.987,86.867 L 120.999,86.867 L 120.993,86.867 L 120.987,86.867 M 121.725,86.87 L 121.736,86.87 L 121.73,86.87 L 121.725,86.87 M 121.233,86.874 L 121.244,86.874 L 121.239,86.874 L 121.233,86.874 M 121.479,86.875 L 121.49,86.875 L 121.484,86.875 L 121.479,86.875 M126.205,87.652 L126.205,87.65 L126.206,87.654 Z M 127.515,66.096 L 127.526,66.061 L 127.522,66.079 L 127.515,66.096 M 127.441,66.299 L 127.456,66.264 L 127.449,66.282 L 127.441,66.299 M 127.369,66.46 L 127.361,66.477 L 127.352,66.494 L 127.369,66.46 M 127.161,66.929 L 127.257,66.668 L 127.524,67.028 L 127.884,67.608 L 127.851,67.751 L 127.708,67.743 L 126.96,67.082 L 127.161,66.929 M 126.813,67.254 L 126.826,67.239 L 126.819,67.247 L 126.813,67.254 M 126.658,67.421 L 126.669,67.409 L 126.664,67.415 L 126.658,67.421 M 126.478,67.571 L 126.596,67.484 L 126.492,67.589 L 126.478,67.571 M 126.326,67.7 L 126.299,67.724 L 126.268,67.743 L 126.298,67.723 L 126.326,67.7 M 126.422,72.323 L 126.411,72.318 L 126.417,72.32 L 126.422,72.323 M 126.657,72.427 L 126.645,72.421 L 126.651,72.424 L 126.657,72.427 M 126.888,72.537 L 126.875,72.531 L 126.882,72.534 L 126.888,72.537 M 127.115,72.654 L 127.102,72.647 L 127.108,72.65 L 127.115,72.654 M 127.337,72.777 L 127.324,72.769 L 127.331,72.773 L 127.337,72.777 M 127.555,72.906 L 127.541,72.898 L 127.548,72.902 L 127.555,72.906 M 127.767,73.042 L 127.753,73.033 L 127.76,73.037 L 127.767,73.042 M 127.973,73.185 L 127.959,73.175 L 127.966,73.18 L 127.973,73.185 M 128.173,73.334 L 128.159,73.323 L 128.166,73.329 L 128.173,73.334 M 128.351,73.478 L 128.359,73.484 L 128.366,73.49 L 128.351,73.478 M 128.552,73.653 L 128.537,73.64 L 128.545,73.647 L 128.552,73.653 M 128.73,73.823 L 128.715,73.809 L 128.723,73.816 L 128.73,73.823 M 128.9,74.0 L 128.885,73.984 L 128.893,73.992 L 128.9,74.0 M 129.061,74.184 L 129.046,74.167 L 129.054,74.175 L 129.061,74.184 M 129.213,74.374 L 129.199,74.356 L 129.206,74.365 L 129.213,74.374 M 129.361,74.583 L 129.334,74.543 L 129.349,74.562 L 129.361,74.583 M 129.459,74.753 L 129.478,74.786 L 129.491,74.821 L 129.476,74.786 L 129.459,74.753 M 129.552,74.981 L 129.566,75.016 L 129.573,75.053 L 129.564,75.017 L 129.552,74.981 M 129.608,75.216 L 129.615,75.251 L 129.617,75.287 L 129.614,75.251 L 129.608,75.216 M 129.625,75.522 L 129.626,75.454 L 129.628,75.488 L 129.625,75.522 M 129.601,75.754 L 129.611,75.693 L 129.608,75.724 L 129.601,75.754 M 129.547,75.983 L 129.563,75.928 L 129.556,75.956 L 129.547,75.983 M 129.464,76.206 L 129.485,76.156 L 129.476,76.182 L 129.464,76.206 M 129.356,76.421 L 129.381,76.376 L 129.37,76.399 L 129.356,76.421 M 129.224,76.624 L 129.253,76.583 L 129.239,76.604 L 129.224,76.624 M 129.07,76.813 L 129.103,76.776 L 129.087,76.795 L 129.07,76.813 M 126.301,76.873 L 126.307,76.877 L 126.304,76.875 L 126.301,76.873 M 128.898,76.985 L 128.934,76.952 L 128.917,76.969 L 128.898,76.985 M 126.502,77.032 L 126.509,77.037 L 126.505,77.035 L 126.502,77.032 M 128.708,77.138 L 128.75,77.108 L 128.73,77.124 L 128.708,77.138 M 126.696,77.18 L 126.73,77.204 L 126.713,77.193 L 126.696,77.18 M 128.504,77.269 L 128.551,77.241 L 128.529,77.256 L 128.504,77.269 M 126.972,77.35 L 126.937,77.335 L 126.905,77.315 L 126.938,77.334 L 126.972,77.35 M 128.289,77.374 L 128.342,77.351 L 128.316,77.364 L 128.289,77.374 M 127.205,77.442 L 127.167,77.433 L 127.131,77.418 L 127.167,77.432 L 127.205,77.442 M 128.064,77.45 L 128.124,77.433 L 128.095,77.444 L 128.064,77.45 M 127.438,77.494 L 127.4,77.491 L 127.363,77.481 L 127.4,77.489 L 127.438,77.494 M 127.833,77.495 L 127.9,77.486 L 127.866,77.493 L 127.833,77.495 M 127.67,77.507 L 127.634,77.51 L 127.598,77.507 L 127.634,77.508 L 127.67,77.507 M 126.306,82.741 L 126.34,82.769 L 126.368,82.802 L 126.338,82.77 L 126.306,82.741 M 126.482,82.938 L 126.503,82.975 L 126.454,82.905 L 126.482,82.938 M 126.569,83.091 L 126.591,83.128 L 126.605,83.169 L 126.589,83.129 L 126.569,83.091 M 126.65,83.296 L 126.664,83.337 L 126.671,83.379 L 126.662,83.337 L 126.65,83.296 M 126.692,83.515 L 126.699,83.558 L 126.698,83.601 L 126.697,83.558 L 126.692,83.515 M 126.694,83.743 L 126.693,83.786 L 126.684,83.829 L 126.691,83.786 L 126.694,83.743 M 126.653,83.976 L 126.644,84.018 L 126.628,84.058 L 126.642,84.018 L 126.653,83.976 M 126.546,84.254 L 126.551,84.243 L 126.549,84.249 L 126.546,84.254 M 126.49,84.382 L 126.493,84.374 L 126.492,84.378 L 126.49,84.382 M 126.475,84.415 L 126.475,84.413 L 126.475,84.414 L 126.475,84.415 M 126.426,84.667 L 126.427,84.663 L 126.427,84.665 L 126.426,84.667 M 126.421,84.698 L 126.422,84.696 L 126.421,84.697 L 126.421,84.698 M 126.416,84.73 L 126.408,84.757 L 126.421,84.702 L 126.416,84.73 M 126.403,84.775 L 126.399,84.786 L 126.406,84.763 L 126.403,84.775 M128.668,94.035 L128.668,94.036 L128.667,94.033 Z M129.836,96.202 L129.836,96.201 L129.837,96.203 Z M 140.98,101.703 L 140.766,101.582 L 140.98,101.703 M 141.195,101.826 L 141.194,101.825 L 141.195,101.825 L 141.195,101.826 M 141.41,101.949 L 141.408,101.948 L 141.409,101.948 L 141.41,101.949 M 141.626,102.074 L 141.623,102.072 L 141.624,102.073 L 141.626,102.074 M 141.841,102.2 L 141.837,102.198 L 141.839,102.199 L 141.841,102.2 M134.039,102.295 L134.039,102.295 L134.039,102.295 Z M 142.056,102.329 L 142.051,102.327 L 142.054,102.328 L 142.056,102.329 M 142.271,102.462 L 142.265,102.458 L 142.268,102.46 L 142.271,102.462 M 142.484,102.598 L 142.478,102.594 L 142.481,102.596 L 142.484,102.598 M 142.707,102.746 L 142.679,102.726 L 142.693,102.736 L 142.707,102.746 M 142.92,102.916 L 142.871,102.873 L 142.897,102.893 L 142.92,102.916 M 143.093,103.099 L 143.051,103.05 L 143.074,103.073 L 143.093,103.099 M 143.238,103.3 L 143.203,103.245 L 143.222,103.271 L 143.238,103.3 M 143.352,103.516 L 143.324,103.457 L 143.34,103.485 L 143.352,103.516 M 143.434,103.744 L 143.415,103.68 L 143.427,103.711 L 143.434,103.744 M 143.483,103.979 L 143.473,103.911 L 143.481,103.945 L 143.483,103.979 M 143.497,104.147 L 143.5,104.182 L 143.497,104.218 L 143.498,104.182 L 143.497,104.147 M 143.485,104.384 L 143.483,104.421 L 143.475,104.457 L 143.481,104.42 L 143.485,104.384 M136.263,104.563 L136.259,104.559 L136.268,104.566 Z M 143.437,104.619 L 143.429,104.656 L 143.414,104.691 L 143.427,104.655 L 143.437,104.619 M 143.35,104.848 L 143.335,104.884 L 143.315,104.917 L 143.334,104.883 L 143.35,104.848 M 143.222,105.069 L 143.202,105.102 L 143.177,105.131 L 143.2,105.101 L 143.222,105.069 M 143.007,105.323 L 143.043,105.285 L 143.026,105.305 L 143.007,105.323 M137.512,105.443 L137.507,105.439 L137.518,105.446 Z M 142.831,105.486 L 142.82,105.496 L 142.807,105.507 L 142.831,105.486 M 142.595,105.677 L 142.621,105.657 L 142.608,105.667 L 142.595,105.677 M 142.378,105.827 L 142.407,105.809 L 142.393,105.818 L 142.378,105.827 M 142.158,105.957 L 142.188,105.941 L 142.174,105.95 L 142.158,105.957 M138.655,106.005 L138.647,106.001 L138.661,106.007 Z M 141.935,106.069 L 141.966,106.054 L 141.951,106.062 L 141.935,106.069 M 141.708,106.162 L 141.74,106.15 L 141.724,106.156 L 141.708,106.162 M139.369,106.234 L139.36,106.231 L139.376,106.235 Z M141.511,106.228 L141.504,106.23 L141.503,106.23 Z M141.264,106.293 L141.259,106.294 L141.268,106.292 Z M140.32,106.374 L140.314,106.373 L140.327,106.374 Z M 151.395,106.784 L 151.395,106.813 L 151.395,106.798 L 151.395,106.784 M 151.398,107.039 L 151.399,107.068 L 151.398,107.054 L 151.398,107.039 M 118.62,15.371 L 119.371,15.472 L 120.111,15.642 L 121.773,14.143 L 123.284,12.848 L 125.02,11.437 L 126.596,10.223 L 128.403,8.904 L 130.04,7.776 L 131.705,6.688 L 133.396,5.644 L 135.983,4.16 L 138.404,2.889 L 140.871,1.706 L 143.606,0.516 L 146.383,-0.579 L 149.199,-1.58 L 152.049,-2.485 L 155.17,-3.358 L 158.08,-4.065 L 161.013,-4.676 L 163.964,-5.192 L 167.18,-5.643 L 170.16,-5.96 L 173.147,-6.181 L 176.139,-6.307 L 179.38,-6.335 L 182.865,-6.239 L 186.339,-6.013 L 190.049,-5.627 L 193.499,-5.138 L 196.926,-4.524 L 200.327,-3.782 L 203.696,-2.908 L 207.028,-1.9 L 209.85,-0.927 L 213.271,0.385 L 214.845,1.12 L 215.889,1.77 L 216.464,2.23 L 216.995,2.757 L 217.314,3.151 L 217.717,3.783 L 218.027,4.456 L 218.24,5.16 L 218.354,5.884 L 218.372,6.372 L 218.342,6.861 L 218.265,7.347 L 218.055,8.066 L 217.852,8.533 L 217.604,8.975 L 217.018,9.772 L 216.318,10.476 L 215.526,11.086 L 214.664,11.596 L 213.52,12.091 L 214.229,12.71 L 214.906,13.387 L 215.392,13.946 L 215.652,14.367 L 215.829,14.813 L 215.937,15.508 L 215.846,16.201 L 215.671,16.645 L 215.403,17.063 L 215.232,17.258 L 214.526,17.945 L 213.58,18.733 L 212.571,19.44 L 211.507,20.06 L 210.396,20.591 L 209.244,21.027 L 208.3,21.306 L 208.405,21.989 L 208.44,22.922 L 208.352,23.865 L 208.204,24.568 L 207.987,25.26 L 207.691,25.952 L 207.307,26.62 L 206.861,27.215 L 206.176,27.904 L 205.8,28.205 L 205.198,28.606 L 204.108,29.148 L 202.932,29.547 L 201.699,29.821 L 200.18,30.008 L 198.662,30.067 L 196.836,30.009 L 196.712,31.424 L 196.692,31.24 L 196.603,31.077 L 196.415,30.942 L 196.233,30.908 L 196.051,30.947 L 195.324,31.338 L 194.781,31.483 L 194.219,31.518 L 193.661,31.443 L 193.368,31.357 L 192.879,31.13 L 192.424,30.799 L 192.151,30.536 L 191.934,30.449 L 191.747,30.461 L 191.543,30.575 L 191.435,30.729 L 191.395,30.912 L 191.521,27.556 L 188.952,28.05 L 185.551,28.55 L 182.077,28.953 L 178.592,29.255 L 175.351,29.443 L 171.856,29.548 L 168.359,29.551 L 165.113,29.463 L 161.621,29.27 L 158.171,28.98 L 154.494,28.574 L 150.584,28.044 L 145.99,27.311 L 141.701,26.52 L 139.553,26.054 L 136.476,25.264 L 135.948,26.095 L 135.481,26.963 L 135.079,27.863 L 134.82,28.556 L 134.536,29.499 L 134.324,30.459 L 134.185,31.432 L 134.132,32.166 L 134.159,33.635 L 134.346,34.84 L 134.651,36.025 L 135.599,39.076 L 135.825,40.021 L 135.942,40.737 L 136.006,41.703 L 135.97,42.439 L 135.841,43.213 L 135.602,43.978 L 135.271,44.647 L 134.858,45.231 L 134.374,45.737 L 133.632,46.308 L 132.802,46.777 L 131.674,47.254 L 130.489,47.647 L 128.634,48.19 L 128.178,48.36 L 127.796,48.586 L 127.636,48.731 L 127.386,49.112 L 127.298,49.357 L 127.181,50.114 L 127.135,51.32 L 127.184,52.551 L 127.358,54.983 L 127.598,61.079 L 127.677,64.857 L 127.653,65.397 L 127.536,66.023 L 127.54,65.79 L 127.43,65.583 L 127.235,65.453 L 126.956,65.442 L 126.826,65.498 L 126.195,65.964 L 125.703,66.179 L 125.433,66.253 L 124.853,66.322 L 124.074,66.233 L 123.85,66.282 L 123.674,66.429 L 123.589,66.642 L 123.613,66.87 L 123.708,67.027 L 123.623,66.934 L 123.487,66.758 L 123.267,66.361 L 123.103,65.753 L 122.613,65.752 L 121.88,65.813 L 121.153,65.948 L 120.676,66.078 L 119.976,66.335 L 119.301,66.663 L 118.629,67.068 L 118.009,67.513 L 117.44,67.996 L 116.923,68.518 L 116.456,69.075 L 116.123,69.542 L 116.2,69.322 L 116.179,69.137 L 116.056,68.939 L 115.898,68.839 L 115.76,68.809 L 115.089,68.8 L 114.547,68.68 L 114.038,68.457 L 113.6,68.155 L 113.361,67.936 L 113.196,67.855 L 112.923,67.862 L 112.764,67.951 L 112.673,68.055 L 112.967,67.63 L 112.667,66.672 L 112.354,65.458 L 111.058,59.556 L 110.488,56.354 L 110.148,53.631 L 109.981,50.905 L 110.011,48.433 L 110.101,47.202 L 110.245,45.975 L 110.447,44.754 L 110.652,43.781 L 110.968,42.571 L 111.27,41.609 L 112.002,39.719 L 112.527,38.595 L 112.996,37.719 L 114.164,35.925 L 114.354,35.507 L 114.456,35.079 L 114.464,34.862 L 114.399,34.428 L 114.132,33.778 L 113.549,32.921 L 111.955,31.111 L 111.543,30.566 L 111.112,29.722 L 110.828,28.797 L 110.74,28.093 L 110.745,27.625 L 110.804,27.163 L 110.92,26.709 L 111.096,26.266 L 111.334,25.838 L 111.637,25.427 L 112.15,24.923 L 111.833,24.273 L 111.586,23.598 L 111.412,22.903 L 111.337,22.433 L 111.291,21.721 L 111.304,21.245 L 111.392,20.534 L 111.498,20.066 L 111.73,19.375 L 111.934,18.926 L 112.466,18.064 L 112.769,17.682 L 113.274,17.156 L 113.64,16.836 L 114.231,16.408 L 114.864,16.046 L 115.532,15.754 L 116.23,15.537 L 116.931,15.401 L 117.877,15.339 L 118.62,15.371 M 113.479,44.212 L 113.168,45.718 L 112.96,47.248 L 112.838,49.027 L 112.822,50.38 L 112.878,51.978 L 112.986,53.362 L 113.172,54.991 L 113.417,56.634 L 113.712,58.285 L 115.128,64.805 L 115.434,65.973 L 116.484,65.097 L 117.66,64.322 L 118.905,63.699 L 120.207,63.254 L 121.548,62.989 L 122.472,62.912 L 123.153,62.909 L 123.438,62.928 L 123.996,63.052 L 124.517,63.284 L 124.81,63.473 L 124.711,59.959 L 124.521,55.337 L 124.289,51.611 L 124.321,50.122 L 124.414,49.264 L 124.51,48.771 L 124.785,47.95 L 125.12,47.34 L 125.549,46.795 L 126.201,46.229 L 126.671,45.936 L 127.319,45.638 L 130.294,44.724 L 131.541,44.226 L 132.069,43.929 L 132.453,43.635 L 132.772,43.27 L 132.955,42.921 L 133.065,42.567 L 133.147,42.002 L 133.145,41.41 L 133.063,40.752 L 132.793,39.62 L 131.769,36.304 L 131.553,35.404 L 131.39,34.488 L 131.317,33.845 L 131.273,32.924 L 131.286,32.016 L 131.353,31.114 L 131.525,29.925 L 131.85,28.518 L 132.214,27.38 L 132.68,26.226 L 133.352,24.896 L 134.112,23.675 L 134.274,23.459 L 134.654,23.077 L 135.099,22.774 L 135.594,22.56 L 136.121,22.442 L 136.39,22.421 L 136.928,22.456 L 140.448,23.343 L 142.489,23.776 L 146.943,24.588 L 151.481,25.3 L 155.324,25.81 L 158.929,26.196 L 162.55,26.482 L 165.96,26.649 L 169.129,26.715 L 172.299,26.696 L 175.467,26.591 L 178.631,26.4 L 181.789,26.123 L 184.938,25.761 L 188.256,25.283 L 191.185,24.732 L 191.731,24.72 L 192.002,24.753 L 192.529,24.896 L 193.018,25.136 L 193.244,25.29 L 193.645,25.66 L 193.969,26.099 L 194.202,26.591 L 194.337,27.119 L 194.369,27.663 L 194.321,28.672 L 194.598,28.249 L 194.978,27.852 L 195.428,27.536 L 195.931,27.312 L 196.467,27.189 L 196.742,27.167 L 198.43,27.223 L 199.743,27.187 L 200.805,27.082 L 201.608,26.943 L 202.527,26.7 L 203.324,26.384 L 203.983,26.006 L 204.599,25.474 L 204.849,25.168 L 205.069,24.819 L 205.259,24.417 L 205.446,23.853 L 205.557,23.274 L 205.592,22.698 L 205.57,22.28 L 205.461,21.554 L 205.468,20.988 L 205.514,20.708 L 205.688,20.169 L 205.814,19.915 L 206.139,19.451 L 206.55,19.061 L 207.031,18.76 L 209.09,18.053 L 209.817,17.728 L 210.521,17.355 L 211.199,16.937 L 211.847,16.475 L 212.46,15.973 L 212.974,15.493 L 212.281,14.787 L 211.487,14.085 L 211.299,13.873 L 210.989,13.399 L 210.78,12.873 L 210.679,12.316 L 210.671,12.033 L 210.738,11.472 L 210.916,10.934 L 211.045,10.682 L 211.197,10.443 L 211.57,10.017 L 212.02,9.672 L 212.269,9.536 L 213.2,9.147 L 213.93,8.729 L 214.55,8.237 L 215.03,7.701 L 215.242,7.373 L 215.386,7.066 L 215.475,6.761 L 215.517,6.446 L 215.462,5.794 L 215.362,5.465 L 215.213,5.144 L 214.862,4.645 L 214.46,4.261 L 213.945,3.889 L 213.143,3.443 L 211.975,2.929 L 209.995,2.164 L 207.058,1.106 L 203.619,0.027 L 200.133,-0.903 L 196.607,-1.688 L 193.047,-2.33 L 189.7,-2.804 L 186.34,-3.158 L 182.974,-3.386 L 179.596,-3.488 L 176.213,-3.463 L 172.829,-3.312 L 169.452,-3.035 L 166.327,-2.665 L 163.455,-2.226 L 160.6,-1.695 L 157.766,-1.072 L 154.956,-0.357 L 152.174,0.45 L 149.424,1.349 L 146.71,2.34 L 144.035,3.422 L 140.973,4.799 L 138.197,6.198 L 135.276,7.837 L 132.43,9.606 L 129.857,11.363 L 127.167,13.37 L 124.93,15.183 L 122.046,17.729 L 121.59,18.072 L 121.075,18.318 L 120.801,18.401 L 120.235,18.483 L 119.665,18.451 L 118.863,18.271 L 118.367,18.204 L 117.444,18.205 L 116.662,18.372 L 116.022,18.652 L 115.436,19.045 L 114.847,19.638 L 114.479,20.208 L 114.251,20.803 L 114.142,21.561 L 114.186,22.225 L 114.403,23.03 L 114.877,24.096 L 114.985,24.631 L 114.988,25.176 L 114.888,25.712 L 114.687,26.219 L 114.392,26.678 L 113.864,27.21 L 113.701,27.43 L 113.605,27.694 L 113.594,28.047 L 113.709,28.538 L 113.975,29.076 L 115.807,31.186 L 116.252,31.792 L 116.679,32.502 L 116.965,33.126 L 117.189,33.85 L 117.302,34.606 L 117.304,35.184 L 117.263,35.569 L 117.146,36.117 L 116.907,36.791 L 116.518,37.546 L 115.635,38.854 L 115.075,39.87 L 114.442,41.262 L 113.901,42.728 L 113.479,44.212 M 152.692,105.125 L 152.731,105.125 L 152.771,105.131 L 152.731,105.127 L 152.692,105.125 M 152.453,105.134 L 152.493,105.126 L 152.534,105.126 L 152.493,105.128 L 152.453,105.134 M 152.929,105.157 L 152.968,105.164 L 153.006,105.176 L 152.968,105.165 L 152.929,105.157 M 152.22,105.184 L 152.261,105.168 L 152.305,105.16 L 152.262,105.17 L 152.22,105.184 M 153.195,105.241 L 153.232,105.261 L 153.155,105.227 L 153.195,105.241 M 152.003,105.276 L 152.044,105.25 L 152.089,105.233 L 152.045,105.252 L 152.003,105.276 M 153.365,105.335 L 153.405,105.357 L 153.44,105.386 L 153.404,105.359 L 153.365,105.335 M 151.812,105.412 L 151.849,105.374 L 151.894,105.345 L 151.851,105.376 L 151.812,105.412 M 153.551,105.479 L 153.589,105.511 L 153.62,105.55 L 153.587,105.513 L 153.551,105.479 M 151.656,105.587 L 151.685,105.539 L 151.725,105.499 L 151.688,105.541 L 151.656,105.587 M 153.752,105.724 L 153.724,105.683 L 153.739,105.703 L 153.752,105.724 M 151.542,105.801 L 151.559,105.747 L 151.589,105.698 L 151.562,105.748 L 151.542,105.801 M 151.491,105.965 L 151.475,106.03 L 151.481,105.997 L 151.491,105.965 M 151.437,106.256 L 151.434,106.284 L 151.435,106.27 L 151.437,106.256 M 151.408,106.523 L 151.406,106.551 L 151.407,106.537 L 151.408,106.523 M 151.416,107.288 L 151.419,107.317 L 151.417,107.303 L 151.416,107.288 M 151.449,107.532 L 151.454,107.561 L 151.451,107.546 L 151.449,107.532 M 151.497,107.769 L 151.503,107.798 L 151.499,107.783 L 151.497,107.769 M 151.558,108.001 L 151.566,108.028 L 151.561,108.015 L 151.558,108.001 M 151.632,108.227 L 151.642,108.253 L 151.637,108.24 L 151.632,108.227 M 151.72,108.447 L 151.73,108.472 L 151.725,108.46 L 151.72,108.447 M 151.819,108.661 L 151.831,108.685 L 151.825,108.673 L 151.819,108.661 M 151.931,108.869 L 151.943,108.892 L 151.937,108.881 L 151.931,108.869 M 152.054,109.072 L 152.067,109.092 L 152.06,109.082 L 152.054,109.072 M 152.187,109.268 L 152.201,109.287 L 152.194,109.278 L 152.187,109.268 M 152.331,109.458 L 152.345,109.476 L 152.338,109.467 L 152.331,109.458 M 152.484,109.643 L 152.499,109.659 L 152.491,109.651 L 152.484,109.643 M 152.647,109.821 L 152.661,109.836 L 152.654,109.828 L 152.647,109.821 M 152.819,109.993 L 152.833,110.007 L 152.825,110.0 L 152.819,109.993 M 152.998,110.159 L 153.012,110.172 L 153.005,110.166 L 152.998,110.159 M 153.185,110.32 L 153.199,110.331 L 153.192,110.325 L 153.185,110.32 M 153.38,110.474 L 153.393,110.484 L 153.386,110.479 L 153.38,110.474 M 153.58,110.622 L 153.593,110.631 L 153.587,110.627 L 153.58,110.622 M 153.787,110.764 L 153.8,110.772 L 153.794,110.768 L 153.787,110.764 M 154.0,110.9 L 154.012,110.908 L 154.006,110.904 L 154.0,110.9 M 154.229,111.037 L 154.223,111.034 L 154.217,111.03 L 154.229,111.037 M 154.439,111.154 L 154.451,111.16 L 154.445,111.157 L 154.439,111.154 M 154.665,111.272 L 154.677,111.278 L 154.671,111.275 L 154.665,111.272 M 169.243,111.476 L 169.244,111.476 L 169.243,111.476 M 168.998,111.523 L 169.0,111.522 L 168.999,111.522 L 168.998,111.523 M 168.754,111.568 L 168.755,111.568 L 168.754,111.568 M 168.509,111.613 L 168.51,111.612 L 168.51,111.613 L 168.509,111.613 M 168.264,111.656 L 168.265,111.656 L 168.265,111.656 L 168.264,111.656 M 168.018,111.699 L 168.02,111.699 L 168.019,111.699 L 168.018,111.699 M 167.773,111.741 L 167.774,111.741 L 167.774,111.741 L 167.773,111.741 M 167.529,111.782 L 167.528,111.782 L 167.527,111.783 L 167.529,111.782 M 167.281,111.823 L 167.283,111.823 L 167.282,111.823 L 167.281,111.823 M156.077,111.854 L156.075,111.853 L156.078,111.854 Z M 167.035,111.862 L 167.036,111.862 L 167.036,111.862 L 167.035,111.862 M 166.788,111.901 L 166.79,111.901 L 166.789,111.901 L 166.788,111.901 M 166.235,111.986 L 166.236,111.986 L 166.235,111.986 M 165.988,112.023 L 165.989,112.023 L 165.989,112.023 L 165.988,112.023 M 165.741,112.06 L 165.742,112.06 L 165.742,112.06 L 165.741,112.06 M 165.494,112.097 L 165.495,112.096 L 165.494,112.097 M 165.246,112.132 L 165.247,112.132 L 165.246,112.132 M 164.998,112.167 L 164.999,112.167 L 164.998,112.167 M 164.749,112.201 L 164.751,112.201 L 164.75,112.201 L 164.749,112.201 M 164.501,112.234 L 164.503,112.234 L 164.502,112.234 L 164.501,112.234 M 164.252,112.266 L 164.254,112.266 L 164.253,112.266 L 164.252,112.266 M 164.003,112.297 L 164.005,112.296 L 164.004,112.297 L 164.003,112.297 M 163.753,112.326 L 163.756,112.326 L 163.755,112.326 L 163.753,112.326 M 163.504,112.353 L 163.507,112.353 L 163.506,112.353 L 163.504,112.353 M 163.254,112.379 L 163.258,112.379 L 163.256,112.379 L 163.254,112.379 M 163.005,112.403 L 163.008,112.403 L 163.007,112.403 L 163.005,112.403 M 158.767,112.421 L 158.775,112.421 L 158.771,112.421 L 158.767,112.421 M 162.505,112.446 L 162.509,112.446 L 162.507,112.446 L 162.505,112.446 M 159.015,112.446 L 159.023,112.446 L 159.019,112.446 L 159.015,112.446 M 162.256,112.464 L 162.26,112.464 L 162.258,112.464 L 162.256,112.464 M 161.756,112.493 L 161.761,112.493 L 161.758,112.493 L 161.756,112.493 M 161.506,112.504 L 161.511,112.504 L 161.509,112.504 L 161.506,112.504 M 160.009,112.509 L 160.016,112.509 L 160.013,112.509 L 160.009,112.509 M 161.256,112.512 L 161.262,112.512 L 161.259,112.512 L 161.256,112.512 M 160.259,112.516 L 160.265,112.516 L 160.262,112.516 L 160.259,112.516 M 161.007,112.517 L 161.012,112.517 L 161.009,112.517 L 161.007,112.517 M 160.508,112.519 L 160.514,112.519 L 160.511,112.519 L 160.508,112.519 M 160.757,112.52 L 160.763,112.52 L 160.76,112.52 L 160.757,112.52 M 191.369,31.96 L 191.37,31.945 L 191.371,31.93 L 191.369,31.96 M 191.364,32.127 L 191.364,32.155 L 191.364,32.141 L 191.364,32.127 M 191.369,32.331 L 191.37,32.357 L 191.369,32.344 L 191.369,32.331 M 191.16,103.793 L 191.163,103.792 L 191.161,103.793 L 191.16,103.793 M 190.94,103.907 L 190.943,103.906 L 190.942,103.907 L 190.94,103.907 M 190.72,104.02 L 190.723,104.018 L 190.721,104.019 L 190.72,104.02 M 190.499,104.13 L 190.501,104.129 L 190.5,104.129 L 190.499,104.13 M 190.276,104.24 L 190.277,104.239 L 190.277,104.239 L 190.276,104.24 M 190.053,104.349 L 190.054,104.349 L 190.054,104.349 L 190.053,104.349 M 189.83,104.458 L 189.831,104.458 L 189.83,104.458 M 189.606,104.567 L 189.607,104.566 L 189.606,104.567 M 189.382,104.675 L 189.383,104.674 L 189.382,104.674 L 189.382,104.675 M 189.157,104.782 L 189.158,104.782 L 189.158,104.782 L 189.157,104.782 M 188.933,104.889 L 188.934,104.888 L 188.933,104.889 M 188.708,104.995 L 188.709,104.994 L 188.709,104.995 L 188.708,104.995 M 188.484,105.1 L 188.484,105.1 L 188.483,105.101 L 188.484,105.1 M 188.258,105.206 L 188.259,105.205 L 188.259,105.205 L 188.258,105.206 M 188.033,105.31 L 188.034,105.309 L 188.033,105.31 M 187.807,105.414 L 187.808,105.413 L 187.808,105.414 L 187.807,105.414 M 187.581,105.517 L 187.582,105.516 L 187.582,105.517 L 187.581,105.517 M 187.355,105.62 L 187.356,105.619 L 187.356,105.619 L 187.355,105.62 M 187.129,105.722 L 187.13,105.721 L 187.129,105.721 L 187.129,105.722 M 186.902,105.823 L 186.903,105.823 L 186.903,105.823 L 186.902,105.823 M 186.675,105.924 L 186.676,105.923 L 186.676,105.924 L 186.675,105.924 M 186.448,106.024 L 186.449,106.024 L 186.449,106.024 L 186.448,106.024 M 186.221,106.124 L 186.222,106.123 L 186.221,106.123 L 186.221,106.124 M 185.993,106.223 L 185.995,106.222 L 185.994,106.222 L 185.993,106.223 M 185.766,106.321 L 185.767,106.32 L 185.766,106.321 M 185.538,106.419 L 185.539,106.418 L 185.538,106.418 L 185.538,106.419 M 185.309,106.516 L 185.311,106.515 L 185.31,106.516 L 185.309,106.516 M 185.082,106.612 L 185.082,106.612 L 185.081,106.612 L 185.082,106.612 M 184.852,106.708 L 184.854,106.708 L 184.853,106.708 L 184.852,106.708 M 184.623,106.803 L 184.625,106.803 L 184.624,106.803 L 184.623,106.803 M 184.394,106.898 L 184.395,106.897 L 184.395,106.898 L 184.394,106.898 M 184.165,106.992 L 184.166,106.991 L 184.165,106.991 L 184.165,106.992 M 183.935,107.085 L 183.937,107.084 L 183.936,107.085 L 183.935,107.085 M 183.705,107.178 L 183.707,107.177 L 183.706,107.177 L 183.705,107.178 M 183.475,107.27 L 183.477,107.269 L 183.476,107.269 L 183.475,107.27 M 183.245,107.361 L 183.246,107.36 L 183.246,107.361 L 183.245,107.361 M 183.015,107.451 L 183.016,107.451 L 183.015,107.451 M 182.784,107.541 L 182.785,107.541 L 182.784,107.541 M 182.553,107.631 L 182.554,107.63 L 182.553,107.631 M 182.321,107.719 L 182.323,107.719 L 182.322,107.719 L 182.321,107.719 M 182.09,107.807 L 182.091,107.807 L 182.091,107.807 L 182.09,107.807 M 181.858,107.895 L 181.86,107.894 L 181.859,107.894 L 181.858,107.895 M 181.628,107.981 L 181.627,107.981 L 181.626,107.981 L 181.628,107.981 M 181.394,108.067 L 181.395,108.067 L 181.395,108.067 L 181.394,108.067 M 181.162,108.153 L 181.163,108.152 L 181.162,108.152 L 181.162,108.153 M 180.929,108.237 L 180.93,108.237 L 180.93,108.237 L 180.929,108.237 M 180.696,108.321 L 180.698,108.321 L 180.697,108.321 L 180.696,108.321 M 180.463,108.404 L 180.464,108.404 L 180.464,108.404 L 180.463,108.404 M 180.23,108.487 L 180.231,108.486 L 180.23,108.487 M 179.996,108.569 L 179.998,108.568 L 179.997,108.568 L 179.996,108.569 M 179.762,108.65 L 179.764,108.649 L 179.763,108.649 L 179.762,108.65 M 179.528,108.73 L 179.53,108.73 L 179.529,108.73 L 179.528,108.73 M 179.294,108.81 L 179.295,108.809 L 179.295,108.81 L 179.294,108.81 M 179.06,108.889 L 179.061,108.888 L 179.06,108.889 M 178.825,108.967 L 178.826,108.967 L 178.825,108.967 M 178.59,109.045 L 178.591,109.044 L 178.591,109.044 L 178.59,109.045 M 178.355,109.121 L 178.356,109.121 L 178.355,109.121 M 178.121,109.197 L 178.12,109.197 L 178.119,109.197 L 178.121,109.197 M 177.883,109.273 L 177.885,109.272 L 177.884,109.273 L 177.883,109.273 M 177.648,109.348 L 177.649,109.347 L 177.648,109.347 L 177.648,109.348 M 177.411,109.421 L 177.413,109.421 L 177.412,109.421 L 177.411,109.421 M 177.175,109.495 L 177.176,109.494 L 177.176,109.494 L 177.175,109.495 M 176.938,109.567 L 176.94,109.567 L 176.939,109.567 L 176.938,109.567 M 176.702,109.639 L 176.703,109.638 L 176.702,109.639 M 176.464,109.71 L 176.466,109.709 L 176.465,109.709 L 176.464,109.71 M 176.227,109.78 L 176.229,109.779 L 176.228,109.78 L 176.227,109.78 M 175.99,109.849 L 175.991,109.849 L 175.99,109.849 M 175.752,109.918 L 175.753,109.918 L 175.753,109.918 L 175.752,109.918 M 175.514,109.986 L 175.515,109.986 L 175.514,109.986 M 175.275,110.053 L 175.277,110.053 L 175.276,110.053 L 175.275,110.053 M 175.037,110.12 L 175.038,110.119 L 175.038,110.119 L 175.037,110.12 M 174.798,110.185 L 174.8,110.185 L 174.799,110.185 L 174.798,110.185 M 174.561,110.25 L 174.56,110.25 L 174.559,110.25 L 174.561,110.25 M 174.32,110.314 L 174.322,110.314 L 174.321,110.314 L 174.32,110.314 M 174.081,110.378 L 174.082,110.377 L 174.081,110.377 L 174.081,110.378 M 173.841,110.44 L 173.843,110.44 L 173.842,110.44 L 173.841,110.44 M 173.601,110.502 L 173.603,110.501 L 173.602,110.502 L 173.601,110.502 M 173.361,110.563 L 173.362,110.562 L 173.362,110.563 L 173.361,110.563 M 173.121,110.623 L 173.122,110.623 L 173.121,110.623 M 172.88,110.682 L 172.882,110.682 L 172.881,110.682 L 172.88,110.682 M 172.639,110.741 L 172.641,110.741 L 172.64,110.741 L 172.639,110.741 M 172.398,110.799 L 172.4,110.798 L 172.399,110.799 L 172.398,110.799 M 172.157,110.856 L 172.158,110.855 L 172.158,110.856 L 172.157,110.856 M 171.915,110.912 L 171.917,110.912 L 171.916,110.912 L 171.915,110.912 M 171.673,110.967 L 171.675,110.967 L 171.674,110.967 L 171.673,110.967 M 171.431,111.022 L 171.433,111.022 L 171.432,111.022 L 171.431,111.022 M 171.189,111.076 L 171.191,111.075 L 171.19,111.076 L 171.189,111.076 M 170.948,111.128 L 170.947,111.129 L 170.947,111.129 L 170.948,111.128 M 170.704,111.181 L 170.705,111.181 L 170.705,111.181 L 170.704,111.181 M 170.461,111.232 L 170.463,111.232 L 170.462,111.232 L 170.461,111.232 M 170.218,111.283 L 170.219,111.282 L 170.219,111.283 L 170.218,111.283 M 169.974,111.332 L 169.976,111.332 L 169.975,111.332 L 169.974,111.332 M 169.731,111.381 L 169.732,111.381 L 169.731,111.381 M 169.487,111.429 L 169.488,111.429 L 169.488,111.429 L 169.487,111.429 M 191.393,31.042 L 191.393,31.044 L 191.393,31.043 L 191.393,31.042 M 191.391,31.279 L 191.391,31.281 L 191.391,31.28 L 191.391,31.279 M 191.389,31.517 L 191.389,31.519 L 191.389,31.518 L 191.389,31.517 M 191.385,32.542 L 191.388,32.565 L 191.386,32.554 L 191.385,32.542 M 191.414,32.765 L 191.415,32.775 L 191.415,32.77 L 191.414,32.765 M 191.478,33.184 L 191.484,33.214 L 191.481,33.199 L 191.478,33.184 M 191.523,33.39 L 191.539,33.446 L 191.53,33.418 L 191.523,33.39 M 191.594,33.6 L 191.616,33.652 L 191.604,33.627 L 191.594,33.6 M 191.69,33.8 L 191.717,33.847 L 191.702,33.824 L 191.69,33.8 M 191.839,34.256 L 191.839,34.257 L 191.839,34.257 L 191.839,34.256 M 194.272,35.079 L 194.285,35.078 L 194.278,35.078 L 194.272,35.079 M 191.907,35.244 L 191.908,35.245 L 191.908,35.245 L 191.907,35.244 M 194.273,35.325 L 194.273,35.324 L 194.273,35.325 M 191.926,35.491 L 191.926,35.492 L 191.926,35.492 L 191.926,35.491 M 191.944,35.738 L 191.944,35.739 L 191.944,35.739 L 191.944,35.738 M 191.963,35.985 L 191.963,35.986 L 191.963,35.985 M 191.983,36.232 L 191.983,36.233 L 191.983,36.232 M 192.022,36.725 L 192.023,36.726 L 192.023,36.726 L 192.022,36.725 M 192.043,36.972 L 192.043,36.973 L 192.043,36.973 L 192.043,36.972 M 192.064,37.219 L 192.064,37.22 L 192.064,37.219 M 192.107,37.712 L 192.107,37.713 L 192.107,37.713 L 192.107,37.712 M 192.129,37.959 L 192.129,37.96 L 192.129,37.959 M 192.151,38.205 L 192.151,38.206 L 192.151,38.206 L 192.151,38.205 M 192.174,38.452 L 192.174,38.453 L 192.174,38.452 M 192.196,38.699 L 192.197,38.699 L 192.196,38.699 M 192.22,38.945 L 192.22,38.946 L 192.22,38.945 M 192.267,39.438 L 192.267,39.439 L 192.267,39.438 M 192.291,39.684 L 192.291,39.685 L 192.291,39.685 L 192.291,39.684 M 192.341,40.177 L 192.341,40.178 L 192.341,40.178 L 192.341,40.177 M 192.417,40.916 L 192.417,40.917 L 192.417,40.917 L 192.417,40.916 M 192.495,41.655 L 192.496,41.656 L 192.495,41.655 M 192.522,41.901 L 192.549,42.148 L 192.522,41.902 L 192.522,41.901 M 192.549,42.148 L 192.576,42.394 L 192.549,42.148 M 192.576,42.394 L 192.604,42.64 L 192.576,42.394 M 192.604,42.64 L 192.631,42.886 L 192.604,42.64 M 192.631,42.886 L 192.659,43.132 L 192.631,42.886 M 192.659,43.132 L 192.687,43.378 L 192.659,43.132 M 192.687,43.378 L 192.716,43.624 L 192.687,43.378 M 192.716,43.624 L 192.744,43.87 L 192.716,43.625 L 192.716,43.624 M 192.744,43.87 L 192.773,44.117 L 192.744,43.871 L 192.744,43.87 M 192.773,44.117 L 192.802,44.363 L 192.773,44.117 M 192.802,44.363 L 192.831,44.609 L 192.802,44.363 M 192.831,44.609 L 192.86,44.855 L 192.831,44.609 M 192.89,45.101 L 192.86,44.855 L 192.86,44.855 L 192.89,45.101 L 192.919,45.347 L 192.89,45.101 M 192.919,45.347 L 192.949,45.593 L 192.919,45.347 M 192.949,45.593 L 192.979,45.838 L 192.949,45.593 M 192.979,45.838 L 193.009,46.084 L 192.979,45.839 L 192.979,45.838 M 193.009,46.084 L 193.039,46.33 L 193.009,46.085 L 193.009,46.084 M 193.039,46.33 L 193.07,46.576 L 193.039,46.33 M 193.07,46.576 L 193.1,46.822 L 193.07,46.576 M 193.1,46.822 L 193.131,47.068 L 193.1,46.822 M 193.131,47.068 L 193.161,47.314 L 193.131,47.068 M 193.161,47.314 L 193.192,47.56 L 193.161,47.314 M 193.192,47.56 L 193.223,47.806 L 193.192,47.56 M 193.223,47.806 L 193.254,48.051 L 193.223,47.806 M 193.254,48.051 L 193.286,48.297 L 193.254,48.051 M 193.286,48.297 L 193.317,48.543 L 193.286,48.297 M 193.348,48.789 L 193.317,48.543 L 193.317,48.543 L 193.348,48.789 L 193.38,49.035 L 193.348,48.789 M 193.38,49.035 L 193.411,49.28 L 193.38,49.035 M 193.411,49.28 L 193.443,49.526 L 193.411,49.28 M 193.443,49.526 L 193.474,49.772 L 193.443,49.526 M 193.474,49.772 L 193.506,50.018 L 193.474,49.772 M 193.506,50.018 L 193.538,50.263 L 193.506,50.018 M 193.538,50.263 L 193.57,50.509 L 193.538,50.263 M 193.57,50.509 L 193.601,50.755 L 193.57,50.509 M 193.601,50.755 L 193.633,51.0 L 193.601,50.755 M 193.633,51.0 L 193.665,51.246 L 193.633,51.001 L 193.633,51.0 M 193.665,51.246 L 193.697,51.492 L 193.665,51.246 M 193.697,51.492 L 193.729,51.738 L 193.697,51.492 M 193.729,51.738 L 193.761,51.983 L 193.729,51.738 M 194.132,102.013 L 194.136,102.01 L 194.134,102.011 L 194.132,102.013 M 193.931,102.149 L 193.929,102.15 L 193.927,102.152 L 193.931,102.149 M 193.721,102.289 L 193.725,102.286 L 193.723,102.288 L 193.721,102.289 M 193.514,102.424 L 193.517,102.422 L 193.516,102.423 L 193.514,102.424 M 193.305,102.558 L 193.309,102.555 L 193.307,102.557 L 193.305,102.558 M 193.095,102.689 L 193.099,102.687 L 193.097,102.688 L 193.095,102.689 M 192.884,102.819 L 192.888,102.817 L 192.886,102.818 L 192.884,102.819 M 192.672,102.947 L 192.676,102.945 L 192.674,102.946 L 192.672,102.947 M 192.459,103.073 L 192.463,103.071 L 192.461,103.072 L 192.459,103.073 M 192.245,103.198 L 192.248,103.196 L 192.247,103.197 L 192.245,103.198 M 192.03,103.321 L 192.033,103.319 L 192.031,103.32 L 192.03,103.321 M 191.814,103.441 L 191.817,103.44 L 191.815,103.44 L 191.814,103.441 M 191.596,103.56 L 191.6,103.559 L 191.598,103.56 L 191.596,103.56 M 191.378,103.678 L 191.382,103.676 L 191.38,103.677 L 191.378,103.678 M 196.617,32.513 L 196.618,32.496 L 196.618,32.505 L 196.617,32.513 M 196.582,32.784 L 196.588,32.749 L 196.585,32.767 L 196.582,32.784 M 196.539,33.002 L 196.535,33.02 L 196.53,33.037 L 196.539,33.002 M 196.461,33.28 L 196.472,33.244 L 196.467,33.263 L 196.461,33.28 M 196.373,33.513 L 196.388,33.476 L 196.382,33.495 L 196.373,33.513 M 196.269,33.733 L 196.288,33.697 L 196.279,33.715 L 196.269,33.733 M 196.147,33.941 L 196.17,33.905 L 196.159,33.923 L 196.147,33.941 M 196.008,34.134 L 196.035,34.099 L 196.022,34.117 L 196.008,34.134 M 195.853,34.313 L 195.884,34.28 L 195.869,34.297 L 195.853,34.313 M 195.681,34.476 L 195.716,34.445 L 195.699,34.461 L 195.681,34.476 M 195.494,34.622 L 195.532,34.595 L 195.514,34.609 L 195.494,34.622 M 195.291,34.75 L 195.331,34.727 L 195.312,34.74 L 195.291,34.75 M 195.073,34.86 L 195.115,34.841 L 195.094,34.852 L 195.073,34.86 M 194.84,34.951 L 194.882,34.937 L 194.861,34.945 L 194.84,34.951 M 194.592,35.022 L 194.634,35.012 L 194.613,35.018 L 194.592,35.022 M 194.334,35.071 L 194.365,35.066 L 194.35,35.069 L 194.334,35.071 M 194.339,35.565 L 194.339,35.564 L 194.339,35.564 L 194.339,35.565 M 194.403,35.803 L 194.404,35.804 L 194.404,35.804 L 194.403,35.803 M 194.468,36.044 L 194.468,36.043 L 194.468,36.043 L 194.468,36.044 M 194.532,36.284 L 194.532,36.283 L 194.532,36.283 L 194.532,36.284 M 194.595,36.524 L 194.595,36.523 L 194.595,36.523 L 194.595,36.524 M 194.658,36.764 L 194.658,36.763 L 194.658,36.763 L 194.658,36.764 M 194.72,37.004 L 194.72,37.003 L 194.72,37.003 L 194.72,37.004 M 194.782,37.244 L 194.782,37.243 L 194.782,37.244 M 194.844,37.485 L 194.843,37.484 L 194.844,37.484 L 194.844,37.485 M 194.905,37.725 L 194.904,37.724 L 194.904,37.725 L 194.905,37.725 M 194.965,37.966 L 194.965,37.965 L 194.965,37.965 L 194.965,37.966 M 195.025,38.207 L 195.025,38.206 L 195.025,38.206 L 195.025,38.207 M 195.084,38.448 L 195.084,38.447 L 195.084,38.447 L 195.084,38.448 M 195.143,38.689 L 195.143,38.688 L 195.143,38.688 L 195.143,38.689 M 195.202,38.93 L 195.201,38.929 L 195.201,38.93 L 195.202,38.93 M 195.26,39.172 L 195.259,39.171 L 195.259,39.171 L 195.26,39.172 M 195.317,39.413 L 195.317,39.412 L 195.317,39.413 M 195.374,39.655 L 195.374,39.654 L 195.374,39.654 L 195.374,39.655 M 195.487,40.138 L 195.487,40.137 L 195.487,40.138 M 195.543,40.38 L 195.543,40.379 L 195.543,40.38 M 195.598,40.622 L 195.598,40.621 L 195.598,40.622 M 195.707,41.107 L 195.707,41.106 L 195.707,41.106 L 195.707,41.107 M 195.762,41.349 L 195.761,41.348 L 195.761,41.349 L 195.762,41.349 M 195.815,41.592 L 195.815,41.591 L 195.815,41.591 L 195.815,41.592 M 195.868,41.834 L 195.868,41.833 L 195.868,41.834 M 195.921,42.077 L 195.921,42.076 L 195.921,42.077 M 195.974,42.32 L 195.974,42.319 L 195.974,42.319 L 195.974,42.32 M 196.026,42.563 L 196.026,42.562 L 196.026,42.562 L 196.026,42.563 M 196.077,42.806 L 196.077,42.805 L 196.077,42.805 L 196.077,42.806 M 196.129,43.049 L 196.129,43.048 L 196.129,43.048 L 196.129,43.049 M 196.179,43.291 L 196.18,43.291 L 196.18,43.292 L 196.179,43.291 M 196.23,43.535 L 196.23,43.534 L 196.23,43.535 M 196.33,44.022 L 196.33,44.021 L 196.33,44.021 L 196.33,44.022 M 196.38,44.265 L 196.379,44.265 L 196.379,44.265 L 196.38,44.265 M 196.429,44.509 L 196.428,44.508 L 196.429,44.509 M 196.477,44.753 L 196.477,44.752 L 196.477,44.752 L 196.477,44.753 M 196.574,45.24 L 196.574,45.239 L 196.574,45.24 M 196.621,45.484 L 196.621,45.483 L 196.621,45.484 M 196.669,45.728 L 196.669,45.727 L 196.669,45.728 M 196.716,45.972 L 196.716,45.971 L 196.716,45.972 M 196.763,46.216 L 196.763,46.215 L 196.763,46.216 M 196.901,46.948 L 196.901,46.948 L 196.901,46.949 L 196.901,46.948 M 196.947,47.193 L 196.946,47.193 L 196.946,47.193 L 196.947,47.193 M 196.992,47.438 L 196.992,47.437 L 196.992,47.437 L 196.992,47.438 M 197.037,47.682 L 197.037,47.681 L 197.037,47.682 M 197.081,47.927 L 197.081,47.926 L 197.081,47.926 L 197.081,47.927 M 197.17,48.416 L 197.17,48.415 L 197.17,48.415 L 197.17,48.416 M 196.948,78.809 L 196.948,78.81 L 196.948,78.809 M 196.973,79.047 L 196.973,79.049 L 196.973,79.048 L 196.973,79.047 M 196.998,79.287 L 196.999,79.288 L 196.998,79.287 M 197.025,79.527 L 197.025,79.528 L 197.025,79.527 M 197.052,79.768 L 197.052,79.769 L 197.052,79.768 M 197.08,80.009 L 197.08,80.01 L 197.08,80.01 L 197.08,80.009 M 197.137,80.495 L 197.166,80.738 L 197.137,80.495 M 197.166,80.738 L 197.196,80.983 L 197.166,80.739 L 197.166,80.738 M 197.199,99.524 L 197.203,99.52 L 197.201,99.522 L 197.199,99.524 M 197.02,99.694 L 197.024,99.69 L 197.022,99.692 L 197.02,99.694 M 196.84,99.863 L 196.844,99.859 L 196.842,99.861 L 196.84,99.863 M 196.657,100.029 L 196.661,100.026 L 196.659,100.027 L 196.657,100.029 M 196.473,100.194 L 196.477,100.19 L 196.475,100.192 L 196.473,100.194 M 196.287,100.356 L 196.291,100.353 L 196.289,100.354 L 196.287,100.356 M 196.099,100.516 L 196.103,100.513 L 196.101,100.515 L 196.099,100.516 M 195.91,100.675 L 195.914,100.672 L 195.912,100.673 L 195.91,100.675 M 195.719,100.831 L 195.723,100.828 L 195.721,100.83 L 195.719,100.831 M 195.526,100.986 L 195.53,100.983 L 195.528,100.984 L 195.526,100.986 M 195.331,101.138 L 195.335,101.135 L 195.333,101.137 L 195.331,101.138 M 195.135,101.289 L 195.139,101.286 L 195.137,101.287 L 195.135,101.289 M 194.941,101.435 L 194.939,101.436 L 194.937,101.437 L 194.941,101.435 M 194.738,101.584 L 194.742,101.581 L 194.74,101.583 L 194.738,101.584 M 194.538,101.729 L 194.541,101.726 L 194.54,101.727 L 194.538,101.729 M 194.336,101.872 L 194.339,101.869 L 194.337,101.87 L 194.336,101.872 M 197.3,49.15 L 197.3,49.149 L 197.3,49.15 M 197.343,49.395 L 197.343,49.394 L 197.343,49.394 L 197.343,49.395 M 197.386,49.64 L 197.343,49.395 L 197.386,49.639 L 197.386,49.64 M 197.429,49.884 L 197.386,49.64 L 197.429,49.884 M 197.471,50.129 L 197.429,49.884 L 197.471,50.129 M 197.513,50.374 L 197.471,50.129 L 197.513,50.374 M 197.555,50.619 L 197.513,50.374 L 197.555,50.619 M 197.597,50.864 L 197.555,50.619 L 197.597,50.864 M 197.638,51.109 L 197.597,50.864 L 197.638,51.109 M 197.679,51.355 L 197.638,51.109 L 197.679,51.354 L 197.679,51.355 M 197.72,51.6 L 197.679,51.355 L 197.72,51.599 L 197.72,51.6 L 197.761,51.845 L 197.761,51.845 L 197.72,51.6 M 197.801,52.09 L 197.761,51.845 L 197.801,52.09 M 197.842,52.335 L 197.801,52.09 L 197.842,52.335 M 197.882,52.58 L 197.842,52.335 L 197.882,52.58 M 197.922,52.826 L 197.882,52.58 L 197.922,52.825 L 197.922,52.826 M 197.962,53.071 L 197.922,52.826 L 197.962,53.071 M 198.001,53.316 L 197.962,53.071 L 198.001,53.316 M 198.041,53.561 L 198.001,53.316 L 198.041,53.561 M 198.08,53.807 L 198.041,53.561 L 198.08,53.806 L 198.08,53.807 M 198.119,54.052 L 198.08,53.807 L 198.119,54.052 M 198.158,54.297 L 198.119,54.052 L 198.158,54.297 M 198.197,54.542 L 198.158,54.297 L 198.197,54.542 M 198.236,54.788 L 198.197,54.542 L 198.236,54.788 M 198.274,55.033 L 198.236,54.788 L 198.274,55.033 M 198.313,55.278 L 198.274,55.033 L 198.313,55.278 L 198.351,55.523 L 198.351,55.524 L 198.313,55.278 M 198.389,55.769 L 198.351,55.524 L 198.389,55.769 M 198.427,56.014 L 198.389,55.769 L 198.427,56.014 M 198.465,56.259 L 198.427,56.014 L 198.465,56.259 M 198.503,56.505 L 198.465,56.259 L 198.503,56.505 M 198.54,56.75 L 198.503,56.505 L 198.54,56.75 M 198.578,56.995 L 198.54,56.75 L 198.578,56.995 M 198.615,57.24 L 198.578,56.995 L 198.615,57.24 M 198.653,57.485 L 198.615,57.24 L 198.653,57.485 M 198.69,57.731 L 198.653,57.485 L 198.69,57.731 M 198.727,57.976 L 198.69,57.731 L 198.727,57.976 M 198.764,58.221 L 198.727,57.976 L 198.764,58.221 M 198.801,58.466 L 198.764,58.221 L 198.801,58.466 M 198.838,58.711 L 198.801,58.466 L 198.838,58.711 M 198.875,58.954 L 198.838,58.711 L 198.875,58.954 L 198.911,59.198 L 198.911,59.198 L 198.875,58.954 M 198.948,59.441 L 198.911,59.198 L 198.948,59.441 M 198.984,59.685 L 198.948,59.441 L 198.984,59.684 L 198.984,59.685 M 199.02,59.928 L 198.984,59.685 L 199.02,59.928 M 199.056,60.171 L 199.02,59.928 L 199.056,60.171 M 199.092,60.415 L 199.056,60.171 L 199.092,60.415 M 199.127,60.658 L 199.092,60.415 L 199.127,60.658 M 199.163,60.902 L 199.127,60.658 L 199.163,60.902 M 199.198,61.145 L 199.163,60.902 L 199.198,61.145 M 199.233,61.389 L 199.198,61.145 L 199.233,61.389 M 199.269,61.632 L 199.233,61.389 L 199.269,61.632 M 199.304,61.876 L 199.269,61.632 L 199.303,61.876 L 199.304,61.876 M 199.338,62.119 L 199.304,61.876 L 199.338,62.119 M 199.373,62.363 L 199.338,62.119 L 199.373,62.363 M 199.408,62.607 L 199.373,62.363 L 199.408,62.606 L 199.408,62.607 M 199.442,62.85 L 199.408,62.607 L 199.442,62.85 M 199.477,63.094 L 199.442,62.85 L 199.476,63.094 L 199.477,63.094 M 199.511,63.337 L 199.477,63.094 L 199.511,63.337 M 199.545,63.581 L 199.511,63.337 L 199.545,63.581 M 199.579,63.825 L 199.545,63.581 L 199.579,63.825 M 199.613,64.068 L 199.579,63.825 L 199.613,64.068 M 199.647,64.312 L 199.613,64.068 L 199.647,64.312 M 199.68,64.556 L 199.647,64.312 L 199.68,64.556 M 199.714,64.8 L 199.68,64.556 L 199.714,64.8 M 199.747,65.043 L 199.714,64.8 L 199.747,65.043 M 199.781,65.287 L 199.747,65.043 L 199.781,65.287 M 199.814,65.531 L 199.781,65.287 L 199.814,65.531 M 199.847,65.775 L 199.814,65.531 L 199.847,65.775 M 199.88,66.019 L 199.847,65.775 L 199.88,66.019 M 199.913,66.262 L 199.88,66.019 L 199.913,66.262 M 199.946,66.506 L 199.913,66.262 L 199.946,66.506 L 199.979,66.75 L 199.979,66.75 L 199.946,66.506 M 200.012,66.994 L 199.979,66.75 L 200.012,66.994 M 200.044,67.238 L 200.012,66.994 L 200.044,67.238 M 200.077,67.482 L 200.044,67.238 L 200.077,67.482 M 200.109,67.726 L 200.077,67.482 L 200.109,67.726 M 200.142,67.97 L 200.109,67.726 L 200.142,67.969 L 200.142,67.97 M 200.174,68.213 L 200.142,67.97 L 200.174,68.213 M 200.042,96.049 L 200.046,96.042 L 200.044,96.046 L 200.042,96.049 M 199.909,96.264 L 199.913,96.257 L 199.911,96.26 L 199.909,96.264 M 199.771,96.477 L 199.775,96.47 L 199.773,96.473 L 199.771,96.477 M 199.629,96.688 L 199.633,96.681 L 199.631,96.685 L 199.629,96.688 M 199.482,96.898 L 199.487,96.892 L 199.484,96.895 L 199.482,96.898 M 199.331,97.107 L 199.336,97.1 L 199.333,97.104 L 199.331,97.107 M 199.176,97.313 L 199.18,97.307 L 199.178,97.31 L 199.176,97.313 M 199.024,97.509 L 199.028,97.504 L 199.026,97.507 L 199.024,97.509 M 198.873,97.698 L 198.871,97.7 L 198.869,97.703 L 198.873,97.698 M 198.712,97.895 L 198.716,97.89 L 198.714,97.892 L 198.712,97.895 M 198.553,98.084 L 198.557,98.079 L 198.555,98.082 L 198.553,98.084 M 198.391,98.271 L 198.395,98.267 L 198.393,98.269 L 198.391,98.271 M 198.227,98.457 L 198.231,98.452 L 198.229,98.454 L 198.227,98.457 M 198.061,98.64 L 198.065,98.635 L 198.063,98.638 L 198.061,98.64 M 197.893,98.821 L 197.897,98.817 L 197.895,98.819 L 197.893,98.821 M 197.722,99.0 L 197.726,98.996 L 197.724,98.998 L 197.722,99.0 M 197.55,99.176 L 197.554,99.172 L 197.552,99.174 L 197.55,99.176 M 197.375,99.351 L 197.379,99.347 L 197.377,99.349 L 197.375,99.351 M 200.206,68.457 L 200.174,68.213 L 200.206,68.457 M 200.238,68.701 L 200.206,68.457 L 200.238,68.701 M 200.27,68.945 L 200.238,68.701 L 200.27,68.945 M 200.302,69.189 L 200.27,68.945 L 200.302,69.189 M 200.334,69.433 L 200.302,69.189 L 200.334,69.433 L 200.366,69.677 L 200.366,69.677 L 200.334,69.433 M 200.398,69.921 L 200.366,69.677 L 200.398,69.921 M 200.43,70.165 L 200.398,69.921 L 200.43,70.165 M 200.461,70.409 L 200.43,70.165 L 200.461,70.409 M 200.493,70.653 L 200.461,70.409 L 200.493,70.653 M 200.524,70.897 L 200.493,70.653 L 200.524,70.897 M 200.556,71.141 L 200.524,70.897 L 200.556,71.141 M 200.733,72.524 L 200.704,72.293 L 200.733,72.524 M 201.153,75.702 L 201.121,75.457 L 201.153,75.702 M 201.186,75.947 L 201.153,75.702 L 201.186,75.947 M 201.219,76.192 L 201.186,75.947 L 201.219,76.192 M 201.252,76.437 L 201.219,76.192 L 201.252,76.437 M 201.285,76.682 L 201.252,76.437 L 201.285,76.682 M 201.318,76.928 L 201.285,76.682 L 201.318,76.928 M 201.35,77.173 L 201.318,76.928 L 201.35,77.173 M 201.383,77.418 L 201.35,77.173 L 201.383,77.418 M 201.415,77.664 L 201.383,77.418 L 201.415,77.663 L 201.415,77.664 M 201.447,77.909 L 201.415,77.664 L 201.447,77.909 M 201.479,78.154 L 201.447,77.909 L 201.479,78.154 M 201.511,78.4 L 201.479,78.154 L 201.51,78.4 L 201.511,78.4 M 201.542,78.646 L 201.542,78.645 L 201.542,78.645 L 201.542,78.646 M 201.604,79.137 L 201.604,79.136 L 201.604,79.136 L 201.604,79.137 M 201.635,79.382 L 201.634,79.382 L 201.635,79.382 M 201.665,79.628 L 201.665,79.627 L 201.665,79.628 M 201.695,79.874 L 201.695,79.873 L 201.695,79.873 L 201.695,79.874 M 201.753,80.365 L 201.753,80.364 L 201.753,80.365 M 201.782,80.611 L 201.782,80.61 L 201.782,80.611 M 201.81,80.857 L 201.81,80.856 L 201.81,80.856 L 201.81,80.857 M 201.838,81.103 L 201.838,81.102 L 201.838,81.102 L 201.838,81.103 M 201.865,81.348 L 201.865,81.348 L 201.865,81.349 L 201.865,81.348 M 201.892,81.594 L 201.892,81.593 L 201.892,81.594 M 201.918,81.84 L 201.918,81.839 L 201.918,81.84 M 201.944,82.086 L 201.944,82.085 L 201.944,82.086 M 201.969,82.332 L 201.969,82.331 L 201.969,82.331 L 201.969,82.332 M 201.994,82.578 L 201.994,82.577 L 201.994,82.577 L 201.994,82.578 M 202.018,82.824 L 202.018,82.823 L 202.018,82.823 L 202.018,82.824 M 202.041,83.07 L 202.041,83.069 L 202.041,83.069 L 202.041,83.07 M 202.064,83.316 L 202.064,83.314 L 202.064,83.315 L 202.064,83.316 M 202.086,83.562 L 202.086,83.56 L 202.086,83.561 L 202.086,83.562 M 202.107,83.807 L 202.107,83.806 L 202.107,83.807 M 202.127,84.053 L 202.127,84.052 L 202.127,84.053 M 202.147,84.299 L 202.147,84.298 L 202.147,84.299 M 202.166,84.545 L 202.166,84.544 L 202.166,84.544 L 202.166,84.545 M 202.184,84.791 L 202.184,84.79 L 202.184,84.79 L 202.184,84.791 M 202.202,85.035 L 202.202,85.036 L 202.202,85.037 L 202.202,85.035 M 202.218,85.283 L 202.218,85.281 L 202.218,85.282 L 202.218,85.283 M 202.234,85.529 L 202.234,85.527 L 202.234,85.528 L 202.234,85.529 M 202.249,85.774 L 202.249,85.773 L 202.249,85.774 M 202.263,86.021 L 202.263,86.018 L 202.263,86.019 L 202.263,86.021 M 202.275,86.277 L 202.275,86.272 L 202.275,86.275 L 202.275,86.277 M 202.285,86.532 L 202.285,86.527 L 202.285,86.529 L 202.285,86.532 M 202.292,86.786 L 202.292,86.781 L 202.292,86.784 L 202.292,86.786 M 202.297,87.04 L 202.297,87.035 L 202.297,87.037 L 202.297,87.04 M 202.298,87.293 L 202.298,87.288 L 202.298,87.29 L 202.298,87.293 M 202.297,87.546 L 202.297,87.54 L 202.297,87.543 L 202.297,87.546 M 202.293,87.798 L 202.293,87.792 L 202.293,87.795 L 202.293,87.798 M 202.286,88.049 L 202.286,88.043 L 202.286,88.046 L 202.286,88.049 M 202.276,88.3 L 202.277,88.294 L 202.277,88.297 L 202.276,88.3 M 202.264,88.55 L 202.264,88.544 L 202.264,88.547 L 202.264,88.55 M 202.248,88.793 L 202.248,88.796 L 202.248,88.799 L 202.248,88.793 M 202.229,89.047 L 202.229,89.041 L 202.229,89.044 L 202.229,89.047 M 202.207,89.295 L 202.207,89.289 L 202.207,89.292 L 202.207,89.295 M 202.182,89.542 L 202.182,89.536 L 202.182,89.539 L 202.182,89.542 M201.809,91.722 L201.808,91.726 L201.809,91.719 Z" id="🖍-Hair-Ink" fill="#000000" fill-rule="evenodd"></path>
</g>
</svg>
