<?xml version="1.0" encoding="UTF-8"?>
<svg xmlns="http://www.w3.org/2000/svg" viewBox="-12 -23 270 714">
<g stroke="none" stroke-width="1" fill="none" fill-rule="evenodd">
<g transform="translate(76.9457,6.66181)">
<path d="M29.904,101.055 L28.33,98.518 L26.486,95.307 L25.132,92.665 L24.523,91.317 L23.978,89.961 L23.685,89.435 L23.556,89.415 L23.271,89.605 L22.832,89.814 L22.125,89.993 L21.638,90.03 L21.137,90.013 L20.125,89.841 L18.894,89.451 L17.556,88.871 L16.478,88.274 L15.268,87.415 L14.347,86.592 L13.514,85.678 L12.761,84.668 L12.115,83.601 L11.583,82.487 L11.169,81.331 L10.879,80.14 L10.719,78.924 L3.355,78.924 L3.151,76.696 L3.043,74.193 L3.045,71.606 L3.168,68.687 L3.411,65.666 L3.777,62.473 L4.109,60.217 L4.567,57.87 L5.071,55.797 L5.734,53.54 L6.422,51.55 L7.285,49.388 L8.252,47.279 L9.253,45.348 L8.181,44.511 L7.725,44.201 L7.706,44.236 L7.008,44.158 L5.902,43.948 L5.032,43.689 L3.973,43.257 L2.763,42.591 L2.189,42.201 L1.507,41.663 L0.757,40.863 L0.181,40.159 L-0.35,39.423 L-0.836,38.655 L-1.278,37.858 L-1.674,37.031 L-2.027,36.176 L-2.405,35.071 L-2.657,34.159 L-2.911,32.984 L-3.096,31.775 L-3.212,30.533 L-3.26,29.261 L-3.245,28.085 L-3.176,26.93 L-3.025,25.537 L-2.844,24.374 L-2.562,22.984 L-2.276,21.834 L-1.871,20.47 L-1.404,19.13 L-0.967,18.036 L-0.389,16.758 L0.191,15.627 L0.995,14.21 L1.958,12.772 L2.859,11.618 L3.99,10.365 L5.025,9.374 L6.3,8.317 L7.643,7.369 L9.045,6.533 L10.499,5.813 L11.998,5.211 L13.534,4.73 L14.876,4.417 L16.463,4.169 L18.067,4.051 L19.68,4.066 L21.096,4.191 L22.491,4.421 L24.06,4.817 L25.351,5.266 L26.788,5.912 L28.146,6.689 L29.242,7.456 L30.437,8.466 L31.385,9.428 L32.26,10.478 L32.929,11.418 L33.659,12.622 L34.203,13.688 L34.862,15.274 L35.396,16.965 L35.644,17.978 L35.848,19.024 L36.021,20.149 L35.942,20.176 L36.362,20.83 L37.321,22.183 L37.998,21.964 L37.998,18.013 L42.748,15.88 L48.685,14.221 L54.623,13.51 L60.56,13.747 L66.497,14.932 L72.434,17.065 L78.372,20.383 L78.372,22.859 L79.853,23.295 L81.187,23.775 L82.271,24.222 L83.54,24.811 L84.57,25.347 L85.774,26.042 L87.131,26.924 L88.437,27.882 L89.692,28.912 L90.894,30.015 L92.043,31.188 L93.137,32.43 L94.177,33.74 L95.162,35.115 L96.089,36.554 L96.921,37.987 L97.762,39.604 L98.533,41.273 L99.232,42.988 L99.859,44.745 L100.413,46.54 L100.894,48.369 L101.254,49.992 L101.557,51.635 L101.802,53.295 L101.989,54.967 L102.131,56.891 L102.191,58.582 L102.188,60.529 L102.097,61.426 L101.935,62.43 L101.759,63.244 L101.472,64.307 L101.107,65.45 L100.45,67.255 L97.499,74.904 L97.873,69.519 L98.034,64.395 L97.779,62.955 L97.606,62.305 L97.323,61.457 L96.783,60.223 L95.981,58.834 L95.145,57.679 L93.998,56.366 L92.724,55.126 L91.244,53.869 L90.043,52.957 L88.407,51.807 L82.486,47.915 L80.458,46.531 L78.307,44.911 L76.603,43.45 L75.6,42.469 L74.841,41.642 L74.151,40.8 L73.422,39.792 L73.607,39.333 L73.688,38.181 L73.262,39.331 L72.738,40.53 L72.144,41.703 L71.482,42.849 L70.751,43.968 L69.955,45.059 L69.094,46.122 L68.009,47.326 L67.011,48.326 L65.953,49.297 L64.835,50.237 L63.66,51.147 L62.427,52.025 L61.139,52.871 L59.796,53.685 L58.163,54.594 L56.618,55.38 L55.122,56.079 L53.592,56.736 L51.808,57.434 L50.222,57.998 L48.386,58.589 L46.764,59.057 L44.899,59.535 L41.626,60.224 L39.762,60.53 L38.141,60.745 L35.173,61.009 L32.207,61.096 L31.812,60.809 L31.598,60.738 L31.145,60.741 L30.713,60.914 L30.363,61.229 L30.238,61.43 L30.157,61.655 L30.127,61.901 L30.794,65.202 L31.356,68.493 L31.789,71.797 L32.093,75.11 L32.25,77.952 L32.311,80.793 L32.277,83.629 L32.16,86.221 L31.917,89.272 L31.561,92.304 L30.725,97.604 L30.34,99.508 Z" id="🎨-Hair" fill="#E8E1E1" fill-rule="evenodd"></path>
<path d="M33.704,97.792 L33.163,99.97 L32.539,102.128 L31.942,103.922 L31.927,103.826 L30.351,101.712 L29.288,100.101 L27.457,97.031 L26.017,94.434 L25.027,92.442 L24.427,91.091 L23.978,89.961 L23.693,89.443 L23.567,89.411 L23.271,89.605 L22.836,89.813 L22.125,89.993 L21.638,90.03 L21.137,90.013 L20.125,89.841 L18.894,89.451 L17.556,88.871 L16.478,88.274 L15.268,87.415 L14.347,86.592 L13.514,85.678 L12.761,84.668 L12.115,83.601 L11.583,82.487 L11.169,81.331 L10.879,80.14 L10.719,78.924 L0.336,78.924 L0.215,77.92 L0.039,75.294 L-0.006,72.372 L0.08,69.702 L0.308,66.767 L0.667,63.854 L1.149,60.983 L1.743,58.172 L2.512,55.199 L3.317,52.58 L4.294,49.862 L5.364,47.315 L6.515,44.965 L5.735,45.048 L4.975,45.06 L4.234,45.004 L3.514,44.883 L2.816,44.701 L2.139,44.46 L1.486,44.165 L0.857,43.819 L0.252,43.424 L-0.327,42.985 L-0.88,42.505 L-1.575,41.806 L-2.063,41.242 L-2.669,40.444 L-3.089,39.816 L-3.6,38.944 L-4.357,37.347 L-4.93,35.696 L-5.267,34.271 L-5.624,32.319 L-5.797,31.068 L-5.923,29.311 L-5.908,27.301 L-5.73,25.3 L-5.396,23.315 L-5.111,22.088 L-4.77,20.874 L-4.375,19.674 L-3.927,18.493 L-3.427,17.331 L-2.879,16.191 L-2.283,15.075 L-1.642,13.987 L-0.956,12.928 L-0.229,11.9 L0.697,10.711 L1.511,9.76 L2.361,8.849 L3.245,7.978 L4.163,7.151 L5.112,6.371 L6.09,5.638 L7.095,4.956 L8.127,4.327 L9.182,3.753 L10.259,3.236 L11.357,2.779 L12.474,2.385 L13.379,2.116 L14.525,1.839 L15.684,1.632 L16.855,1.495 L17.8,1.438 L18.988,1.435 L19.943,1.489 L21.143,1.627 L22.105,1.797 L23.551,2.152 L24.997,2.631 L26.441,3.239 L27.878,3.979 L29.307,4.856 L30.409,5.643 L31.74,6.751 L32.991,7.963 L34.146,9.272 L35.047,10.466 L35.855,11.72 L36.561,13.031 L37.155,14.393 L37.625,15.801 L37.852,16.779 L42.343,14.766 L48.454,13.058 L54.575,12.325 L60.7,12.57 L66.815,13.79 L72.927,15.987 L79.05,19.411 L79.304,19.649 L79.43,19.845 L79.514,20.061 L79.547,20.542 L80.162,20.77 L82.661,21.858 L85.065,23.082 L86.746,24.059 L88.367,25.111 L89.922,26.238 L91.407,27.443 L92.817,28.725 L93.987,29.913 L95.246,31.346 L96.276,32.667 L97.368,34.255 L98.245,35.713 L99.047,37.236 L99.769,38.826 L100.409,40.482 L100.963,42.206 L101.43,43.999 L102.26,48.314 L102.555,50.273 L102.807,52.494 L102.957,54.478 L103.037,56.715 L103.027,58.703 L102.936,60.686 L102.763,62.66 L102.382,65.351 L101.884,67.763 L101.337,69.645 L100.151,73.124 L99.715,74.526 L99.35,75.948 L99.108,77.378 L98.987,77.84 L98.859,77.932 L98.241,78.139 L97.594,78.221 L96.943,78.176 L96.314,78.005 L95.828,77.769 L95.919,75.601 L96.303,69.147 L96.351,67.155 L96.328,65.408 L95.981,64.365 L95.472,63.134 L94.887,61.981 L94.231,60.898 L93.36,59.683 L92.407,58.55 L91.207,57.319 L89.927,56.169 L88.779,55.234 L87.396,54.19 L82.724,50.901 L81.131,49.731 L79.596,48.508 L78.144,47.205 L76.8,45.799 L76.176,45.049 L75.59,44.263 L74.661,42.794 L74.191,41.895 L73.87,41.19 L73.322,42.319 L72.73,43.417 L72.096,44.482 L71.281,45.719 L70.558,46.716 L69.642,47.871 L68.838,48.799 L67.829,49.873 L66.952,50.735 L65.858,51.729 L64.721,52.681 L63.544,53.589 L61.29,55.146 L60.013,55.936 L58.706,56.685 L56.009,58.061 L53.22,59.277 L51.797,59.825 L50.117,60.416 L46.955,61.376 L43.759,62.158 L42.033,62.507 L40.309,62.807 L36.88,63.26 L33.504,63.522 L34.031,66.45 L34.446,69.159 L34.819,72.137 L35.083,74.882 L35.268,77.636 L35.362,80.146 L35.381,82.907 L35.316,85.414 L35.171,87.916 L34.941,90.407 L34.622,92.886 L34.211,95.349 Z M35.424,107.858 L35.414,107.92 L35.412,107.88 L35.394,107.839 Z M35.384,108.119 L35.383,108.123 L35.385,108.115 Z M35.198,108.726 L35.199,108.722 L35.198,108.726 Z M34.598,109.66 L34.9,109.286 L35.123,108.868 L34.901,109.287 Z M34.501,109.78 L34.498,109.783 L34.503,109.777 Z M34.268,109.996 L34.267,109.997 L34.269,109.995 Z M33.982,110.204 L33.75,110.372 L33.752,110.37 Z M60.419,14.927 L66.178,16.076 L71.94,18.147 L72.179,18.28 L71.247,18.087 L71.247,21.331 L74.212,22.179 L75.917,22.749 L77.607,23.375 L78.885,23.732 L80.37,24.227 L81.569,24.695 L82.731,25.21 L83.858,25.771 L84.949,26.378 L86.212,27.163 L87.423,28.007 L88.583,28.909 L89.693,29.866 L90.751,30.875 L91.76,31.933 L92.717,33.039 L93.771,34.384 L95.025,36.196 L96.167,38.092 L97.196,40.063 L98.209,42.332 L99.004,44.434 L99.756,46.826 L100.317,49.02 L100.812,51.493 L101.141,53.739 L101.362,55.998 L101.474,58.258 L101.478,60.513 L101.288,61.988 L100.911,63.664 L100.326,65.539 L98.55,70.158 L98.752,64.375 L98.496,62.884 L98.09,61.482 L97.835,60.812 L97.443,59.949 L96.626,58.517 L95.656,57.175 L94.716,56.088 L93.689,55.053 L92.586,54.063 L91.217,52.957 L89.986,52.042 L88.5,51.005 L82.792,47.262 L80.444,45.639 L78.236,43.933 L77.298,43.118 L76.41,42.275 L75.262,41.036 L74.244,39.722 L74.315,39.431 L74.388,38.634 L74.403,37.616 L74.369,36.932 L74.294,36.327 L74.171,35.871 L74.09,35.721 L73.994,35.635 L73.883,35.622 L73.757,35.69 L73.613,35.849 L73.307,37.029 L72.856,38.406 L72.317,39.741 L71.694,41.034 L71.113,42.08 L70.346,43.297 L69.65,44.279 L68.752,45.419 L67.787,46.517 L66.76,47.574 L65.674,48.588 L64.534,49.561 L63.342,50.492 L61.893,51.525 L60.605,52.366 L59.053,53.293 L57.686,54.043 L56.052,54.864 L54.384,55.629 L52.686,56.337 L50.964,56.988 L49.226,57.581 L47.477,58.118 L45.722,58.598 L43.719,59.077 L41.479,59.526 L39.265,59.881 L37.091,60.142 L34.736,60.321 L32.464,60.384 L32.274,60.251 L31.85,60.077 L31.623,60.035 L31.158,60.036 L30.697,60.145 L30.269,60.352 L29.9,60.653 L29.747,60.835 L29.517,61.259 L29.448,61.5 L29.418,62.032 L30.172,65.736 L30.703,68.931 L31.14,72.395 L31.417,75.625 L31.554,78.365 L31.602,81.108 L31.559,83.851 L31.441,86.341 L31.199,89.322 L30.846,92.29 L30.033,97.44 L29.629,99.425 L29.39,100.263 L27.457,97.031 L26.017,94.434 L25.027,92.442 L24.427,91.091 L23.978,89.961 L23.685,89.435 L23.556,89.415 L23.271,89.605 L22.832,89.814 L22.125,89.993 L21.638,90.03 L21.137,90.013 L20.125,89.841 L18.894,89.451 L17.556,88.871 L16.478,88.274 L15.268,87.415 L14.347,86.592 L13.514,85.678 L12.761,84.668 L12.115,83.601 L11.583,82.487 L11.169,81.331 L10.879,80.14 L10.719,78.924 L4.083,78.924 L3.949,77.711 L3.811,75.652 L3.751,73.33 L3.779,71.02 L3.884,68.737 L4.074,66.253 L4.355,63.61 L4.683,61.148 L5.053,59.039 L5.507,56.978 L6.045,54.966 L6.664,53.002 L7.362,51.088 L8.237,48.995 L9.319,46.745 L10.388,44.788 L11.677,42.692 L12.924,40.875 L14.404,38.937 L15.977,37.084 L17.639,35.316 L18.678,34.298 L19.926,33.149 L21.028,32.199 L22.347,31.132 L23.507,30.252 L24.892,29.268 L27.551,27.558 L30.314,26.006 L33.171,24.615 L36.114,23.386 L39.186,22.304 L39.186,18.961 L41.132,18.054 L40.449,18.212 L43.154,16.997 L48.918,15.386 L54.67,14.697 Z M 1.992,41.139 L 2.768,41.738 L 3.599,42.262 L 4.255,42.603 L 5.164,42.98 L 5.866,43.203 L 6.583,43.37 L 7.309,43.478 L 8.421,41.533 L 9.754,39.433 L 11.04,37.601 L 12.56,35.634 L 14.006,33.928 L 15.698,32.109 L 17.475,30.374 L 19.144,28.887 L 21.072,27.322 L 22.87,25.995 L 24.935,24.616 L 26.85,23.463 L 29.038,22.284 L 31.059,21.318 L 33.124,20.445 L 35.232,19.668 L 34.962,18.182 L 34.528,16.503 L 33.978,14.938 L 33.32,13.487 L 32.562,12.149 L 31.71,10.924 L 30.771,9.812 L 29.577,8.655 L 28.286,7.65 L 26.91,6.795 L 25.461,6.091 L 24.604,5.755 L 23.729,5.468 L 22.161,5.083 L 21.247,4.929 L 20.323,4.823 L 19.391,4.765 L 18.453,4.755 L 16.567,4.878 L 14.684,5.191 L 12.819,5.692 L 11.899,6.013 L 10.99,6.381 L 9.433,7.136 L 8.565,7.632 L 7.717,8.173 L 6.285,9.232 L 4.929,10.431 L 3.661,11.77 L 2.492,13.248 L 1.433,14.863 L 0.336,16.9 L -0.549,18.901 L -1.293,21.013 L -1.823,22.962 L -2.256,25.206 L -2.482,27.224 L -2.545,29.243 L -2.435,31.242 L -2.311,32.228 L -2.139,33.201 L -1.718,34.866 L -1.138,36.469 L -0.39,37.998 L 0.116,38.833 L 0.534,39.439 L 1.144,40.217 L 1.992,41.139" id="🖍-Hair-Ink" fill="#000000" fill-rule="evenodd"></path>
</g>
</g>
</svg>
